<svg width="71" height="71" viewBox="0 0 71 71" fill="none" xmlns="http://www.w3.org/2000/svg">
<g clip-path="url(#clip0_1_727)">
<path d="M26.6165 3.2223C28.3369 6.08504 29.941 8.78678 31.5805 11.4659C31.8963 11.9841 31.8256 12.5124 31.8256 13.0457C31.8332 22.4364 31.8458 31.8271 31.8079 41.2178C31.8029 42.2517 32.0605 42.5435 33.1216 42.541C44.6564 42.5032 56.1937 42.5057 67.7285 42.5385C68.7112 42.541 68.9967 42.297 68.9916 41.2957C68.9538 31.6535 68.9714 22.0112 68.9664 12.369C68.9639 9.73516 67.7614 8.54529 65.1214 8.54277C54.5112 8.54025 43.901 8.53271 33.2933 8.55786C32.4092 8.56038 32.01 8.41699 32.0479 7.40824C32.0807 6.58313 32.3056 6.33911 33.1291 6.34918C36.3274 6.38943 39.5281 6.36679 42.7288 6.36679C50.0549 6.36679 57.3811 6.36427 64.7071 6.36679C68.9588 6.3693 71.0025 8.3868 71.0025 12.5828C71.0051 25.035 71.0051 37.4871 71 49.9368C70.9975 52.8423 69.5828 54.8296 67.0742 55.529C66.4124 55.7126 65.7379 55.6723 65.0684 55.6723C59.2151 55.6799 53.3643 55.6975 47.511 55.6547C46.5409 55.6472 46.1822 55.8736 46.2327 56.8974C46.3212 58.6533 46.3237 60.4218 46.2327 62.1777C46.1772 63.2216 46.5662 63.5059 47.5211 63.3977C48.0617 63.3373 48.615 63.3826 49.1607 63.3902C51.5202 63.4229 52.8641 64.6128 53.2229 66.9824C53.7963 70.7684 53.627 70.9722 49.8806 70.9722C39.6089 70.9722 29.3347 70.9571 19.063 70.9948C18.0475 70.9973 17.6054 70.786 17.7241 69.6993C17.8428 68.6226 17.6559 67.5283 17.8984 66.4441C18.3127 64.5977 19.634 63.4455 21.5135 63.3977C22.2713 63.3776 23.0317 63.3373 23.7846 63.3977C24.5904 63.4606 24.7799 63.1235 24.7622 62.3814C24.7193 60.5375 24.6965 58.6911 24.7698 56.8496C24.8077 55.9063 24.5248 55.6447 23.5749 55.6522C17.6382 55.695 11.7016 55.6799 5.76489 55.6698C2.09173 55.6698 0.0126383 53.5819 0.0101121 49.894C0.00253336 37.3161 0.0151646 24.7381 7.11982e-06 12.1627C-0.00251912 10.0899 0.666935 8.3868 2.46562 7.24221C2.75614 7.05857 3.24875 6.50514 3.46096 7.17429C3.62769 7.69753 4.49672 8.28618 3.67064 8.88992C2.38225 9.83075 2.021 11.0936 2.02353 12.613C2.04879 22.1722 2.05131 31.7315 2.01342 41.2882C2.00837 42.2793 2.27362 42.5586 3.26896 42.541C6.07562 42.4907 6.07562 42.5359 6.07562 39.7109C6.07562 27.0072 6.10088 14.3035 6.04025 1.60226C6.03267 0.238808 6.44697 -0.0379065 7.71009 -0.000172623C10.6961 0.0903886 13.6897 0.0803263 16.6757 0.00234297C17.7519 -0.0253285 17.9793 0.296667 17.9742 1.32554C17.9388 14.5324 17.9666 27.7367 17.9237 40.9436C17.9186 42.151 18.1308 42.7799 19.4723 42.5234C19.7577 42.468 20.0659 42.4806 20.3539 42.5208C21.1901 42.6366 21.4427 42.2894 21.4276 41.4668C21.3846 38.7852 21.4124 36.1011 21.4124 33.4169C21.4124 26.6248 21.4225 19.8327 21.3973 13.0406C21.3947 12.208 21.5918 11.5036 22.0238 10.7993C23.5446 8.34907 25.0199 5.87121 26.6165 3.2223ZM35.5796 44.5836C33.4752 44.5836 31.3734 44.5836 29.269 44.5836C20.6015 44.5836 11.9365 44.6012 3.26896 44.561C2.26857 44.556 1.96037 44.8226 2.01847 45.8137C2.10184 47.2325 2.01595 48.6614 2.04626 50.0852C2.09173 52.3467 3.34728 53.597 5.57795 53.597C25.5201 53.602 45.4622 53.602 65.4044 53.597C67.6502 53.597 68.9083 52.3593 68.9613 50.1079C68.9917 48.8098 68.979 47.5093 68.9664 46.2112C68.9487 44.3623 69.1988 44.5861 67.3875 44.5836C56.7823 44.5811 46.1822 44.5836 35.5796 44.5836ZM15.8673 22.3534C15.8673 15.9839 15.8496 9.61693 15.8875 3.24745C15.8926 2.33178 15.6804 1.99972 14.7053 2.03997C12.8156 2.11795 10.9184 2.10538 9.02627 2.04752C7.94756 2.01482 8.1724 2.72421 8.1825 3.30783C8.19261 3.87384 7.90461 4.63858 9.00353 4.5782C10.0949 4.52034 11.1938 4.62348 12.2826 4.54801C13.1617 4.48764 13.3209 4.85743 13.336 5.63475C13.3512 6.4825 13.0329 6.73155 12.2295 6.6913C11.1811 6.63847 10.1252 6.70136 9.07426 6.67369C8.45028 6.65608 8.17492 6.84475 8.15471 7.52396C8.12692 8.40944 8.23808 8.92766 9.3572 8.85974C10.0014 8.822 11.0978 8.23587 11.118 9.8056C11.1382 11.4458 10.0014 10.6936 9.2991 10.8596C9.18037 10.8873 9.04648 10.8747 8.92269 10.8621C8.01324 10.7816 8.20524 11.4382 8.1724 11.9564C8.13703 12.5249 8.21787 12.9325 8.96058 12.8973C9.96855 12.852 10.979 12.8998 11.9895 12.8822C12.7348 12.8696 13.3386 12.7966 13.3537 13.9236C13.3714 15.1236 12.7272 15.0682 11.9239 15.0456C11.0826 15.0229 10.2338 15.1059 9.40015 15.0229C8.36439 14.9223 8.09661 15.3424 8.15471 16.3084C8.24313 17.7926 9.34205 17.0455 9.94834 17.0857C10.777 17.1411 11.1129 17.287 11.118 18.2052C11.123 19.146 10.6784 19.2365 9.9635 19.1787C9.67046 19.156 9.37236 19.2038 9.08184 19.1686C8.3366 19.0806 8.13703 19.4378 8.15977 20.1195C8.17997 20.7484 8.14208 21.2842 9.05153 21.239C10.1858 21.1836 11.3251 21.2666 12.4594 21.2163C13.3992 21.1735 13.3007 21.7723 13.3183 22.371C13.336 22.9898 13.2577 23.425 12.4518 23.3873C11.3176 23.3344 10.1808 23.3998 9.04395 23.3671C8.39723 23.347 8.22292 23.586 8.14966 24.23C7.96019 25.8702 9.11721 25.4501 9.93319 25.4249C10.7618 25.3972 11.1205 25.5733 11.118 26.5091C11.118 27.4273 10.7087 27.5707 9.97361 27.4977C9.80687 27.4826 9.63509 27.5078 9.46836 27.4927C8.6827 27.4298 8.13198 27.4701 8.1345 28.5644C8.13703 29.7291 8.82417 29.5832 9.53657 29.5832C10.5041 29.5832 11.4742 29.6259 12.4392 29.5731C13.3562 29.5203 13.3108 30.0813 13.3209 30.7026C13.331 31.3265 13.2501 31.7541 12.4468 31.7088C11.4414 31.6535 10.4283 31.6912 9.41783 31.6963C8.17997 31.7013 7.95009 31.9654 8.18503 33.1754C8.39471 34.2596 9.26878 33.6861 9.8195 33.7188C10.6153 33.7666 11.1407 33.7515 11.1256 34.8332C11.1104 35.8747 10.5749 35.8747 9.84982 35.8344C9.55678 35.8193 9.25868 35.852 8.96564 35.8294C8.10419 35.764 8.1825 36.3501 8.16734 36.9086C8.14966 37.5123 8.19513 37.9802 9.01363 37.9475C10.1479 37.9022 11.2873 37.9827 12.4215 37.9249C13.3209 37.8796 13.3133 38.3978 13.3234 39.0367C13.3335 39.6807 13.2173 40.0631 12.4342 40.0229C11.3428 39.9675 10.2414 40.0757 9.1551 39.9902C8.0764 39.9046 8.15724 40.5486 8.16734 41.248C8.17745 41.9322 8.05114 42.5762 9.145 42.5284C10.9917 42.4504 12.8485 42.4529 14.6977 42.5284C15.6652 42.5686 15.8951 42.2466 15.8875 41.3209C15.8496 35.0068 15.8673 28.6801 15.8673 22.3534ZM35.519 63.3902C38.0806 63.3902 40.6447 63.365 43.2063 63.4053C43.9793 63.4178 44.2244 63.1763 44.2067 62.4066C44.1587 60.4847 44.1688 58.5577 44.2016 56.6358C44.2118 55.9667 44.0577 55.6623 43.3023 55.6648C38.0932 55.6925 32.8841 55.6874 27.6775 55.6673C27.0182 55.6648 26.7984 55.8887 26.8085 56.5377C26.8388 58.4621 26.8666 60.3866 26.7984 62.3085C26.7655 63.2317 27.1167 63.4204 27.9604 63.4053C30.4766 63.36 32.9978 63.3902 35.519 63.3902ZM23.5117 14.1073C23.5117 21.6012 23.5168 28.9165 23.5016 36.2344C23.4991 36.8859 23.8124 36.9865 24.3555 36.979C25.7424 36.9589 27.1344 36.9035 28.5162 36.9966C29.5545 37.0645 29.7718 36.6721 29.7667 35.7162C29.7313 28.8914 29.7515 22.0691 29.7389 15.2443C29.7389 14.9047 29.9208 14.4921 29.4888 14.1978C28.5516 14.7437 27.6093 15.7298 26.6721 15.7223C25.6843 15.7147 24.7041 14.7613 23.5117 14.1073ZM35.375 68.9446C40.0485 68.9446 44.7195 68.9446 49.3931 68.9446C51.0781 68.9446 51.7071 67.8453 50.881 66.3485C50.4263 65.5259 49.671 65.4278 48.8297 65.4303C39.9475 65.4404 31.0652 65.4354 22.1829 65.4379C21.9303 65.4379 21.6752 65.4228 21.4276 65.4605C20.2579 65.6416 19.7881 66.5447 19.8866 68.1899C19.9649 69.493 20.9324 68.9119 21.4857 68.9169C26.1138 68.9672 30.7444 68.9446 35.375 68.9446ZM26.6215 42.5183C26.8312 42.5183 27.0409 42.5183 27.2506 42.5183C29.9056 42.5183 29.8829 42.5183 29.7591 39.8921C29.7288 39.243 29.5318 39.0116 28.8775 39.0317C27.5765 39.0695 26.2653 39.1349 24.9744 39.0166C23.7214 38.9009 23.4157 39.3411 23.4789 40.5335C23.5825 42.5158 23.5042 42.5183 25.4847 42.5208C25.8662 42.5183 26.2451 42.5183 26.6215 42.5183ZM26.6165 7.29252C25.7677 8.70125 24.982 10.0144 24.1837 11.3175C24.0094 11.6042 23.9867 11.7954 24.2646 12.0621C25.5479 13.2947 26.6569 13.4381 28.1903 12.5199C28.3697 12.4117 28.5339 12.2709 28.7259 12.1954C29.3297 11.9564 29.264 11.6244 28.9659 11.1565C28.208 9.96156 27.4931 8.74402 26.6165 7.29252Z" fill="#B91E1E"/>
<path d="M54.8295 10.6057C58.447 10.6057 62.0672 10.6258 65.6847 10.5906C66.5058 10.5831 66.8822 10.7264 66.867 11.6673C66.814 14.8923 66.8291 18.1198 66.8594 21.3448C66.867 22.1221 66.6851 22.434 65.8085 22.4315C58.4041 22.3963 50.9972 22.4013 43.5902 22.4239C42.8197 22.4265 42.4635 22.2881 42.4762 21.4051C42.5242 18.1374 42.5267 14.8696 42.4762 11.6019C42.4635 10.7088 42.8324 10.5856 43.5928 10.5931C47.3392 10.6208 51.0856 10.6057 54.8295 10.6057ZM54.5895 20.2932C57.6184 20.2932 60.6474 20.2882 63.6764 20.2983C64.265 20.3008 64.7323 20.3058 64.7121 19.4706C64.6641 17.4607 64.6692 15.4482 64.7096 13.4383C64.7248 12.7213 64.3888 12.6282 63.7926 12.6307C57.7347 12.6433 51.6767 12.6509 45.6188 12.6232C44.8306 12.6207 44.6058 12.8899 44.6235 13.637C44.6639 15.4784 44.6765 17.3248 44.6184 19.1663C44.5906 20.0392 44.8685 20.3259 45.7577 20.3134C48.6983 20.2656 51.6439 20.2932 54.5895 20.2932Z" fill="#B91E1E"/>
<path d="M37.1811 10.6057C37.7697 10.6057 38.3659 10.6611 38.947 10.5932C39.917 10.48 40.2657 10.7944 40.2227 11.8132C40.1873 12.6308 39.8084 12.7163 39.2021 12.6333C38.3735 12.5201 38.1411 12.8496 38.1436 13.6722C38.1714 21.5511 38.1739 29.4324 38.1411 37.3112C38.1386 38.164 38.424 38.4533 39.2173 38.325C40.1621 38.1716 40.1873 38.7351 40.2076 39.4445C40.2278 40.1815 40.0509 40.506 39.235 40.4733C37.7647 40.413 36.2894 40.423 34.8166 40.4683C34.0208 40.4935 33.9273 40.0759 33.9425 39.4495C33.9576 38.8332 33.9021 38.1967 34.8216 38.3351C35.8801 38.4936 36.1428 38.0634 36.1378 37.0245C36.0923 29.3117 36.0974 21.5989 36.1327 13.8886C36.1378 12.9352 35.9306 12.4572 34.8974 12.6358C34.0713 12.7792 33.9324 12.3289 33.9324 11.617C33.9324 10.895 34.0814 10.5177 34.91 10.5906C35.6603 10.6586 36.4232 10.6057 37.1811 10.6057Z" fill="#B91E1E"/>
<path d="M48.1349 32.0865C46.6217 32.0865 45.1085 32.0588 43.5978 32.099C42.8248 32.1192 42.4534 31.9406 42.4812 31.0651C42.5393 29.1835 42.5191 27.2993 42.4888 25.4176C42.4787 24.7535 42.6302 24.4365 43.3881 24.4441C46.4979 24.4793 49.6077 24.4793 52.7175 24.4441C53.4729 24.434 53.632 24.7309 53.6219 25.4025C53.5891 27.327 53.5815 29.2514 53.6244 31.1758C53.6396 31.9028 53.3718 32.1141 52.6771 32.099C51.1614 32.0613 49.6481 32.0865 48.1349 32.0865ZM48.0869 30.0061C48.4229 30.0061 48.7614 30.0061 49.0974 30.0061C51.7095 30.0061 51.6919 30.0061 51.5453 27.337C51.515 26.7584 51.3634 26.5094 50.7521 26.5169C48.9863 26.5421 47.2179 26.527 45.4495 26.5245C45.0529 26.5245 44.7472 26.5547 44.6335 27.0729C44.1308 29.3822 44.6058 30.0035 46.9501 30.0035C47.329 30.0061 47.708 30.0061 48.0869 30.0061Z" fill="#B91E1E"/>
<path d="M61.3825 24.459C62.8932 24.459 64.4039 24.4892 65.9146 24.4465C66.6321 24.4238 66.8695 24.6754 66.8569 25.3772C66.8241 27.2991 66.8266 29.221 66.8569 31.143C66.867 31.8347 66.6422 32.1064 65.9222 32.0989C62.8174 32.0712 59.7127 32.0737 56.6079 32.0964C55.9511 32.1014 55.7263 31.8674 55.7364 31.2209C55.7642 29.2563 55.7718 27.2916 55.7339 25.3294C55.7187 24.5672 56.0749 24.4364 56.7292 24.449C58.2778 24.4792 59.8314 24.459 61.3825 24.459ZM61.1602 30.0059C61.4962 30.0059 61.8322 30.0059 62.1682 30.0059C64.8965 30.0059 64.8763 30.0059 64.7096 27.3142C64.6742 26.718 64.4898 26.5092 63.8961 26.5168C62.1328 26.5419 60.367 26.5344 58.6037 26.5193C58.0934 26.5143 57.8812 26.6702 57.8256 27.2237C57.5477 30.0084 57.53 30.0059 60.276 30.0059C60.5741 30.0059 60.8672 30.0059 61.1602 30.0059Z" fill="#B91E1E"/>
<path d="M45.8666 36.9793C45.4901 36.9793 45.1112 36.9592 44.7373 36.9844C44.0072 37.0296 43.4818 37.0146 43.4742 35.9857C43.4666 34.9392 43.9491 34.8285 44.7727 34.8713C45.6089 34.914 46.4501 34.9191 47.2838 34.8713C48.0998 34.8235 48.4762 35.0272 48.4837 35.9605C48.4913 36.9517 48.0113 37.0473 47.2484 36.9894C46.7886 36.9517 46.3263 36.9793 45.8666 36.9793Z" fill="#B91E1E"/>
<path d="M59.1949 36.9793C58.8159 36.9793 58.437 36.9567 58.0631 36.9844C57.2774 37.0397 56.7343 37.007 56.7293 35.9152C56.7267 34.7782 57.3583 34.8662 58.0909 34.8763C58.9296 34.8889 59.7734 34.9266 60.607 34.8662C61.4584 34.8033 61.6478 35.158 61.663 35.9504C61.6807 36.8007 61.3775 37.0699 60.5767 36.9869C60.122 36.9416 59.6546 36.9793 59.1949 36.9793Z" fill="#B91E1E"/>
<path d="M51.5454 36.9567C50.6562 37.1529 50.5248 36.6925 50.5122 35.9228C50.4995 35.1128 50.7471 34.8587 51.5707 34.8511C52.4245 34.8461 52.6014 35.1681 52.6064 35.9429C52.609 36.7479 52.3993 37.1403 51.5454 36.9567Z" fill="#B91E1E"/>
<path d="M64.6363 34.9113C65.5054 34.7453 65.8136 35.0547 65.7934 35.8949C65.7757 36.642 65.6595 37.0344 64.7677 37.0068C63.9947 36.9816 63.6233 36.8382 63.6764 35.9729C63.7168 35.2584 63.7269 34.6698 64.6363 34.9113Z" fill="#B91E1E"/>
<path d="M36.542 49.1471C36.7441 50.0753 36.1883 50.1105 35.4608 50.1558C34.5614 50.2112 34.4528 49.8087 34.4174 49.0515C34.377 48.1408 34.8065 48.0729 35.5466 48.0377C36.4283 48 36.6885 48.3446 36.542 49.1471Z" fill="#B91E1E"/>
<path d="M31.4718 50.0955C30.6205 50.259 30.234 50.0502 30.2769 49.1521C30.3123 48.4251 30.3577 47.9849 31.2823 48.0377C32.0124 48.0805 32.4899 48.1233 32.3914 49.0414C32.3181 49.6955 32.4874 50.4477 31.4718 50.0955Z" fill="#B91E1E"/>
<path d="M40.6826 49.1246C40.8898 50.0176 40.4149 50.1308 39.6469 50.1585C38.7779 50.1887 38.6288 49.8466 38.6061 49.0718C38.5833 48.2064 38.9143 48.053 39.6974 48.0379C40.5488 48.0203 40.857 48.307 40.6826 49.1246Z" fill="#B91E1E"/>
<path d="M25.5555 21.5511C25.5555 20.7989 25.5984 20.0417 25.5429 19.2921C25.4848 18.4871 25.6414 18.1072 26.6039 18.0972C27.622 18.0846 27.6497 18.5676 27.6346 19.3197C27.5992 20.9498 27.5866 22.585 27.6396 24.2151C27.6674 25.0528 27.2733 25.1559 26.5736 25.1635C25.841 25.171 25.4873 24.9949 25.5429 24.1849C25.6035 23.312 25.5555 22.429 25.5555 21.5511Z" fill="#B91E1E"/>
<path d="M25.5556 32.9166C25.836 32.4739 24.9922 31.4928 26.2149 31.3243C27.1269 31.1985 27.8292 31.3318 27.6296 32.5267C27.5892 32.7707 27.6473 33.0298 27.6195 33.2789C27.5437 33.9279 28.0035 34.7757 26.6469 34.8033C25.2701 34.831 25.5707 34.0159 25.553 33.2663C25.553 33.1833 25.5556 33.1003 25.5556 32.9166Z" fill="#B91E1E"/>
<path d="M26.5812 27.2112C27.4427 27.0225 27.6574 27.415 27.6473 28.225C27.6397 28.9646 27.4705 29.274 26.6595 29.2388C25.937 29.2061 25.4823 29.1759 25.5253 28.2426C25.5606 27.4628 25.6945 27.0175 26.5812 27.2112Z" fill="#B91E1E"/>
</g>
<defs>
<clipPath id="clip0_1_727">
<rect width="71" height="71" fill="white"/>
</clipPath>
</defs>
</svg>
