<svg width="81" height="81" viewBox="0 0 81 81" fill="none" xmlns="http://www.w3.org/2000/svg">
<g clip-path="url(#clip0_1_707)">
<path d="M26.254 29.8271C32.2096 29.8271 37.7731 29.8185 43.3336 29.8357C44.4296 29.8386 44.0921 29.0569 44.095 28.5252C44.1152 22.3948 44.1095 16.2644 44.1037 10.134C44.1037 9.266 44.1469 8.40666 44.545 7.62203C45.2458 6.24248 46.31 5.38313 47.9367 5.38313C57.5955 5.38313 67.2573 5.36876 76.9161 5.39463C79.1253 5.40038 80.9423 7.14781 80.9567 9.43557C81.0115 17.8652 81.0115 26.2949 80.9596 34.7217C80.9452 36.9692 79.2263 38.4953 76.9219 38.5097C73.1725 38.5327 69.4232 38.5499 65.6768 38.4953C64.6096 38.481 64.1482 38.6793 64.1886 39.8893C64.2837 42.7604 64.278 45.6374 64.1915 48.5086C64.1568 49.6496 64.5837 49.96 65.5989 49.822C65.7402 49.8019 65.8873 49.8192 66.0315 49.8192C68.4628 49.822 68.4628 49.822 69.08 52.15C69.5617 53.9665 70.6028 54.4033 72.1891 53.4549C74.2368 52.2305 74.2368 52.2305 75.9961 53.9665C76.0999 54.0671 76.2037 54.1676 76.3047 54.2682C78.4735 56.4353 78.4735 56.4353 77.0459 59.1398C76.5556 60.0681 77.1555 61.3729 78.214 61.6948C80.9856 62.5341 80.9856 62.5341 80.9856 65.3507C80.9856 65.5892 80.9856 65.8306 80.9856 66.0692C80.9856 68.4834 80.9856 68.4834 78.6379 69.0898C76.8036 69.5641 76.397 70.6246 77.3776 72.2887C78.6177 74.3896 78.9234 73.9183 76.9248 75.9445C76.7575 76.1141 76.5787 76.2779 76.4085 76.4446C74.3146 78.5254 74.3147 78.5254 71.742 77.1114C70.7239 76.5509 69.4838 77.1085 69.1521 78.2668C68.258 81.388 68.9358 80.9569 65.5672 80.9942C65.3739 80.9971 65.1836 80.9971 64.9903 80.9942C61.9736 80.9626 62.4408 81.3593 61.6794 78.4823C61.267 76.9274 60.0989 76.4446 58.7174 77.2694C58.305 77.5166 57.881 77.7437 57.4946 78.0253C56.8226 78.5139 56.2832 78.3875 55.7353 77.804C54.8816 76.8958 54.0192 75.9876 53.0877 75.1628C52.3061 74.473 52.309 73.8407 52.9031 73.0618C53.2492 72.6077 53.5347 72.099 53.8029 71.5932C54.2153 70.8114 53.6299 69.4635 52.7877 69.2019C52.0032 68.9576 51.2043 68.8886 50.3795 68.8915C40.4322 68.9059 30.4821 68.9001 20.5348 68.9001C18.7092 68.9001 18.689 68.88 18.689 67.0492C18.6861 59.6744 18.6601 52.2966 18.7149 44.9218C18.7236 43.6687 18.4842 43.1571 17.097 43.2375C15.0002 43.3583 14.9944 43.2634 14.9944 45.35C14.9944 52.8686 14.9944 60.3871 14.9944 67.9086C14.9944 68.2908 14.98 68.676 14.9829 69.0582C14.9858 69.5669 14.732 69.9147 14.2417 69.9549C13.6706 70.0038 13.3563 69.6244 13.2928 69.087C13.2438 68.6616 13.264 68.2276 13.264 67.7965C13.264 59.6543 13.2669 51.512 13.2582 43.3698C13.2582 42.5564 13.1573 41.743 13.1861 40.9325C13.238 39.4783 13.0938 38.3401 11.62 37.3572C9.97323 36.2564 10.1405 33.6295 11.7181 32.1867C12.3007 31.6522 12.2488 31.336 11.9056 30.7871C11.3172 29.8415 10.5472 29.0597 9.76269 28.2809C5.99317 24.5446 4.74147 20.0495 6.23543 15.0027C7.73516 9.92704 11.323 6.90064 16.5086 5.83436C23.5285 4.39158 30.8945 9.82645 31.7194 16.8938C32.2673 21.5814 30.7936 25.4384 27.3874 28.6344C27.0817 28.916 26.8077 29.2379 26.254 29.8271ZM62.536 36.7594C67.2919 36.7594 72.0477 36.768 76.8036 36.7536C78.3726 36.7479 79.2349 35.9575 79.2436 34.3912C79.2724 27.7377 79.2465 21.0842 79.2724 14.4278C79.2753 13.6806 79.0532 13.4449 78.2947 13.4478C67.8225 13.4679 57.3504 13.4708 46.8782 13.4478C46.0476 13.4449 45.8226 13.7237 45.8255 14.5198C45.8515 21.0296 45.8255 27.5422 45.8486 34.052C45.8572 36.0208 46.6763 36.7565 48.7038 36.7594C53.3126 36.7623 57.9243 36.7594 62.536 36.7594ZM35.1111 67.1613C39.0969 67.1613 43.0856 67.1613 47.0714 67.1613C49.8373 67.1613 49.8373 67.1613 49.8402 64.3907C49.8402 62.261 49.8344 62.2294 51.9571 61.7897C52.7964 61.6172 53.4078 61.3787 53.8173 60.5021C54.423 59.203 53.3559 58.5564 52.8887 57.7257C52.4099 56.875 52.3234 56.2715 53.1252 55.6305C54.3826 54.6275 55.1815 53.0956 56.762 52.4604C57.2062 52.2823 57.0446 51.8971 57.0446 51.604C57.0591 47.5831 57.0331 43.5623 57.0706 39.5415C57.0793 38.6994 56.7678 38.4896 55.9804 38.5039C53.5808 38.5442 51.1755 38.4781 48.7759 38.5327C47.3627 38.5643 46.0937 38.3229 45.1506 37.1934C44.7353 36.6962 44.1989 36.8226 43.6913 36.8226C38.3586 36.814 33.0287 36.814 27.696 36.8197C25.9483 36.8226 24.4658 38.3056 24.4543 40.0358C24.437 42.246 23.6727 43.1513 21.5125 43.2404C20.6127 43.2778 20.405 43.5393 20.4079 44.3958C20.4396 51.5752 20.4483 58.7547 20.4021 65.9341C20.3964 66.9774 20.7396 67.1958 21.7144 67.1872C26.1761 67.1326 30.6436 67.1585 35.1111 67.1613ZM19.658 27.8756C19.658 28.163 19.658 28.4504 19.658 28.7378C19.658 31.2383 19.658 31.2469 22.1787 31.2153C22.7584 31.2096 23.393 31.4222 23.7477 30.606C24.411 29.0885 25.6108 27.9676 26.7529 26.7921C29.7582 23.7111 30.8339 20.0265 29.7264 15.8591C28.4747 11.1456 24.3966 7.73412 19.8917 7.43522C14.7637 7.09608 10.3568 9.64826 8.35525 14.1203C6.36521 18.5694 7.43522 23.7197 11.0894 27.1399C11.9719 27.9647 12.8833 28.8068 13.3534 29.9018C13.8379 31.0342 14.5618 31.3676 15.6895 31.2297C16.1164 31.1779 16.5547 31.1923 16.9845 31.2268C17.668 31.2785 17.9333 30.994 17.9189 30.3128C17.8901 29.0195 17.8699 27.7262 17.9276 26.4357C17.9708 25.4988 17.792 24.8952 16.8114 24.4267C15.0579 23.5875 14.2994 21.6331 14.7753 19.8225C15.2713 17.9428 16.8605 16.6639 18.7322 16.638C20.6732 16.6093 22.2883 17.8796 22.8132 19.8426C23.292 21.6303 22.5162 23.6163 20.7655 24.4469C19.7821 24.9125 19.5484 25.4988 19.6465 26.4443C19.7013 26.9128 19.658 27.3957 19.658 27.8756ZM79.1801 65.4053C79.6791 63.9165 78.811 63.4509 77.5708 63.2612C77.0113 63.175 76.42 63.1635 76.0191 62.6433C74.9607 61.2724 74.8655 59.4617 75.7307 57.9384C75.9499 57.5533 76.5412 57.1452 76.1922 56.694C75.6125 55.9438 74.9492 55.1908 74.1618 54.6821C73.5013 54.2567 72.9822 55.0759 72.4371 55.3891C70.6518 56.4152 67.9321 55.3374 67.5687 53.2796C67.3265 51.923 66.7929 51.5609 65.4172 51.5149C63.8713 51.4631 63.482 52.1299 63.2282 53.4146C62.8734 55.2023 60.1652 56.3692 58.6482 55.484C56.7678 54.3861 56.811 54.4292 55.1671 56.0042C54.4951 56.648 54.5268 57.0963 54.9854 57.8033C55.4122 58.4615 56.1881 59.1168 55.8622 59.9819C55.2796 61.5253 54.9652 63.3819 52.681 63.4394C50.9563 63.4825 51.7177 64.8362 51.5822 65.6898C51.4437 66.5492 51.585 67.1757 52.6781 67.4257C55.5968 68.0954 56.5976 70.4205 55.0229 72.8692C54.4691 73.7315 54.4576 74.3092 55.2969 74.8811C56.0814 75.4185 56.4246 76.8038 57.9272 75.7749C60.2604 74.1798 62.8129 75.2317 63.3205 77.9937C63.6031 79.5256 64.552 79.2123 65.5124 79.2813C66.4958 79.3503 67.1938 79.2669 67.4505 78.0483C68.0475 75.2202 70.4326 74.3005 72.962 75.795C73.3081 75.9991 73.6917 76.5337 74.0782 76.2262C74.8569 75.5996 75.6558 74.9156 76.1807 74.085C76.5066 73.5734 75.774 73.0014 75.4769 72.487C74.4329 70.6849 75.4423 68.0034 77.4756 67.5781C78.7619 67.305 79.7281 67.0004 79.1801 65.4053ZM62.6744 11.7262C67.7649 11.7262 72.8582 11.7061 77.9486 11.7435C78.8773 11.7492 79.3099 11.6227 79.2868 10.5306C79.232 7.94968 78.4649 7.1047 75.8548 7.1047C66.9688 7.10183 58.0829 7.10183 49.1941 7.1047C46.4485 7.1047 45.8515 7.75999 45.8111 10.476C45.7967 11.502 46.1168 11.7521 47.1118 11.7435C52.2974 11.7032 57.4859 11.7262 62.6744 11.7262ZM25.1638 31.5573C26.2424 32.3621 26.9116 33.0777 26.975 33.9687C27.0558 35.1097 27.673 35.0867 28.5007 35.0809C32.9191 35.0579 37.3405 35.101 41.7589 35.0579C44.4728 35.0321 44.0402 35.6586 44.121 32.6006C44.1412 31.7959 43.9018 31.5343 43.0741 31.5401C37.2626 31.5717 31.4511 31.5573 25.1638 31.5573ZM58.7809 46.0455C58.7809 48.2959 58.7866 50.5492 58.778 52.7996C58.7751 53.8601 59.3202 54.1533 60.2633 53.8687C61.0276 53.6388 61.515 53.2479 61.7457 52.3484C62.2216 50.4888 62.5994 48.6523 62.51 46.7123C62.4206 44.801 62.5187 42.8812 62.4841 40.9642C62.4321 38.1476 63.0551 38.5873 59.9518 38.4925C58.9799 38.4608 58.7318 38.8 58.7578 39.7226C58.8241 41.8293 58.7809 43.9388 58.7809 46.0455ZM18.6226 36.745C20.1599 36.745 21.6971 36.7651 23.2372 36.7393C24.5552 36.7163 25.3195 36.0208 25.3455 34.8941C25.3686 33.7589 24.6158 32.9857 23.318 32.9714C20.2897 32.9397 17.2642 32.9512 14.2359 32.9685C13.0361 32.9771 12.3497 33.6123 12.292 34.8136C12.2344 35.9661 13.0102 36.7077 14.3023 36.7335C15.7385 36.768 17.1806 36.7421 18.6226 36.745ZM18.8072 38.4838C17.9449 38.4838 17.0825 38.504 16.2202 38.4781C15.453 38.4551 14.7868 38.4177 14.882 39.5472C14.9627 40.5043 14.7233 41.5447 16.2317 41.5189C17.8122 41.4901 19.3956 41.4671 20.9761 41.5303C22.2451 41.5821 22.7267 41.1567 22.7758 39.8117C22.8277 38.3746 22.0778 38.4321 21.1087 38.4781C20.3416 38.5154 19.5715 38.4838 18.8072 38.4838ZM18.738 18.3797C17.4921 18.4113 16.3875 19.5494 16.3817 20.8112C16.373 22.1763 17.4892 23.2771 18.8505 23.2484C20.1108 23.2196 21.2126 22.0987 21.2183 20.8341C21.2241 19.5063 20.0532 18.3452 18.738 18.3797Z" fill="#B91E1E"/>
<path d="M36.5129 80.9913C29.4959 80.9913 22.4789 80.9942 15.4618 80.9913C12.0009 80.9885 10.3051 79.3273 10.3137 75.9243C10.3224 71.9926 9.85802 72.372 13.8294 72.372C25.3168 72.3691 36.8013 72.372 48.2887 72.372C48.6723 72.372 49.0616 72.3432 49.4394 72.3921C49.9903 72.4611 50.3277 72.829 50.2845 73.3664C50.2441 73.8349 49.9067 74.1223 49.3846 74.1108C49.0011 74.1051 48.6146 74.1166 48.231 74.1166C36.6975 74.1166 25.1611 74.1367 13.6275 74.0907C12.4047 74.0849 11.9634 74.3149 12.0153 75.6398C12.1278 78.4621 12.8575 79.2669 15.7502 79.2669C29.542 79.2669 43.3367 79.2669 57.1285 79.2669C57.4659 79.2669 57.8005 79.2583 58.1379 79.2698C58.8301 79.2928 59.7905 79.0772 59.7847 80.1262C59.7818 81.1609 58.833 80.9885 58.1321 80.9885C50.9305 80.9942 43.7203 80.9913 36.5129 80.9913Z" fill="#B91E1E"/>
<path d="M6.84106 7.89521C6.75165 8.49876 6.44017 8.96724 5.91238 8.82066C4.99812 8.56487 4.36073 7.83198 4.0954 6.95826C3.95696 6.50415 4.47033 5.9782 4.99524 6.11616C5.91526 6.35758 6.46036 7.09909 6.84106 7.89521Z" fill="#B91E1E"/>
<path d="M19.6207 1.57509C19.5573 2.20164 19.7938 3.07823 18.8103 3.10123C17.7576 3.12422 17.8931 2.22463 17.8816 1.53198C17.8729 0.868071 17.8095 0.0317154 18.718 0.000100574C19.7995 -0.0372624 19.5573 0.905434 19.6207 1.57509Z" fill="#B91E1E"/>
<path d="M35.9101 17.7703C35.3073 17.7301 34.5344 17.9169 34.5315 16.98C34.5286 15.9051 35.3881 16.0631 36.0831 16.0373C36.8388 16.0057 37.6867 16.089 37.6117 17.0346C37.531 18.0463 36.5561 17.6956 35.9101 17.7703Z" fill="#B91E1E"/>
<path d="M33.421 6.91222C33.4123 7.48416 32.0366 8.90107 31.5261 8.8206C31.056 8.74587 30.7763 8.4326 30.7676 7.93539C30.759 7.3462 32.1231 5.97239 32.6711 6.04712C33.1499 6.11035 33.4412 6.39201 33.421 6.91222Z" fill="#B91E1E"/>
<path d="M1.59491 17.8596C0.871004 17.7791 -0.0172998 17.9947 4.79654e-06 17.0002C0.0173094 16.0805 0.845047 16.1179 1.51704 16.1208C2.22653 16.1265 3.13502 16.0461 3.08888 17.0807C3.03985 18.0637 2.11117 17.7331 1.59491 17.8596Z" fill="#B91E1E"/>
<path d="M66.3835 29.2266C65.9047 26.0162 69.0715 26.7549 70.1011 25.1598C69.3253 24.7603 68.4918 24.332 67.6554 23.9038C67.3583 23.7515 67.0497 23.6193 66.7584 23.4554C66.0345 23.0473 66.1874 22.2771 66.3835 21.7971C66.6777 21.07 67.1881 21.7655 67.5256 21.9264C69.034 22.645 70.5077 23.4382 71.9959 24.197C72.4747 24.4413 72.8987 24.6683 72.864 25.3466C72.8352 25.9616 72.4199 26.1341 71.9959 26.3525C70.1761 27.2837 68.3562 28.2149 66.3835 29.2266Z" fill="#B91E1E"/>
<path d="M54.8298 25.2746C55.8594 25.8035 56.618 26.3064 57.4515 26.5967C58.7003 27.0336 59.055 27.8067 58.6224 29.1575C56.6699 28.1487 54.7145 27.1801 52.8052 26.1311C52.0726 25.7287 52.1563 24.7688 52.9523 24.3406C54.7894 23.3461 56.6583 22.4092 58.5359 21.4377C58.9627 23.1651 58.9599 23.1622 57.5207 23.8951C56.716 24.3032 55.9142 24.7199 54.8298 25.2746Z" fill="#B91E1E"/>
<path d="M65.6106 19.9289C64.48 22.8891 63.3466 25.8523 62.2131 28.8184C61.8728 29.7093 61.0797 29.5168 60.5115 29.3271C59.8568 29.1086 60.4452 28.5626 60.5547 28.2608C61.4142 25.8954 62.415 23.5818 63.2225 21.2021C63.6379 19.9806 64.2291 19.4661 65.6106 19.9289Z" fill="#B91E1E"/>
<path d="M50.8928 52.0439C50.8495 54.4523 51.21 54.4667 48.7153 55.0932C47.6049 55.3749 47.3713 56.0934 47.9943 57.0131C49.1854 58.7749 49.1566 58.7864 47.4463 60.4505C47.1377 60.7523 46.8089 61.0397 46.5407 61.3731C45.8687 62.2094 45.1131 62.3014 44.3113 61.6145C43.0192 60.5109 41.8454 60.7523 41.5714 62.7239C41.4185 63.8333 40.8677 64.1954 39.8351 64.1121C39.3593 64.0747 38.8661 64.046 38.396 64.1178C36.7924 64.3564 35.8868 63.8563 35.6647 62.106C35.5177 60.9276 34.6495 60.5798 33.7064 61.3156C32.299 62.4078 31.304 62.0542 30.3436 60.7868C30.0869 60.4476 29.761 60.1459 29.4264 59.8757C28.5785 59.1917 28.466 58.5105 29.0948 57.5448C30.2311 55.7974 30.0177 55.2801 27.9757 54.8576C26.8913 54.6334 26.525 54.0844 26.5856 53.0756C26.6144 52.5985 26.6317 52.1157 26.5827 51.6415C26.4241 50.1585 26.7529 49.1813 28.5295 49.006C29.7293 48.8881 30.1244 47.9023 29.4005 46.9481C28.3939 45.6232 28.59 44.6345 29.8763 43.709C30.1446 43.5165 30.384 43.2607 30.5801 42.9934C31.4684 41.7978 32.3913 41.7346 33.6055 42.6284C34.7014 43.436 35.5032 43.1026 35.7224 41.7403C35.9618 40.2487 36.6771 39.6738 38.1422 39.8923C38.5661 39.9555 39.0132 39.9555 39.4343 39.8923C40.7696 39.6882 41.4474 40.1653 41.7041 41.5535C42.0098 43.1975 42.6904 43.4676 44.0604 42.5192C45.1534 41.7604 45.9552 41.8438 46.7397 42.8756C46.9993 43.2147 47.3079 43.5366 47.6511 43.7895C48.8797 44.692 49.0614 45.6404 48.101 46.9136C47.3828 47.8678 47.7116 48.6783 48.7326 49.0261C50.8928 49.7532 50.8928 49.7532 50.8928 52.0439ZM31.6847 47.6149C31.702 48.7415 30.5714 50.282 29.4783 50.5321C28.6823 50.716 28.2468 51.0322 28.293 51.9691C28.3334 52.8055 28.4891 53.2366 29.4293 53.4205C31.2434 53.774 32.1288 55.9152 31.1828 57.4816C30.7762 58.157 30.5512 58.6398 31.2953 59.3038C31.9616 59.8958 32.4028 60.0999 33.2334 59.5509C34.7101 58.5766 36.8559 59.459 37.2481 61.1748C37.4529 62.0657 37.7817 62.4422 38.7594 62.4106C39.6477 62.3819 39.9765 62.129 40.1611 61.238C40.5418 59.4273 42.6789 58.5852 44.2738 59.6142C45.0698 60.1257 45.4765 59.9217 46.0994 59.3612C46.8003 58.7289 46.7397 58.2576 46.2869 57.5333C45.3034 55.9497 46.16 53.8459 47.9943 53.4521C48.8855 53.2596 49.1421 52.9262 49.1854 52.0467C49.2344 51.0322 48.7326 50.7361 47.9078 50.535C46.2148 50.1268 45.3178 48.023 46.2725 46.5544C46.7801 45.7726 46.7685 45.2955 46.085 44.6144C45.4361 43.9677 44.9919 43.9907 44.2709 44.4448C42.7423 45.4134 40.5706 44.5396 40.1841 42.7663C39.9938 41.8955 39.6852 41.5765 38.7825 41.611C37.972 41.6426 37.5048 41.7403 37.3058 42.6974C36.9078 44.5914 34.788 45.4249 33.1383 44.3873C32.4519 43.9533 32.0365 43.9447 31.4395 44.5483C30.8079 45.1863 30.5426 45.7008 31.1684 46.471C31.4338 46.7872 31.7106 47.1464 31.6847 47.6149Z" fill="#B91E1E"/>
<path d="M9.58387 18.2849C9.82902 13.7409 13.7139 9.81496 17.9939 9.68275C18.6255 9.66263 19.4936 9.43271 19.5456 10.4386C19.5946 11.3698 18.8217 11.3756 18.1208 11.4216C14.7349 11.6486 11.9113 14.2755 11.4268 17.6238C11.3922 17.8595 11.3634 18.098 11.3403 18.3337C11.2768 18.989 11.173 19.6414 10.2789 19.5035C9.48581 19.3799 9.59252 18.7246 9.58387 18.2849Z" fill="#B91E1E"/>
<path d="M65.3453 56.8465C70.1156 56.8378 73.9774 60.646 74.0062 65.3796C74.0351 70.0327 70.0377 74.0334 65.3856 74.0133C60.699 73.9932 56.7593 70.0126 56.8083 65.348C56.8573 60.6603 60.6817 56.8522 65.3453 56.8465ZM65.4404 58.5881C61.6507 58.5795 58.5474 61.6462 58.5445 65.3997C58.5417 69.1274 61.7286 72.309 65.4347 72.2745C69.1061 72.24 72.1921 69.1734 72.2758 65.4773C72.3565 61.7812 69.2013 58.5968 65.4404 58.5881Z" fill="#B91E1E"/>
<path d="M69.0079 9.41274C68.8925 9.91858 68.6618 10.3181 68.0821 10.2893C67.4677 10.2577 67.1217 9.86684 67.1736 9.27191C67.2197 8.72296 67.635 8.49016 68.1715 8.50453C68.7627 8.5189 68.9733 8.88966 69.0079 9.41274Z" fill="#B91E1E"/>
<path d="M73.0977 9.37805C72.9708 9.88389 72.7516 10.2978 72.1777 10.292C71.5519 10.2834 71.2173 9.89251 71.2404 9.30045C71.2606 8.74863 71.6528 8.48134 72.1979 8.49859C72.7632 8.51871 73.0228 8.86647 73.0977 9.37805Z" fill="#B91E1E"/>
<path d="M76.2095 10.3037C75.6586 10.2721 75.3039 9.93871 75.2606 9.43574C75.2087 8.8092 75.6355 8.50454 76.2441 8.4988C76.8209 8.49592 77.1411 8.8638 77.118 9.38401C77.0949 9.88123 76.7863 10.2577 76.2095 10.3037Z" fill="#B91E1E"/>
<path d="M38.6355 57.1998C35.7485 57.1711 33.4182 54.8316 33.4384 51.9805C33.4586 49.1036 35.9187 46.7238 38.8259 46.7669C41.6609 46.8072 44.0259 49.207 44.0086 52.0265C43.9913 54.9609 41.635 57.2286 38.6355 57.1998ZM38.8028 55.4524C40.7236 55.4323 42.2579 53.9004 42.2579 52.0035C42.2579 50.0721 40.5996 48.4598 38.6557 48.5C36.7868 48.5374 35.1861 50.1526 35.1861 52.0064C35.1861 53.932 36.8012 55.4725 38.8028 55.4524Z" fill="#B91E1E"/>
<path d="M65.3654 61.7467C67.3612 61.7295 69.0369 63.3418 69.0975 65.3307C69.1551 67.3109 67.3641 69.1158 65.3654 69.0871C63.4014 69.0612 61.7142 67.354 61.717 65.3968C61.7199 63.4051 63.361 61.764 65.3654 61.7467ZM65.3914 63.4884C64.3473 63.4942 63.4619 64.3794 63.4677 65.4083C63.4735 66.443 64.3675 67.3224 65.4116 67.3138C66.4441 67.3081 67.3583 66.3998 67.3497 65.3853C67.341 64.3765 66.421 63.4827 65.3914 63.4884Z" fill="#B91E1E"/>
</g>
<defs>
<clipPath id="clip0_1_707">
<rect width="81" height="81" fill="white"/>
</clipPath>
</defs>
</svg>
