<svg width="67" height="67" viewBox="0 0 67 67" fill="none" xmlns="http://www.w3.org/2000/svg">
<path d="M33.2778 23.7761C25.7875 23.7761 18.2972 23.7761 10.8093 23.7761C8.9903 23.7761 8.78512 23.9874 8.78512 25.832C8.78281 30.8835 8.78511 35.9349 8.78281 40.9887C8.78281 41.4091 8.78973 41.8363 8.71134 42.2452C8.56841 43.0033 8.08196 43.4696 7.30504 43.5523C6.48431 43.6396 5.91718 43.2744 5.57598 42.5117C5.37772 42.0683 5.39846 41.6181 5.39846 41.161C5.39616 35.9556 5.44457 30.7502 5.37771 25.5472C5.34083 22.7056 7.27738 20.2453 10.445 20.5095C11.5516 20.6014 12.672 20.4888 13.7856 20.5371C14.4541 20.5669 14.6547 20.3234 14.6224 19.6825C14.5786 18.766 14.6155 17.8471 14.6109 16.9282C14.6063 16.0048 15.0397 15.4075 15.9342 15.164C16.6374 14.9734 17.3428 14.8011 18.0506 14.6265C19.3324 14.3095 19.7404 13.3814 19.058 12.265C17.2137 9.23966 16.9071 9.51762 19.7773 6.77711C20.5266 6.06269 21.2482 5.32071 21.9836 4.59251C22.6706 3.90796 23.4268 3.7954 24.266 4.31226C24.8538 4.67291 25.444 5.02897 26.0388 5.38043C27.18 6.0581 28.1483 5.6538 28.4872 4.3582C29.3863 0.910165 29.0543 0.969891 32.8329 1.00894C33.9072 1.02043 34.9838 1.01354 36.0581 1.01354C37.0472 1.01583 37.6235 1.53959 37.8702 2.45845C38.0385 3.08328 38.1837 3.715 38.3451 4.34212C38.6909 5.69515 39.6477 6.07418 40.8695 5.35517C43.8389 3.61162 43.5208 3.25097 46.2227 5.9777C46.9512 6.71279 47.6705 7.45707 48.429 8.16C49.2728 8.94103 49.3581 9.7726 48.7379 10.7167C48.3806 11.2612 48.0463 11.8194 47.712 12.3776C47.1218 13.3677 47.5068 14.3485 48.6088 14.6219C52.5003 15.5798 52.2352 15.2881 52.1615 19.2346C52.1407 20.2775 52.4104 20.6473 53.4801 20.5509C54.5476 20.4544 55.6288 20.521 56.7054 20.5325C59.4143 20.5578 61.3485 22.3128 61.3785 24.9867C61.4407 30.5343 61.4085 36.0843 61.39 41.6342C61.3854 42.8149 60.6892 43.5638 59.714 43.5799C58.6858 43.596 58.0241 42.8517 58.0195 41.563C58.0034 36.3209 58.0126 31.0764 58.0126 25.8343C58.0126 23.992 57.8074 23.7853 55.9792 23.7853C48.4105 23.7761 40.8442 23.7761 33.2778 23.7761ZM44.8187 20.5233C45.6256 20.5233 46.4325 20.5233 47.2394 20.5233C48.95 20.5233 48.9247 20.5233 48.8693 18.8464C48.8509 18.279 48.6711 18.0286 48.1062 17.9436C47.5437 17.8586 46.995 17.6725 46.4417 17.5278C45.0723 17.1695 43.3179 13.4618 43.9219 12.1915C44.0187 11.9848 44.1571 11.7964 44.2769 11.6011C44.4752 11.2749 44.6389 10.9166 44.8833 10.6294C45.3997 10.0207 45.2637 9.55667 44.6735 9.10643C44.4014 8.89968 44.1478 8.65159 43.9334 8.38282C43.5277 7.87285 43.0966 7.7557 42.5755 8.19905C41.0586 9.49694 39.4655 9.68301 37.7688 8.54132C37.6143 8.43795 37.416 8.37823 37.2316 8.34607C36.0789 8.13702 35.5625 7.36977 35.3665 6.297C35.2858 5.84906 35.1798 5.40341 35.0668 4.96005C34.9815 4.62237 34.8686 4.36279 34.4167 4.29158C32.3787 3.96998 31.9015 4.26402 31.4404 6.24876C31.4058 6.39808 31.4035 6.55428 31.3597 6.699C30.9609 8.06352 27.2538 9.7703 25.9466 9.18453C25.7391 9.09264 25.5547 8.94562 25.3587 8.82847C24.9299 8.57348 24.4988 8.32309 24.07 8.06811C23.8372 7.93028 23.5766 7.74191 23.3346 7.96474C22.7444 8.50916 22.0366 9.00765 21.6585 9.68072C21.3404 10.2458 22.0897 10.7305 22.3571 11.252C22.7375 11.9894 23.3738 12.6372 22.9703 13.5767C22.0943 15.612 21.541 17.962 18.597 17.9413C18.5232 17.9413 18.4425 17.9689 18.3779 18.0056C17.4627 18.5248 18.0621 19.3701 17.9699 20.057C17.8892 20.6542 18.4517 20.5164 18.8021 20.5187C20.7617 20.5302 22.7213 20.4728 24.6786 20.5463C25.61 20.5807 25.9074 20.3671 25.8982 19.377C25.8659 16.3218 27.8624 13.5537 30.7188 12.4832C35.6293 10.6432 40.8742 14.1969 40.888 19.4367C40.8903 20.397 41.1946 20.5991 42.0499 20.5394C42.9721 20.4751 43.8989 20.5233 44.8187 20.5233ZM33.3954 20.5233C34.5089 20.5233 35.6224 20.4911 36.7336 20.5348C37.3907 20.5601 37.5982 20.2959 37.6327 19.6756C37.7526 17.4336 35.6893 15.2628 33.3977 15.2628C31.1061 15.2628 29.0428 17.4313 29.1627 19.6756C29.1949 20.2936 29.4024 20.5601 30.0595 20.5348C31.1684 20.4911 32.2842 20.5233 33.3954 20.5233Z" fill="#B91E1E" stroke="white"/>
<path d="M33.3491 65.791C24.2819 65.791 15.2147 65.7933 6.14754 65.791C2.73092 65.791 1.00878 64.0567 1.00417 60.6224C1.00186 58.2862 0.994946 55.9523 1.00647 53.6161C1.01339 52.0724 1.54133 51.5486 3.07212 51.5486C9.79471 51.5463 16.5196 51.5624 23.2422 51.5303C24.2911 51.5257 24.879 51.9552 25.2433 52.8833C25.6029 53.8044 25.7966 55.0702 26.4928 55.502C27.2467 55.9707 28.4939 55.6697 29.5267 55.6743C32.8304 55.6835 36.1363 55.6583 39.44 55.6927C40.1593 55.6996 40.5005 55.4906 40.7771 54.7968C42.2941 50.9973 41.6693 51.5647 45.6047 51.5509C51.6356 51.528 57.6689 51.544 63.6999 51.5463C65.2445 51.5463 65.7793 52.0632 65.7863 53.5931C65.7978 56.0809 65.8047 58.571 65.7863 61.0589C65.7632 63.9487 63.9235 65.7818 61.0117 65.7841C51.7901 65.7979 42.5708 65.7887 33.3491 65.791ZM33.3975 62.4923C42.4624 62.4923 51.525 62.4946 60.5899 62.49C62.1345 62.49 62.4918 62.1293 62.501 60.6017C62.5103 59.0328 62.4434 57.4615 62.5264 55.8949C62.5771 54.9323 62.1967 54.7692 61.3368 54.7761C56.5738 54.8106 51.8132 54.7922 47.0502 54.7922C44.369 54.7922 44.3252 54.7761 43.373 57.2823C42.912 58.4952 42.2042 58.9937 40.8832 58.9753C36.4683 58.9156 32.0512 58.9593 27.634 58.9501C23.5834 58.9409 24.2981 59.313 22.7788 55.6996C22.765 55.6651 22.7465 55.6284 22.7373 55.5916C22.5967 54.9783 22.2439 54.7715 21.5892 54.7761C16.1346 54.8037 10.6823 54.8083 5.22768 54.7738C4.42771 54.7693 4.26172 55.0679 4.28246 55.78C4.32396 57.3099 4.29399 58.8421 4.2963 60.372C4.2986 62.2006 4.58908 62.49 6.44033 62.49C15.4222 62.4923 24.4087 62.4923 33.3975 62.4923Z" fill="#B91E1E" stroke="white"/>
<path d="M27.5166 44.9304C24.1853 43.2191 21.0545 41.6271 17.9399 40.0007C17.1007 39.562 17.1469 37.908 18.0022 37.4601C20.9185 35.9371 23.8556 34.4531 26.7673 32.9255C27.4336 32.5763 27.4567 32.8175 27.5373 33.4217C27.7564 35.0481 27.3529 36.1369 25.6262 36.7181C24.266 37.1775 23.028 37.9907 21.5387 38.7465C23.2862 39.6217 24.8492 40.451 26.4561 41.1884C27.2492 41.5513 27.6711 41.9855 27.5327 42.9089C27.4451 43.5062 27.5166 44.1241 27.5166 44.9304Z" fill="#B91E1E" stroke="white"/>
<path d="M39.2781 44.9351C39.2781 43.8922 39.2919 43.0285 39.2735 42.1648C39.262 41.6502 39.67 41.5721 39.9974 41.4067C41.7057 40.5476 43.4163 39.693 45.2998 38.7489C43.6538 37.9219 42.1645 37.0812 40.5968 36.4196C39.5594 35.9808 39.0752 35.4065 39.262 34.274C39.3403 33.7939 39.2758 33.2908 39.2758 32.8176C39.7323 32.6339 39.9997 32.9279 40.2856 33.0749C43.0521 34.4762 45.7955 35.9211 48.5781 37.2902C49.2513 37.621 49.4127 38.0437 49.4058 38.7259C49.3989 39.3852 49.309 39.8332 48.6173 40.1754C45.5396 41.6916 42.4988 43.2835 39.2781 44.9351Z" fill="#B91E1E" stroke="white"/>
<path d="M29.3218 45.1052C31.1869 40.2582 32.9943 35.6041 34.7579 30.934C35.0576 30.1369 35.6524 30.3666 36.1781 30.3574C38.0777 30.3298 38.08 30.3436 37.393 32.117C35.8899 35.9946 34.3291 39.8493 32.9205 43.7613C32.5194 44.8777 31.9868 45.2843 30.8664 45.1166C30.4168 45.05 29.9512 45.1052 29.3218 45.1052Z" fill="#B91E1E" stroke="white"/>
<path d="M8.88169 47.3104C8.89552 48.3119 8.19237 49.0539 7.19413 49.093C6.13364 49.1343 5.37285 48.4153 5.35902 47.3655C5.34749 46.3203 6.09905 45.5645 7.1388 45.5783C8.13012 45.5898 8.86786 46.3249 8.88169 47.3104Z" fill="#B91E1E" stroke="white"/>
<path d="M61.4543 47.2783C61.4774 48.3487 60.7604 49.0976 59.7091 49.0976C58.7178 49.0976 57.9639 48.3717 57.9363 47.3954C57.9086 46.3571 58.6648 45.5807 59.7068 45.5784C60.7028 45.5761 61.4313 46.2836 61.4543 47.2783Z" fill="#B91E1E" stroke="white"/>
</svg>
