<svg width="72" height="69" viewBox="0 0 72 69" fill="none" xmlns="http://www.w3.org/2000/svg">
<g clip-path="url(#clip0_1_744)">
<path d="M0.0136527 26.4192C0.0136527 19.3793 0.010927 12.3422 0.0163784 5.30225C0.0191042 2.67768 1.39287 1.23388 3.95232 1.23108C14.8062 1.21989 25.6573 1.22269 36.5111 1.22829C38.092 1.22829 38.4518 1.62561 38.4518 3.33522C38.4545 13.4026 38.4545 23.4728 38.4545 33.5402C38.4545 35.7087 38.4545 35.7087 40.6351 35.7087C50.3523 35.7087 60.0695 35.7087 69.7867 35.7087C71.7765 35.7087 71.9809 35.9214 71.9809 37.9332C71.9837 41.1033 71.9837 44.2735 71.9809 47.4409C71.9782 50.4349 70.5963 51.8451 67.6307 51.8451C60.0941 51.8507 52.5547 51.8395 45.0181 51.8507C42.9765 51.8535 43.1918 51.5653 43.1782 53.6834C43.1673 55.7344 43.1646 57.7853 43.1782 59.8363C43.1918 61.974 42.9683 61.6215 45.0208 61.6578C45.566 61.6662 46.1111 61.655 46.6562 61.6634C47.5476 61.6774 47.9891 62.1531 47.9891 63.0597C47.9918 64.551 47.9864 66.0424 47.9918 67.5338C47.9946 68.4991 47.5803 68.9971 46.5963 68.9943C39.5121 68.9859 32.428 68.9859 25.3465 68.9915C24.4416 68.9915 24.0082 68.5327 24.0055 67.6233C24 66.0844 23.9973 64.5482 24.0082 63.0093C24.0137 62.1755 24.4252 61.711 25.2511 61.6634C25.3874 61.655 25.5237 61.6606 25.66 61.655C26.6522 61.6215 27.9905 61.9796 28.5547 61.4564C29.2961 60.7653 28.7782 59.3467 28.8109 58.2442C28.86 56.5682 28.7591 54.8838 28.8464 53.2105C28.9036 52.0997 28.5465 51.8087 27.478 51.8143C19.7588 51.8591 12.0395 51.8339 4.3203 51.8451C3.20002 51.8479 2.14789 51.6604 1.26749 50.8965C0.338014 50.0907 -0.00270163 49.0582 0.00274982 47.8047C0.0300071 40.6836 0.0136527 33.5514 0.0136527 26.4192ZM35.9414 49.352C46.4736 49.352 57.0085 49.3548 67.5407 49.3492C69.3479 49.3492 69.5659 49.1198 69.5687 47.2479C69.5741 44.8248 69.4924 42.396 69.5987 39.9785C69.6586 38.5851 69.3533 38.1122 67.8651 38.1234C57.968 38.2018 48.0709 38.1654 38.1738 38.1626C36.105 38.1626 35.9932 38.0535 35.9932 35.9745C35.9905 28.1456 35.9687 20.3138 36.0177 12.4849C36.0259 11.346 35.7697 11.0047 34.6167 11.0103C24.3571 11.0578 14.0947 11.0578 3.83512 11.0131C2.7203 11.0075 2.39048 11.2873 2.39594 12.4625C2.43955 24.0212 2.42047 35.58 2.42319 47.1359C2.42319 49.1729 2.59764 49.3492 4.61468 49.3492C15.0569 49.3548 25.4992 49.352 35.9414 49.352ZM19.1455 8.60955C23.6348 8.60955 28.124 8.60955 32.6133 8.60955C36.0096 8.60955 35.9523 8.60955 36.0259 5.15955C36.0504 3.97038 35.7043 3.71855 34.5949 3.72415C25.0276 3.77172 15.4576 3.75213 5.89031 3.74933C2.05249 3.74933 2.4668 3.40517 2.40411 7.384C2.38776 8.37731 2.70394 8.63473 3.63887 8.62634C8.80684 8.58717 13.9748 8.60955 19.1455 8.60955ZM35.9441 61.6634C37.1244 61.6634 38.3101 61.5991 39.4849 61.683C40.5125 61.7558 40.9322 61.4844 40.875 60.326C40.7769 58.3729 40.8477 56.4115 40.8477 54.4529C40.8477 51.7779 40.8477 51.8283 38.2556 51.8255C37.3043 51.8255 37.0917 52.192 37.1435 53.051C37.1925 53.8876 37.1707 54.7299 37.1298 55.5665C37.0944 56.2828 36.6964 56.6577 35.9769 56.6521C35.2518 56.6465 34.9002 56.2436 34.8484 55.5357C34.8239 55.2111 34.8348 54.8838 34.8321 54.5564C34.8211 51.6856 34.8211 51.7108 32.0654 51.8311C31.3622 51.8619 31.1196 52.0773 31.1305 52.8048C31.1632 55.4154 31.166 58.026 31.1278 60.6366C31.1169 61.4172 31.3377 61.7138 32.1254 61.6774C33.3983 61.6215 34.674 61.6634 35.9441 61.6634ZM35.8596 66.6104C38.7217 66.6104 41.5837 66.574 44.443 66.6328C45.3806 66.6524 45.5959 66.2914 45.5605 65.4156C45.5305 64.649 45.555 64.1453 44.5138 64.1537C38.8361 64.2097 33.1585 64.2097 27.4808 64.1537C26.4395 64.1425 26.4614 64.6434 26.4314 65.4128C26.3987 66.2858 26.6085 66.6496 27.5489 66.63C30.3183 66.5712 33.0903 66.6104 35.8596 66.6104Z" fill="#B91E1E"/>
<path d="M57.8072 12.3897C59.012 12.3897 59.9033 12.3477 60.7919 12.4037C61.5496 12.4513 61.615 11.7825 61.9258 11.3768C62.9261 10.0813 64.4634 9.55529 65.9326 10.0477C67.3527 10.5234 68.3476 11.8525 68.4266 13.3886C68.5084 14.9583 67.598 16.3881 66.1261 16.9981C64.6106 17.6277 62.8825 17.1716 61.934 15.6886C61.4515 14.9359 60.92 14.6785 60.1486 14.8128C56.259 15.4928 53.1571 14.242 50.9029 10.8816C50.3251 10.0198 49.5128 9.86028 48.537 9.88826C46.3128 9.95261 44.0859 9.84349 41.8644 9.93582C40.7878 9.98059 40.8314 9.3986 40.8368 8.65152C40.8423 7.92123 40.7578 7.31964 41.8535 7.35602C44.5302 7.44276 47.2096 7.40079 49.889 7.37281C50.5786 7.36721 51.1019 7.59106 51.5735 8.0975C52.4212 9.00687 53.3506 9.83789 54.1575 10.7808C54.8416 11.5811 55.2914 11.6874 56.0082 10.7668C57.5074 8.83619 59.1919 7.05943 60.661 5.10638C61.4815 4.01794 62.3891 3.55346 63.6811 3.74373C64.4989 3.86405 65.0358 3.61222 65.5428 2.80638C66.7012 0.959669 69.1926 0.719037 70.7898 2.14604C72.3626 3.55067 72.4089 6.14166 70.8907 7.60784C69.3397 9.1048 66.9466 8.92293 65.5946 7.20492C64.4798 5.78911 63.2968 5.79191 62.1138 7.21052C60.7455 8.85578 59.3745 10.5038 57.8072 12.3897ZM68.5002 3.74933C67.7288 3.76891 67.3036 4.14665 67.2873 4.92451C67.2709 5.71076 67.7425 6.15286 68.4375 6.15006C69.0481 6.14726 69.5278 5.77232 69.5578 5.03363C69.5878 4.25857 69.2225 3.84166 68.5002 3.74933ZM64.8914 12.3981C63.981 12.4093 63.6075 12.9549 63.6375 13.6349C63.6702 14.3372 64.1581 14.8072 64.9132 14.7401C65.5837 14.6813 65.9762 14.2784 65.9626 13.5621C65.9489 12.7842 65.5346 12.4009 64.8914 12.3981Z" fill="#B91E1E"/>
<path d="M49.6246 29.5391C52.0777 29.5391 54.5309 29.4887 56.9813 29.5643C57.9571 29.595 58.614 29.2845 59.1346 28.473C59.4835 27.9302 59.9033 27.4321 60.3094 26.9341C61.059 26.0163 61.6477 25.2245 61.337 23.7611C60.8818 21.629 62.7135 19.7151 64.8041 19.6983C66.8157 19.6843 68.5329 21.531 68.4293 23.5988C68.3203 25.7617 66.4423 27.4126 64.338 27.06C63.5748 26.9313 63.106 27.0908 62.7707 27.7399C60.9009 31.383 58.0252 32.491 54.0593 32.0965C50.0988 31.7048 46.0757 31.9846 42.0798 32.0293C41.183 32.0405 40.8123 31.8754 40.8096 30.8346C40.8096 29.7713 41.1258 29.4859 42.1315 29.5139C44.6283 29.5866 47.1278 29.5391 49.6246 29.5391ZM64.8041 24.7096C65.4501 24.5362 65.9735 24.2368 65.968 23.4281C65.9626 22.7062 65.5755 22.2977 64.9022 22.2445C64.1363 22.183 63.6784 22.681 63.6293 23.3862C63.5803 24.1248 64.1227 24.5166 64.8041 24.7096Z" fill="#B91E1E"/>
<path d="M45.9258 13.5368C46.6072 13.5368 47.2995 13.6207 47.9646 13.52C50.0362 13.2122 51.6825 13.8446 52.9091 15.6269C53.2607 16.139 53.6968 16.3041 54.4191 16.1558C56.646 15.6969 58.5241 17.1351 58.8484 19.3735C59.0828 21.002 57.6791 22.9942 56.0627 23.33C53.923 23.7749 52.0886 22.5129 51.6253 20.2689C51.5789 20.0423 51.5489 19.8072 51.5626 19.5778C51.7043 17.1099 50.7258 16.0578 48.2726 16.0578C46.1411 16.0578 44.0041 15.9935 41.8753 16.0858C40.8178 16.1306 40.8205 15.5766 40.8396 14.8127C40.8559 14.0964 40.7278 13.4221 41.8426 13.5088C43.1973 13.6179 44.5656 13.5396 45.9258 13.5368ZM56.4307 19.6393C56.2372 19.0126 55.9292 18.5089 55.1333 18.5677C54.351 18.6264 53.9857 19.1189 54.0375 19.8408C54.0839 20.5123 54.5554 20.9376 55.2205 20.9236C55.9537 20.9096 56.3353 20.4256 56.4307 19.6393Z" fill="#B91E1E"/>
<path d="M45.7131 4.87692C44.3993 4.87692 43.0801 4.81256 41.769 4.8965C40.7441 4.96086 40.8504 4.3285 40.8395 3.66536C40.8286 2.97144 40.7986 2.39784 41.7853 2.41743C44.3693 2.47059 46.9533 2.41743 49.5373 2.44541C50.2242 2.4538 50.6576 2.28312 51.0719 1.62558C51.9659 0.209764 53.6477 -0.310674 55.1414 0.181783C56.6269 0.671443 57.5782 2.10405 57.5536 3.81925C57.5318 5.43653 56.5615 6.75721 55.0487 7.23847C53.5387 7.71694 51.8923 7.15733 51.0283 5.70514C50.6358 5.0476 50.2269 4.83495 49.5209 4.86293C48.2562 4.91329 46.9833 4.87692 45.7131 4.87692ZM53.972 2.47899C53.2906 2.61609 52.8245 2.95745 52.879 3.78288C52.9281 4.52436 53.3288 4.86573 54.0266 4.86013C54.8307 4.85733 55.1795 4.36487 55.1523 3.6066C55.1278 2.8875 54.6589 2.56293 53.972 2.47899Z" fill="#B91E1E"/>
<path d="M40.875 24.5723C40.6297 23.4979 41.1885 23.288 42.0743 23.358C42.704 23.4083 43.3445 23.3272 43.9742 23.3776C45.059 23.4643 45.8549 23.2824 46.5908 22.2164C47.7111 20.5935 50.2433 20.5851 51.6634 21.9589C53.1244 23.372 53.1898 25.7335 51.8079 27.1941C50.3714 28.7134 47.9701 28.9205 46.7707 27.2473C45.7431 25.8175 44.5874 25.7559 43.1864 25.8482C42.8266 25.8706 42.4559 25.8091 42.1016 25.8594C41.104 26.0049 40.6297 25.6524 40.875 24.5723ZM50.4314 24.6311C50.2651 23.912 49.8617 23.3859 49.1394 23.4447C48.4498 23.5035 47.9619 23.9959 48.0328 24.7626C48.0955 25.4257 48.5043 25.851 49.213 25.8426C49.9953 25.8314 50.306 25.3222 50.4314 24.6311Z" fill="#B91E1E"/>
<path d="M20.4576 41.9923C15.7538 41.9923 11.0475 41.9898 6.34363 41.9948C5.62881 41.9948 4.96148 42.1348 5.00147 40.9566C5.03396 39.9973 5.22391 39.5113 6.24366 39.6945C6.98597 39.8268 7.2684 39.5469 7.23091 38.7352C7.04846 34.7325 7.50585 35.1422 10.6726 35.1931C11.4799 35.2058 11.7398 34.9794 11.7273 34.1346C11.6723 30.3686 11.4324 30.7731 14.9815 30.8113C15.8588 30.8215 16.1537 30.5543 16.0962 29.6688C16.0312 28.656 16.0887 27.6357 16.0837 26.6178C16.0762 25.6331 16.4761 25.147 17.5134 25.1674C18.4556 25.1852 19.6778 25.6 20.2702 24.974C20.855 24.3557 20.4326 23.119 20.4501 22.1546C20.4726 21.1037 20.96 20.6456 21.9847 20.5947C22.9595 20.5464 24.2592 21.0935 24.819 20.325C25.2814 19.6889 24.939 18.4471 24.9515 17.4725C24.9565 17.1341 24.974 16.7931 24.949 16.4547C24.874 15.3961 25.4264 15.0068 26.3812 15.0093C27.5459 15.0144 28.7131 15.0373 29.8778 15.0017C31.0525 14.9661 31.4824 15.4877 31.4774 16.6862C31.4424 23.8925 31.4824 31.0989 31.4374 38.3026C31.4299 39.3612 31.6024 39.893 32.7696 39.7072C33.3794 39.6105 34.0268 39.7658 34.6391 39.6742C35.7813 39.5011 36.0338 39.9744 35.9963 41.0661C35.9663 41.9261 35.6289 41.9999 34.9465 41.9974C30.1177 41.9821 25.2889 41.9923 20.4576 41.9923ZM27.136 28.3761C27.136 31.8088 27.1635 35.244 27.116 38.6767C27.1035 39.5495 27.4209 39.72 28.1957 39.7225C28.9755 39.7251 29.2729 39.5469 29.2704 38.6792C29.2354 31.8953 29.2354 25.114 29.2704 18.33C29.2754 17.4623 28.978 17.2817 28.1982 17.2842C27.4234 17.2868 27.1035 17.4547 27.116 18.33C27.1635 21.6787 27.136 25.0274 27.136 28.3761ZM22.7121 31.2464C22.7121 33.6994 22.7521 36.155 22.6896 38.608C22.6671 39.5139 22.942 39.753 23.8043 39.7276C24.5841 39.7047 24.984 39.6385 24.9715 38.6589C24.9215 33.7529 24.919 28.8443 24.974 23.9383C24.9865 22.9281 24.5466 22.9205 23.7918 22.8849C22.9095 22.8442 22.6696 23.1266 22.6921 24.0172C22.7521 26.4219 22.7121 28.8342 22.7121 31.2464ZM18.2382 33.4933C18.2382 35.272 18.2882 37.0532 18.2182 38.8294C18.1807 39.781 18.7106 39.7301 19.3154 39.6971C19.8453 39.6665 20.4876 39.9337 20.4751 38.9108C20.4301 35.3534 20.4301 31.7961 20.4751 28.2387C20.4876 27.2565 19.9028 27.4244 19.3379 27.4092C18.7281 27.3914 18.1907 27.3507 18.2232 28.2845C18.2807 30.0199 18.2382 31.7579 18.2382 33.4933ZM13.9417 36.3636C13.9417 37.1677 13.9992 37.9795 13.9267 38.7759C13.8468 39.6487 14.2792 39.72 14.9615 39.7149C15.6638 39.7098 16.1437 39.6767 16.0987 38.7276C16.0287 37.2059 16.0362 35.6766 16.0962 34.1549C16.1312 33.2694 15.8463 33.0124 14.974 32.992C14.0067 32.9691 13.8718 33.4017 13.9292 34.2033C13.9817 34.9208 13.9417 35.6435 13.9417 36.3636ZM11.6698 38.4884C12.0122 37.4451 11.3824 37.4146 10.5526 37.3866C9.6953 37.356 9.41787 37.5927 9.43287 38.4986C9.44786 39.3663 9.55284 39.7759 10.5626 39.7352C11.4499 39.7022 11.9222 39.552 11.6698 38.4884Z" fill="#B91E1E"/>
<path d="M40.8723 41.9623C40.6924 41.0501 40.9405 40.664 41.9571 40.6388C43.0338 40.6136 43.2001 41.0249 43.2055 41.9958C43.211 42.9668 42.9248 43.2382 41.9871 43.2382C41.0168 43.2382 40.6624 42.9164 40.8723 41.9623Z" fill="#B91E1E"/>
<path d="M4.75372 4.87695C5.47059 5.07561 6.01573 5.46454 5.96395 6.21722C5.91488 6.93352 5.45151 7.41759 4.68286 7.36162C3.99052 7.31126 3.59802 6.85518 3.58984 6.16965C3.57621 5.3834 4.14316 5.07282 4.75372 4.87695Z" fill="#B91E1E"/>
<path d="M9.5564 6.10805C9.50733 6.87472 9.13936 7.34479 8.37616 7.36997C7.67019 7.39236 7.23953 6.91109 7.17139 6.27873C7.08962 5.53165 7.60478 5.00562 8.28621 4.94126C8.9949 4.87411 9.44464 5.35817 9.5564 6.10805Z" fill="#B91E1E"/>
<path d="M11.9551 4.87964C12.6256 5.0783 13.1435 5.3693 13.1135 6.19472C13.0836 7.00336 12.6365 7.3811 11.906 7.36151C11.2164 7.34472 10.8267 6.87745 10.8049 6.19472C10.783 5.41686 11.3091 5.0727 11.9551 4.87964Z" fill="#B91E1E"/>
</g>
<defs>
<clipPath id="clip0_1_744">
<rect width="72" height="69" fill="white"/>
</clipPath>
</defs>
</svg>
