<svg width="109" height="75" viewBox="0 0 109 75" fill="none" xmlns="http://www.w3.org/2000/svg">
<g clip-path="url(#clip0_1_576)">
<path d="M108.105 3.77759V15.6129L86.2959 46.7575V34.9222L108.105 3.77759Z" fill="url(#paint0_linear_1_576)"/>
<path d="M79.2712 30.9014V42.7366L86.2959 46.7574V34.9221L79.2712 30.9014Z" fill="url(#paint1_linear_1_576)"/>
<path d="M47.3499 12.6135V24.4488L54.3745 28.4696V16.6343L47.3499 12.6135Z" fill="url(#paint2_linear_1_576)"/>
<path d="M96.9145 6.45264L86.5246 20.8495L54.3745 28.4695V16.6342L96.9145 6.45264Z" fill="url(#paint3_linear_1_576)"/>
<path d="M108.105 3.77756L86.2958 34.9222L79.2712 30.9014L96.9145 6.45266L54.3582 16.6342L47.3335 12.6135L101.505 0L108.105 3.77756Z" fill="#DE3429"/>
<path d="M29.249 11.1543V22.9896L72.0341 66.618V54.7665L29.249 11.1543Z" fill="url(#paint4_linear_1_576)"/>
<path d="M77.7192 51.5077V63.3592L72.0342 66.6179V54.7664L77.7192 51.5077Z" fill="url(#paint5_linear_1_576)"/>
<path d="M72.0341 54.7665L29.249 11.1543L34.9014 7.91174L77.7355 51.5077L72.0341 54.7665Z" fill="#DE3429"/>
<path d="M0.10498 59.3872V71.2225L6.68855 75V63.1648L0.10498 59.3872Z" fill="url(#paint6_linear_1_576)"/>
<path d="M61.056 50.6648V62.5001L6.68848 75.0001V63.1648L61.056 50.6648Z" fill="url(#paint7_linear_1_576)"/>
<path d="M29.1348 32.3768V44.2121L21.7671 54.2964L11.3281 56.777L29.1348 32.3768Z" fill="url(#paint8_linear_1_576)"/>
<path d="M6.68855 63.1648L0.10498 59.3872L22.1101 28.3561L29.1348 32.3768L11.3281 56.777L54.0315 46.644L61.0561 50.6648L6.68855 63.1648Z" fill="#DE3429"/>
</g>
<defs>
<linearGradient id="paint0_linear_1_576" x1="110.605" y1="13.5" x2="86.105" y2="47" gradientUnits="userSpaceOnUse">
<stop stop-color="#F04E3E"/>
<stop offset="0.7143" stop-color="#A70E13"/>
<stop offset="1" stop-color="#710000"/>
</linearGradient>
<linearGradient id="paint1_linear_1_576" x1="51.1052" y1="31.9999" x2="86.1052" y2="45.9999" gradientUnits="userSpaceOnUse">
<stop stop-color="#F04E3E"/>
<stop offset="0.7143" stop-color="#A70E13"/>
<stop offset="1" stop-color="#710000"/>
</linearGradient>
<linearGradient id="paint2_linear_1_576" x1="23.6052" y1="11" x2="54.1052" y2="28" gradientUnits="userSpaceOnUse">
<stop stop-color="#F04E3E"/>
<stop offset="0.7143" stop-color="#A70E13"/>
<stop offset="1" stop-color="#710000"/>
</linearGradient>
<linearGradient id="paint3_linear_1_576" x1="39.605" y1="25.5" x2="101.105" y2="12" gradientUnits="userSpaceOnUse">
<stop stop-color="#F04E3E"/>
<stop offset="0.7143" stop-color="#A70E13"/>
<stop offset="1" stop-color="#710000"/>
</linearGradient>
<linearGradient id="paint4_linear_1_576" x1="15.605" y1="23.9999" x2="34.605" y2="2.99994" gradientUnits="userSpaceOnUse">
<stop stop-color="#F04E3E"/>
<stop offset="0.7143" stop-color="#A70E13"/>
<stop offset="1" stop-color="#710000"/>
</linearGradient>
<linearGradient id="paint5_linear_1_576" x1="67.105" y1="55.4999" x2="86.105" y2="55.4999" gradientUnits="userSpaceOnUse">
<stop stop-color="#F04E3E"/>
<stop offset="0.7143" stop-color="#A70E13"/>
<stop offset="1" stop-color="#710000"/>
</linearGradient>
<linearGradient id="paint6_linear_1_576" x1="-27.395" y1="49.5001" x2="6.69378" y2="67.1892" gradientUnits="userSpaceOnUse">
<stop stop-color="#F04E3E"/>
<stop offset="0.7143" stop-color="#A70E13"/>
<stop offset="1" stop-color="#710000"/>
</linearGradient>
<linearGradient id="paint7_linear_1_576" x1="-11.895" y1="73.5001" x2="62.605" y2="58.5001" gradientUnits="userSpaceOnUse">
<stop stop-color="#F04E3E"/>
<stop offset="0.7143" stop-color="#A70E13"/>
<stop offset="1" stop-color="#710000"/>
</linearGradient>
<linearGradient id="paint8_linear_1_576" x1="11.105" y1="62.0001" x2="34.105" y2="35.0001" gradientUnits="userSpaceOnUse">
<stop stop-color="#F04E3E"/>
<stop offset="0.7143" stop-color="#A70E13"/>
<stop offset="1" stop-color="#710000"/>
</linearGradient>
<clipPath id="clip0_1_576">
<rect width="108" height="75" fill="white" transform="translate(0.10498)"/>
</clipPath>
</defs>
</svg>
