<svg width="247" height="50" viewBox="0 0 247 50" fill="none" xmlns="http://www.w3.org/2000/svg">
<rect width="247" height="50" rx="25" fill="#B91E1E"/>
<path d="M60.9244 18.04C62.391 18.04 63.6777 18.3267 64.7844 18.9C65.9044 19.4733 66.7644 20.2933 67.3644 21.36C67.9777 22.4133 68.2844 23.64 68.2844 25.04C68.2844 26.44 67.9777 27.6667 67.3644 28.72C66.7644 29.76 65.9044 30.5667 64.7844 31.14C63.6777 31.7133 62.391 32 60.9244 32H56.0244V26.26H54.6244V23.82H56.0244V18.04H60.9244ZM60.8244 29.72C62.2777 29.72 63.4044 29.3067 64.2044 28.48C65.0044 27.6533 65.4044 26.5067 65.4044 25.04C65.4044 23.5733 65.0044 22.4333 64.2044 21.62C63.4044 20.7933 62.2777 20.38 60.8244 20.38H58.8444V23.82H62.1844V26.26H58.8444V29.72H60.8244ZM71.7961 19.6C71.3028 19.6 70.8894 19.4467 70.5561 19.14C70.2361 18.82 70.0761 18.4267 70.0761 17.96C70.0761 17.4933 70.2361 17.1067 70.5561 16.8C70.8894 16.48 71.3028 16.32 71.7961 16.32C72.2894 16.32 72.6961 16.48 73.0161 16.8C73.3494 17.1067 73.5161 17.4933 73.5161 17.96C73.5161 18.4267 73.3494 18.82 73.0161 19.14C72.6961 19.4467 72.2894 19.6 71.7961 19.6ZM73.1761 20.92V32H70.3761V20.92H73.1761ZM92.7281 20.2H91.5281V32H88.6881V30.36C88.3415 30.9067 87.8548 31.3467 87.2281 31.68C86.6015 32.0133 85.8748 32.18 85.0481 32.18C84.1148 32.18 83.2615 31.94 82.4881 31.46C81.7148 30.98 81.1015 30.3067 80.6481 29.44C80.2081 28.56 79.9881 27.5533 79.9881 26.42C79.9881 25.3 80.2081 24.3067 80.6481 23.44C81.1015 22.5733 81.7148 21.9067 82.4881 21.44C83.2615 20.9733 84.1215 20.74 85.0681 20.74C85.7881 20.74 86.4748 20.9 87.1281 21.22C87.7815 21.5267 88.3015 21.94 88.6881 22.46V20.2H87.1681V18.72H88.6881V17.2H91.5281V18.72H92.7281V20.2ZM85.7681 29.72C86.2881 29.72 86.7748 29.5933 87.2281 29.34C87.6815 29.0733 88.0415 28.7 88.3081 28.22C88.5748 27.7267 88.7081 27.14 88.7081 26.46C88.7081 25.78 88.5748 25.2 88.3081 24.72C88.0415 24.2267 87.6815 23.8533 87.2281 23.6C86.7748 23.3333 86.2881 23.2 85.7681 23.2C85.2481 23.2 84.7681 23.3267 84.3281 23.58C83.8881 23.8333 83.5281 24.2067 83.2481 24.7C82.9815 25.18 82.8481 25.7533 82.8481 26.42C82.8481 27.0867 82.9815 27.6733 83.2481 28.18C83.5281 28.6733 83.8881 29.0533 84.3281 29.32C84.7815 29.5867 85.2615 29.72 85.7681 29.72ZM101.12 19.88C100.787 19.6533 100.447 19.4067 100.1 19.14C99.7533 18.86 99.4067 18.5667 99.06 18.26C98.7133 18.5667 98.3667 18.86 98.02 19.14C97.6733 19.4067 97.3333 19.6533 97 19.88H95.42V19.62C95.6467 19.3667 95.88 19.0867 96.12 18.78C96.36 18.46 96.6 18.14 96.84 17.82C97.0933 17.4867 97.32 17.1733 97.52 16.88H100.6C100.813 17.1733 101.04 17.4867 101.28 17.82C101.52 18.14 101.76 18.46 102 18.78C102.253 19.0867 102.487 19.3667 102.7 19.62V19.88H101.12ZM101.84 17.72C102.107 17.44 102.34 17.1533 102.54 16.86C102.753 16.5533 102.967 16.1867 103.18 15.76H105.54V15.96C105.247 16.3467 104.9 16.7133 104.5 17.06C104.1 17.3933 103.707 17.7 103.32 17.98H101.84V17.72ZM99.06 20.88C100.073 20.88 100.94 21.0733 101.66 21.46C102.393 21.8467 102.96 22.4067 103.36 23.14C103.76 23.8733 103.96 24.7733 103.96 25.84V27.28H96.92C96.9467 28.12 97.1933 28.78 97.66 29.26C98.14 29.74 98.8 29.98 99.64 29.98C100.347 29.98 100.987 29.9133 101.56 29.78C102.133 29.6333 102.727 29.4133 103.34 29.12V31.42C102.807 31.6867 102.24 31.88 101.64 32C101.053 32.1333 100.34 32.2 99.5 32.2C98.4067 32.2 97.44 32 96.6 31.6C95.76 31.1867 95.1 30.5667 94.62 29.74C94.14 28.9133 93.9 27.8733 93.9 26.62C93.9 25.34 94.1133 24.28 94.54 23.44C94.98 22.5867 95.5867 21.9467 96.36 21.52C97.1333 21.0933 98.0333 20.88 99.06 20.88ZM99.08 23C98.5067 23 98.0267 23.1867 97.64 23.56C97.2667 23.9333 97.0467 24.5133 96.98 25.3H101.16C101.16 24.86 101.08 24.4667 100.92 24.12C100.773 23.7733 100.547 23.5 100.24 23.3C99.9333 23.1 99.5467 23 99.08 23ZM112.336 20.76C113.656 20.76 114.723 21.18 115.536 22.02C116.35 22.8467 116.756 24.0067 116.756 25.5V32H113.956V25.88C113.956 25 113.736 24.3267 113.296 23.86C112.856 23.38 112.256 23.14 111.496 23.14C110.723 23.14 110.11 23.38 109.656 23.86C109.216 24.3267 108.996 25 108.996 25.88V32H106.196V20.92H108.996V22.3C109.37 21.82 109.843 21.4467 110.416 21.18C111.003 20.9 111.643 20.76 112.336 20.76ZM127.445 23.22V28.58C127.445 28.9533 127.531 29.2267 127.705 29.4C127.891 29.56 128.198 29.64 128.625 29.64H129.925V32H128.165C125.805 32 124.625 30.8533 124.625 28.56V23.22H123.305V20.92H124.625V18.18H127.445V20.92H129.925V23.22H127.445ZM134.739 22.64C135.099 22.0533 135.565 21.5933 136.139 21.26C136.725 20.9267 137.392 20.76 138.139 20.76V23.7H137.399C136.519 23.7 135.852 23.9067 135.399 24.32C134.959 24.7333 134.739 25.4533 134.739 26.48V32H131.939V20.92H134.739V22.64ZM139.305 26.42C139.305 25.3 139.525 24.3067 139.965 23.44C140.418 22.5733 141.025 21.9067 141.785 21.44C142.558 20.9733 143.418 20.74 144.365 20.74C145.191 20.74 145.911 20.9067 146.525 21.24C147.151 21.5733 147.651 21.9933 148.025 22.5V20.92H150.845V32H148.025V30.38C147.665 30.9 147.165 31.3333 146.525 31.68C145.898 32.0133 145.171 32.18 144.345 32.18C143.411 32.18 142.558 31.94 141.785 31.46C141.025 30.98 140.418 30.3067 139.965 29.44C139.525 28.56 139.305 27.5533 139.305 26.42ZM148.025 26.46C148.025 25.78 147.891 25.2 147.625 24.72C147.358 24.2267 146.998 23.8533 146.545 23.6C146.091 23.3333 145.605 23.2 145.085 23.2C144.565 23.2 144.085 23.3267 143.645 23.58C143.205 23.8333 142.845 24.2067 142.565 24.7C142.298 25.18 142.165 25.7533 142.165 26.42C142.165 27.0867 142.298 27.6733 142.565 28.18C142.845 28.6733 143.205 29.0533 143.645 29.32C144.098 29.5867 144.578 29.72 145.085 29.72C145.605 29.72 146.091 29.5933 146.545 29.34C146.998 29.0733 147.358 28.7 147.625 28.22C147.891 27.7267 148.025 27.14 148.025 26.46ZM159.719 20.76C161.039 20.76 162.106 21.18 162.919 22.02C163.733 22.8467 164.139 24.0067 164.139 25.5V32H161.339V25.88C161.339 25 161.119 24.3267 160.679 23.86C160.239 23.38 159.639 23.14 158.879 23.14C158.106 23.14 157.493 23.38 157.039 23.86C156.599 24.3267 156.379 25 156.379 25.88V32H153.579V20.92H156.379V22.3C156.753 21.82 157.226 21.4467 157.799 21.18C158.386 20.9 159.026 20.76 159.719 20.76ZM171.142 20.74C171.969 20.74 172.695 20.9067 173.322 21.24C173.949 21.56 174.442 21.98 174.802 22.5V20.92H177.622V32.08C177.622 33.1067 177.415 34.02 177.002 34.82C176.589 35.6333 175.969 36.2733 175.142 36.74C174.315 37.22 173.315 37.46 172.142 37.46C170.569 37.46 169.275 37.0933 168.262 36.36C167.262 35.6267 166.695 34.6267 166.562 33.36H169.342C169.489 33.8667 169.802 34.2667 170.282 34.56C170.775 34.8667 171.369 35.02 172.062 35.02C172.875 35.02 173.535 34.7733 174.042 34.28C174.549 33.8 174.802 33.0667 174.802 32.08V30.36C174.442 30.88 173.942 31.3133 173.302 31.66C172.675 32.0067 171.955 32.18 171.142 32.18C170.209 32.18 169.355 31.94 168.582 31.46C167.809 30.98 167.195 30.3067 166.742 29.44C166.302 28.56 166.082 27.5533 166.082 26.42C166.082 25.3 166.302 24.3067 166.742 23.44C167.195 22.5733 167.802 21.9067 168.562 21.44C169.335 20.9733 170.195 20.74 171.142 20.74ZM174.802 26.46C174.802 25.78 174.669 25.2 174.402 24.72C174.135 24.2267 173.775 23.8533 173.322 23.6C172.869 23.3333 172.382 23.2 171.862 23.2C171.342 23.2 170.862 23.3267 170.422 23.58C169.982 23.8333 169.622 24.2067 169.342 24.7C169.075 25.18 168.942 25.7533 168.942 26.42C168.942 27.0867 169.075 27.6733 169.342 28.18C169.622 28.6733 169.982 29.0533 170.422 29.32C170.875 29.5867 171.355 29.72 171.862 29.72C172.382 29.72 172.869 29.5933 173.322 29.34C173.775 29.0733 174.135 28.7 174.402 28.22C174.669 27.7267 174.802 27.14 174.802 26.46ZM200.482 20.92L197.242 32H194.222L192.202 24.26L190.182 32H187.142L183.882 20.92H186.722L188.682 29.36L190.802 20.92H193.762L195.842 29.34L197.802 20.92H200.482ZM212.297 26.22C212.297 26.62 212.271 26.98 212.217 27.3H204.117C204.184 28.1 204.464 28.7267 204.957 29.18C205.451 29.6333 206.057 29.86 206.777 29.86C207.817 29.86 208.557 29.4133 208.997 28.52H212.017C211.697 29.5867 211.084 30.4667 210.177 31.16C209.271 31.84 208.157 32.18 206.837 32.18C205.771 32.18 204.811 31.9467 203.957 31.48C203.117 31 202.457 30.3267 201.977 29.46C201.511 28.5933 201.277 27.5933 201.277 26.46C201.277 25.3133 201.511 24.3067 201.977 23.44C202.444 22.5733 203.097 21.9067 203.937 21.44C204.777 20.9733 205.744 20.74 206.837 20.74C207.891 20.74 208.831 20.9667 209.657 21.42C210.497 21.8733 211.144 22.52 211.597 23.36C212.064 24.1867 212.297 25.14 212.297 26.22ZM209.397 25.42C209.384 24.7 209.124 24.1267 208.617 23.7C208.111 23.26 207.491 23.04 206.757 23.04C206.064 23.04 205.477 23.2533 204.997 23.68C204.531 24.0933 204.244 24.6733 204.137 25.42H209.397ZM217.141 22.54C217.501 22.0067 217.994 21.5733 218.621 21.24C219.261 20.9067 219.988 20.74 220.801 20.74C221.748 20.74 222.601 20.9733 223.361 21.44C224.134 21.9067 224.741 22.5733 225.181 23.44C225.634 24.2933 225.861 25.2867 225.861 26.42C225.861 27.5533 225.634 28.56 225.181 29.44C224.741 30.3067 224.134 30.98 223.361 31.46C222.601 31.94 221.748 32.18 220.801 32.18C219.974 32.18 219.248 32.02 218.621 31.7C218.008 31.3667 217.514 30.94 217.141 30.42V32H214.341V17.2H217.141V22.54ZM223.001 26.42C223.001 25.7533 222.861 25.18 222.581 24.7C222.314 24.2067 221.954 23.8333 221.501 23.58C221.061 23.3267 220.581 23.2 220.061 23.2C219.554 23.2 219.074 23.3333 218.621 23.6C218.181 23.8533 217.821 24.2267 217.541 24.72C217.274 25.2133 217.141 25.7933 217.141 26.46C217.141 27.1267 217.274 27.7067 217.541 28.2C217.821 28.6933 218.181 29.0733 218.621 29.34C219.074 29.5933 219.554 29.72 220.061 29.72C220.581 29.72 221.061 29.5867 221.501 29.32C221.954 29.0533 222.314 28.6733 222.581 28.18C222.861 27.6867 223.001 27.1 223.001 26.42Z" fill="white"/>
<path d="M54.4844 34H93.0081V35H54.4844V34ZM93 34.5H104.82V35.5H93V34.5ZM104.816 34H226.521V35H104.816V34Z" fill="white"/>
<a href="http://hidemium.io">
<rect fill="black" fill-opacity="0" x="8.48438" width="172.037" height="30"/>
</a>
<g clip-path="url(#clip0_1_593)">
<path d="M27.5232 11C35.5328 11.0134 42.0134 17.5145 42 25.5232C41.9867 33.5328 35.4855 40.0134 27.4769 40C19.4672 39.9867 12.9867 33.4855 13 25.4769C13.0134 17.4672 19.5145 10.9867 27.5232 11ZM23.8644 24.6707C24.6695 24.6707 25.4747 24.6624 26.2789 24.6748C26.5462 24.6789 26.681 24.6326 26.6768 24.3159C26.6604 23.1004 26.6676 21.8839 26.6727 20.6674C26.6738 20.4699 26.6419 20.3506 26.4012 20.3393C24.9492 20.2684 23.4962 20.2149 22.0535 20.0308C21.7583 19.9938 21.7028 20.1779 21.6596 20.3815C21.3809 21.671 21.2472 22.9801 21.1352 24.2933C21.1105 24.5853 21.2071 24.682 21.5012 24.6758C22.2879 24.6594 23.0766 24.6707 23.8644 24.6707ZM31.0976 24.6707C31.8853 24.6707 32.673 24.6532 33.4587 24.6789C33.8176 24.6902 33.8916 24.5534 33.8628 24.2326C33.7487 22.9554 33.615 21.6823 33.3538 20.4257C33.2983 20.1594 33.2016 20.0072 32.8787 20.0555C31.5069 20.2602 30.1207 20.2787 28.7386 20.3414C28.4487 20.3548 28.315 20.4041 28.3211 20.7394C28.3417 21.9199 28.3407 23.1014 28.3211 24.282C28.316 24.6121 28.4332 24.684 28.7356 24.6779C29.5233 24.6583 30.311 24.6707 31.0976 24.6707ZM17.0681 24.6727C17.7365 24.6727 18.4049 24.6614 19.0734 24.6779C19.3541 24.6851 19.4775 24.6018 19.4785 24.3066C19.4847 22.8989 19.677 21.5116 19.9927 20.1419C20.0626 19.8396 19.9485 19.6946 19.6585 19.6555C18.6918 19.5239 17.753 19.2678 16.8192 18.9953C16.594 18.9295 16.4943 18.9583 16.3781 19.1619C15.467 20.761 14.9497 22.4803 14.7513 24.3046C14.7184 24.611 14.8294 24.6851 15.1153 24.6779C15.7652 24.6614 16.4172 24.6727 17.0681 24.6727ZM31.11 26.3294C30.3223 26.3294 29.5346 26.3386 28.7479 26.3242C28.46 26.3191 28.316 26.3643 28.3222 26.7088C28.3427 27.8729 28.3397 29.037 28.3242 30.201C28.3201 30.4931 28.4199 30.5908 28.7006 30.5939C30.0868 30.6103 31.4678 30.7101 32.8437 30.8674C33.1903 30.9075 33.2931 30.7779 33.3538 30.4879C33.6119 29.2478 33.7425 27.9901 33.8618 26.7314C33.8926 26.4086 33.7888 26.317 33.4731 26.3242C32.6854 26.3417 31.8977 26.3294 31.11 26.3294ZM23.9209 26.3294C23.1322 26.3294 22.3445 26.3427 21.5557 26.3232C21.2226 26.315 21.1053 26.4024 21.1403 26.7551C21.2647 27.9973 21.3881 29.2395 21.6411 30.4653C21.7049 30.7759 21.8468 30.8962 22.1635 30.852C23.5394 30.6597 24.9256 30.6278 26.3108 30.5836C26.6069 30.5743 26.681 30.4643 26.6779 30.1846C26.6645 29.037 26.6583 27.8883 26.681 26.7407C26.6882 26.3818 26.5504 26.317 26.2347 26.3242C25.4634 26.3417 24.6922 26.3294 23.9209 26.3294ZM37.933 26.3294C37.2491 26.3294 36.5653 26.3345 35.8804 26.3263C35.6583 26.3232 35.5246 26.3715 35.5226 26.6307C35.5143 28.0364 35.3076 29.4185 35.0084 30.7882C34.9539 31.0371 34.9919 31.2026 35.3035 31.2458C36.2845 31.3795 37.2419 31.6284 38.187 31.9142C38.4389 31.9903 38.5551 31.9564 38.6775 31.7363C39.5567 30.165 40.0544 28.4786 40.2488 26.6934C40.2827 26.3839 40.1614 26.317 39.8817 26.3232C39.2328 26.3397 38.5829 26.3294 37.933 26.3294ZM37.9052 24.6707C38.5551 24.6707 39.206 24.6573 39.8549 24.6768C40.1583 24.6861 40.2858 24.6182 40.2488 24.282C40.0503 22.5153 39.5588 20.8432 38.6908 19.2863C38.5767 19.0817 38.4811 19.0128 38.2116 19.0827C37.2563 19.3326 36.2917 19.5516 35.321 19.7306C34.9981 19.7902 34.9621 19.9321 35.0166 20.1738C35.322 21.5271 35.5154 22.8937 35.5205 24.282C35.5215 24.6038 35.6573 24.684 35.9555 24.6758C36.6044 24.6583 37.2553 24.6707 37.9052 24.6707ZM17.1123 26.3283C16.4275 26.3283 15.7426 26.3366 15.0577 26.3242C14.8078 26.3191 14.7245 26.4024 14.7502 26.6512C14.9312 28.422 15.4197 30.0972 16.2794 31.6613C16.3956 31.8721 16.5385 31.9194 16.737 31.8567C17.6995 31.5523 18.6877 31.36 19.678 31.1862C19.9824 31.1327 20.0431 30.9929 19.9855 30.7378C19.6842 29.4 19.4909 28.0498 19.4795 26.6769C19.4775 26.4127 19.3808 26.3181 19.1145 26.3232C18.4481 26.3376 17.7797 26.3283 17.1123 26.3283ZM28.3273 15.7036C28.3273 16.5263 28.3448 17.3489 28.3191 18.1706C28.3078 18.5305 28.4137 18.6302 28.7757 18.6272C30.0107 18.6179 31.2365 18.4945 32.4653 18.404C32.78 18.3804 32.7265 18.2621 32.6494 18.0492C32.2442 16.9345 31.7321 15.8743 31.0308 14.9149C30.4375 14.1035 29.7341 13.4125 28.8055 12.9847C28.4888 12.8387 28.2913 12.7955 28.317 13.287C28.3582 14.0912 28.3273 14.8984 28.3273 15.7036ZM26.6707 35.1658C26.6707 34.3442 26.6552 33.5215 26.6779 32.7009C26.6871 32.3605 26.5812 32.2556 26.2439 32.2793C25.0161 32.3647 23.7862 32.4346 22.5573 32.4963C22.2879 32.5096 22.2458 32.5785 22.3404 32.8346C22.8237 34.1426 23.4345 35.3797 24.3343 36.4533C24.8659 37.0878 25.4891 37.6153 26.2676 37.9423C26.5617 38.0657 26.6892 38.0637 26.6779 37.6822C26.6542 36.8441 26.6707 36.0039 26.6707 35.1658ZM26.6707 15.6933C26.6707 14.8542 26.6624 14.0141 26.6748 13.1749C26.6789 12.8829 26.611 12.8191 26.3272 12.9384C25.9457 13.0999 25.5878 13.2932 25.267 13.5523C23.7883 14.7483 22.979 16.3761 22.326 18.1068C22.2293 18.3619 22.3866 18.368 22.5429 18.3783C23.7893 18.4616 25.0305 18.6056 26.282 18.6241C26.6141 18.6292 26.683 18.512 26.6768 18.2107C26.6594 17.3716 26.6707 16.5324 26.6707 15.6933ZM28.3294 35.1699C28.3294 35.9906 28.3499 36.8132 28.3211 37.6328C28.3057 38.0647 28.4548 38.0781 28.7829 37.9248C29.3474 37.6616 29.8472 37.3109 30.2811 36.8667C31.3907 35.7314 32.0787 34.3483 32.6453 32.8881C32.7748 32.5539 32.5887 32.5374 32.382 32.523C31.1552 32.4387 29.9274 32.3708 28.7006 32.2834C28.4044 32.2618 28.3191 32.3667 28.3242 32.6557C28.3397 33.4927 28.3294 34.3308 28.3294 35.1699ZM17.5329 33.4177C18.2785 34.7679 21.4622 37.1772 22.7918 37.2677C21.8149 35.972 21.1115 34.556 20.6097 33.0382C20.5552 32.8726 20.4709 32.7678 20.2765 32.8058C19.3582 32.9837 18.4317 33.1256 17.5329 33.4177ZM32.1856 37.2996C32.2905 37.3109 32.345 37.3346 32.3841 37.3181C34.3307 36.5356 35.9503 35.3057 37.3077 33.7159C37.4846 33.5092 37.4065 33.4444 37.171 33.3971C36.5858 33.2778 36.01 33.1122 35.4228 33.0063C34.4932 32.8377 34.4881 32.8511 34.1436 33.7395C33.6561 35.0023 33.0258 36.188 32.1856 37.2996ZM32.2967 13.6881C33.2006 14.9704 33.8926 16.3535 34.3821 17.8374C34.4551 18.0605 34.5775 18.1418 34.7986 18.0996C35.6758 17.932 36.5591 17.7891 37.4795 17.5022C36.0593 15.753 34.3667 14.483 32.2967 13.6881ZM17.573 17.4322C18.4522 17.6821 19.2708 17.8436 20.0873 18.0204C20.4853 18.1068 20.5809 17.9742 20.6858 17.6523C21.0107 16.66 21.4478 15.7149 21.999 14.8254C22.2324 14.448 22.4792 14.0788 22.7918 13.5966C20.6683 14.4686 18.9962 15.716 17.573 17.4322Z" fill="white"/>
</g>
<defs>
<clipPath id="clip0_1_593">
<rect width="29" height="29" fill="white" transform="translate(13 11)"/>
</clipPath>
</defs>
</svg>
