<svg width="170" height="136" viewBox="0 0 170 136" fill="none" xmlns="http://www.w3.org/2000/svg">
<path d="M1.95849 104.662C2.49033 104.662 2.94434 104.481 3.34647 104.105C3.74859 103.741 3.94317 103.274 3.94317 102.73V95.3746H14.0092V102.73C14.0092 103.274 14.2038 103.728 14.593 104.105C14.9821 104.468 15.4232 104.662 15.9291 104.662C16.5387 104.662 17.0317 104.481 17.3949 104.105C17.7581 103.741 17.9527 103.274 17.9527 102.73V84.5043C17.9527 83.9595 17.771 83.5055 17.4208 83.1293C17.0576 82.7661 16.5906 82.5715 16.0069 82.5715C15.475 82.5715 15.021 82.7531 14.6189 83.1293C14.2168 83.4925 14.0222 83.9595 14.0222 84.5043V91.7555H3.94317V84.5043C3.94317 83.9595 3.74859 83.5055 3.35944 83.1293C2.97029 82.7661 2.52925 82.5715 2.02335 82.5715C1.43962 82.5715 0.946693 82.7531 0.570513 83.1293C0.194332 83.5055 -0.000244141 83.9595 -0.000244141 84.5043V102.743C-0.000244141 103.287 0.18136 103.741 0.531597 104.118C0.894806 104.481 1.36179 104.662 1.95849 104.662Z" fill="white"/>
<path d="M32.2345 83.7135C32.0918 83.3114 31.8453 83.0001 31.521 82.7796C31.1967 82.5591 30.8465 82.4423 30.4703 82.4423C30.0682 82.4034 29.692 82.4942 29.3547 82.7277C29.0045 82.9612 28.7451 83.2855 28.5764 83.7006L20.7156 102.561C20.6507 102.769 20.6248 102.977 20.6248 103.158C20.6248 103.625 20.7674 104.014 21.0399 104.326C21.3123 104.637 21.7274 104.793 22.2981 104.793C22.6613 104.793 22.9856 104.676 23.2969 104.455C23.6083 104.235 23.8288 103.924 23.9715 103.521L25.6059 99.6688H35.0234L36.6578 103.482C36.8265 103.885 37.06 104.196 37.3713 104.429C37.6696 104.663 38.0199 104.78 38.396 104.78C38.8371 104.78 39.2392 104.611 39.6154 104.274C39.9786 103.936 40.1732 103.482 40.1732 102.912C40.1732 102.678 40.1213 102.432 40.0175 102.159L32.2345 83.7135ZM27.1495 96.0756L30.2887 88.6947L33.4538 96.0756H27.1495Z" fill="white"/>
<path d="M59.1381 102.535C59.2549 101.978 59.0992 101.433 58.6841 100.914C58.3857 100.538 58.0225 100.317 57.5945 100.252C57.1664 100.188 56.7254 100.265 56.2843 100.473C55.7525 100.745 55.2077 100.94 54.6499 101.044C54.0791 101.147 53.5084 101.199 52.9506 101.199C51.9258 101.199 50.9659 101.044 50.0838 100.745C49.2018 100.447 48.4364 99.967 47.7749 99.3444C47.1263 98.7087 46.6074 97.9304 46.2442 96.9835C45.881 96.0366 45.6864 94.921 45.6864 93.6368C45.6864 92.5472 45.855 91.5483 46.1793 90.6403C46.5036 89.7323 46.9836 88.954 47.6192 88.2924C48.2548 87.6309 49.0072 87.125 49.9022 86.7618C50.7973 86.3986 51.8091 86.2299 52.9506 86.2299C53.5603 86.2299 54.144 86.2948 54.7018 86.4245C55.2596 86.5542 55.7914 86.7358 56.2973 86.9563C56.7383 87.1639 57.1794 87.2547 57.6074 87.2028C58.0355 87.1639 58.3857 86.9563 58.6582 86.5672C59.0603 86.0872 59.2159 85.5424 59.1122 84.9587C59.0214 84.375 58.6971 83.9339 58.1523 83.6615C57.374 83.2594 56.5438 82.961 55.6617 82.7405C54.7796 82.533 53.8716 82.4292 52.9506 82.4292C51.3161 82.4292 49.7984 82.7146 48.4105 83.2594C47.0225 83.8172 45.8161 84.5955 44.8043 85.5943C43.7796 86.5931 43.0013 87.7736 42.4435 89.1486C41.8857 90.5106 41.6133 92.0153 41.6133 93.6238C41.6133 95.4917 41.9116 97.1392 42.5343 98.566C43.1439 99.98 43.9741 101.173 45.0378 102.12C46.1015 103.067 47.3079 103.781 48.6699 104.261C50.0319 104.741 51.4588 104.987 52.9765 104.987C53.5862 104.987 54.1829 104.935 54.7796 104.844C55.3633 104.754 55.9471 104.611 56.5308 104.429C57.1145 104.248 57.6723 104.027 58.2171 103.755C58.6971 103.495 59.0214 103.093 59.1381 102.535Z" fill="white"/>
<path d="M76.4684 95.3876V102.743C76.4684 103.287 76.663 103.741 77.0522 104.118C77.4413 104.481 77.8824 104.675 78.3883 104.675C78.9979 104.675 79.4909 104.494 79.8541 104.118C80.2173 103.754 80.4118 103.287 80.4118 102.743V84.5043C80.4118 83.9595 80.2302 83.5055 79.88 83.1293C79.5168 82.7661 79.0498 82.5715 78.4661 82.5715C77.9342 82.5715 77.4802 82.7531 77.0781 83.1293C76.676 83.4925 76.4814 83.9595 76.4814 84.5043V91.7555H66.4153V84.5043C66.4153 83.9595 66.2208 83.5055 65.8316 83.1293C65.4425 82.7661 65.0014 82.5715 64.4955 82.5715C63.9118 82.5715 63.4189 82.7531 63.0427 83.1293C62.6665 83.4925 62.4719 83.9595 62.4719 84.5043V102.743C62.4719 103.287 62.6535 103.741 63.0038 104.118C63.367 104.481 63.834 104.675 64.4177 104.675C64.9495 104.675 65.4035 104.494 65.8057 104.118C66.2078 103.754 66.4024 103.287 66.4024 102.743V95.3876H76.4684Z" fill="white"/>
<path d="M87.1052 104.662C87.6371 104.662 88.0911 104.481 88.4932 104.105C88.8953 103.741 89.0899 103.274 89.0899 102.73V84.5043C89.0899 83.9595 88.8953 83.5055 88.5062 83.1293C88.117 82.7661 87.676 82.5715 87.1701 82.5715C86.5863 82.5715 86.0934 82.7531 85.7172 83.1293C85.3411 83.4925 85.1465 83.9595 85.1465 84.5043V102.743C85.1465 103.287 85.3281 103.741 85.6783 104.118C86.0415 104.481 86.5085 104.662 87.1052 104.662Z" fill="white"/>
<path d="M108.327 82.585H94.3176C93.7727 82.585 93.3187 82.7536 92.9426 83.0779C92.5793 83.4022 92.3848 83.8432 92.3848 84.388C92.3848 84.9328 92.5664 85.3739 92.9426 85.7111C93.3058 86.0484 93.7727 86.2171 94.3176 86.2171H99.2728V102.743C99.2728 103.288 99.4673 103.742 99.8435 104.118C100.22 104.481 100.7 104.676 101.296 104.676C101.906 104.676 102.412 104.494 102.801 104.118C103.19 103.755 103.385 103.288 103.385 102.743V86.2041H108.34C108.885 86.2041 109.339 86.0354 109.715 85.7111C110.078 85.3869 110.273 84.9458 110.273 84.401C110.273 83.8562 110.091 83.4151 109.715 83.0779C109.339 82.7536 108.872 82.585 108.327 82.585Z" fill="white"/>
<path d="M126.059 86.2041C126.604 86.2041 127.058 86.0354 127.434 85.7111C127.797 85.3869 127.992 84.9588 127.992 84.4399C127.992 83.8951 127.81 83.4411 127.434 83.1038C127.071 82.7536 126.604 82.585 126.059 82.585H115.487C114.942 82.585 114.488 82.7666 114.112 83.1427C113.749 83.506 113.554 83.9729 113.554 84.5177V102.756C113.554 103.301 113.736 103.755 114.112 104.131C114.475 104.494 114.942 104.689 115.487 104.689H126.059C126.604 104.689 127.058 104.52 127.434 104.183C127.797 103.846 127.992 103.418 127.992 102.886C127.992 102.406 127.81 101.978 127.434 101.602C127.071 101.238 126.604 101.044 126.059 101.044H117.511V95.2065H124.645C125.19 95.2065 125.644 95.0378 126.02 94.7135C126.383 94.3892 126.578 93.9612 126.578 93.4293C126.578 92.8845 126.396 92.4305 126.02 92.0933C125.657 91.743 125.19 91.5744 124.645 91.5744H117.511V86.2171H126.059V86.2041Z" fill="white"/>
<path d="M146.516 100.252C146.088 100.188 145.647 100.265 145.205 100.473C144.674 100.745 144.129 100.94 143.571 101.044C143 101.147 142.43 101.199 141.872 101.199C140.847 101.199 139.887 101.044 139.005 100.745C138.123 100.447 137.358 99.967 136.696 99.3444C136.047 98.7087 135.529 97.9304 135.165 96.9835C134.802 96.0366 134.608 94.921 134.608 93.6368C134.608 92.5472 134.776 91.5483 135.1 90.6403C135.425 89.7323 135.905 88.954 136.54 88.2924C137.176 87.6309 137.928 87.125 138.823 86.7618C139.718 86.3986 140.73 86.2299 141.872 86.2299C142.481 86.2299 143.065 86.2948 143.623 86.4245C144.181 86.5542 144.713 86.7358 145.218 86.9563C145.659 87.1639 146.101 87.2547 146.529 87.2028C146.957 87.1639 147.307 86.9563 147.579 86.5672C147.981 86.0872 148.137 85.5424 148.033 84.9587C147.943 84.375 147.618 83.9339 147.073 83.6615C146.295 83.2594 145.465 82.961 144.583 82.7405C143.701 82.533 142.793 82.4292 141.872 82.4292C140.237 82.4292 138.72 82.7146 137.332 83.2594C135.944 83.8172 134.737 84.5955 133.725 85.5943C132.701 86.5931 131.922 87.7736 131.365 89.1486C130.807 90.5106 130.534 92.0153 130.534 93.6238C130.534 95.4917 130.833 97.1392 131.455 98.566C132.065 99.98 132.895 101.173 133.959 102.12C135.023 103.067 136.229 103.781 137.591 104.261C138.953 104.741 140.38 104.987 141.898 104.987C142.507 104.987 143.104 104.935 143.701 104.844C144.284 104.754 144.868 104.611 145.452 104.429C146.036 104.248 146.593 104.027 147.138 103.755C147.657 103.508 147.981 103.093 148.098 102.535C148.215 101.978 148.059 101.433 147.644 100.914C147.307 100.525 146.944 100.304 146.516 100.252Z" fill="white"/>
<path d="M168.801 83.1293C168.438 82.7661 167.971 82.5715 167.387 82.5715C166.855 82.5715 166.401 82.7531 165.999 83.1293C165.597 83.4925 165.403 83.9595 165.403 84.5043V91.7555H155.336V84.5043C155.336 83.9595 155.142 83.5055 154.753 83.1293C154.364 82.7661 153.923 82.5715 153.417 82.5715C152.833 82.5715 152.34 82.7531 151.964 83.1293C151.588 83.4925 151.393 83.9595 151.393 84.5043V102.743C151.393 103.287 151.575 103.741 151.925 104.118C152.288 104.481 152.755 104.675 153.339 104.675C153.871 104.675 154.325 104.494 154.727 104.118C155.129 103.754 155.324 103.287 155.324 102.743V95.3876H165.39V102.743C165.39 103.287 165.584 103.741 165.973 104.118C166.362 104.481 166.803 104.675 167.309 104.675C167.919 104.675 168.412 104.494 168.775 104.118C169.138 103.754 169.333 103.287 169.333 102.743V84.5043C169.346 83.9595 169.164 83.5055 168.801 83.1293Z" fill="white"/>
<path d="M39.5215 127.583C39.0545 127.233 38.4967 126.948 37.887 126.714C37.2644 126.481 36.6158 126.286 35.9413 126.117C35.137 125.91 34.4236 125.676 33.775 125.417C33.1394 125.171 32.6205 124.846 32.2314 124.47C31.8422 124.094 31.6217 123.601 31.5828 122.991C31.5828 122.343 31.7644 121.811 32.1146 121.409C32.4778 121.007 32.9189 120.708 33.4507 120.527C33.9825 120.332 34.5533 120.241 35.1759 120.241C35.9802 120.241 36.7196 120.384 37.4201 120.669C38.1076 120.955 38.7172 121.383 39.2231 121.954C39.3658 122.122 39.5604 122.213 39.7809 122.226C40.0014 122.239 40.196 122.174 40.3646 122.057C40.5722 121.85 40.676 121.616 40.676 121.383C40.676 121.136 40.5852 120.929 40.3906 120.734C39.9236 120.189 39.4047 119.761 38.808 119.437C38.2243 119.126 37.6146 118.892 37.005 118.762C36.3953 118.62 35.8116 118.555 35.2667 118.555C34.242 118.555 33.295 118.75 32.4648 119.126C31.6217 119.502 30.9601 120.034 30.4931 120.708C30.0262 121.383 29.7797 122.161 29.7797 123.043C29.7797 123.796 29.9354 124.444 30.2337 124.963C30.5321 125.495 30.9601 125.936 31.479 126.299C32.0108 126.662 32.5946 126.974 33.2561 127.22C33.9177 127.467 34.6052 127.674 35.3186 127.869C36.0191 128.037 36.6547 128.245 37.2644 128.478C37.8611 128.725 38.354 129.036 38.7302 129.425C39.1064 129.814 39.301 130.333 39.301 130.982C39.301 131.617 39.1064 132.136 38.7302 132.538C38.354 132.954 37.8741 133.252 37.2903 133.459C36.7066 133.654 36.1229 133.758 35.5391 133.758C34.4236 133.758 33.4637 133.537 32.6464 133.083C31.8422 132.629 31.1417 132.033 30.5839 131.306C30.3894 131.112 30.1948 131.008 29.9743 130.995C29.7538 130.969 29.5592 131.034 29.3905 131.189C29.1441 131.332 29.0014 131.527 29.0014 131.773C28.9884 132.02 29.0662 132.266 29.2349 132.513C30.0521 133.537 30.999 134.277 32.0627 134.718C33.1264 135.159 34.229 135.379 35.3575 135.379C36.4083 135.379 37.3682 135.198 38.2243 134.847C39.0804 134.484 39.7809 133.978 40.2868 133.304C40.8057 132.629 41.0651 131.838 41.0651 130.904C41.0651 130.1 40.9224 129.438 40.637 128.919C40.3776 128.362 39.9885 127.921 39.5215 127.583Z" fill="white"/>
<path d="M56.0996 119.644C54.9062 118.905 53.5312 118.542 52.0005 118.542C50.5088 118.542 49.1597 118.905 47.9534 119.644C46.747 120.384 45.7871 121.383 45.0866 122.641C44.3861 123.899 44.0359 125.339 44.0359 126.96C44.0359 128.556 44.3861 129.996 45.0866 131.267C45.7871 132.538 46.747 133.537 47.9534 134.263C49.1597 134.99 50.5088 135.353 52.0005 135.353C53.5312 135.353 54.9062 134.99 56.0996 134.263C57.293 133.537 58.2399 132.538 58.9404 131.267C59.6279 129.996 59.9782 128.556 59.9782 126.96C59.9782 125.339 59.6279 123.899 58.9404 122.641C58.2399 121.383 57.293 120.384 56.0996 119.644ZM57.293 130.372C56.7612 131.358 56.0477 132.149 55.1267 132.72C54.2057 133.304 53.168 133.589 51.9876 133.589C50.8461 133.589 49.8213 133.304 48.9003 132.72C47.9793 132.136 47.2399 131.358 46.7081 130.372C46.1762 129.386 45.9038 128.245 45.9038 126.96C45.9038 125.676 46.1762 124.535 46.7081 123.536C47.2399 122.537 47.9793 121.759 48.9003 121.188C49.8213 120.617 50.859 120.332 51.9876 120.332C53.168 120.332 54.2057 120.617 55.1267 121.188C56.0477 121.759 56.7612 122.537 57.293 123.536C57.8249 124.535 58.0843 125.676 58.0843 126.96C58.0843 128.245 57.8249 129.386 57.293 130.372Z" fill="white"/>
<path d="M65.1537 111.693C64.9073 111.693 64.6738 111.784 64.4922 111.978C64.2976 112.173 64.2068 112.393 64.2068 112.64V134.095C64.2068 134.342 64.2976 134.562 64.4792 134.757C64.6608 134.951 64.8813 135.042 65.1537 135.042C65.4002 135.042 65.6207 134.951 65.8153 134.757C66.0099 134.562 66.1007 134.342 66.1007 134.095V112.64C66.1007 112.393 66.0099 112.173 65.8283 111.978C65.6467 111.784 65.4261 111.693 65.1537 111.693Z" fill="white"/>
<path d="M83.1581 119.009C82.8597 119.009 82.6262 119.1 82.4446 119.295C82.263 119.489 82.1722 119.71 82.1722 119.956V128.855C82.1722 130.373 81.7701 131.527 80.9529 132.305C80.1486 133.097 79.0071 133.486 77.5672 133.486C76.1403 133.486 75.0118 133.097 74.2076 132.305C73.4033 131.514 72.9882 130.36 72.9882 128.855V119.956C72.9882 119.71 72.8974 119.489 72.7158 119.295C72.5342 119.1 72.3137 119.009 72.0413 119.009C71.7689 119.009 71.5354 119.1 71.3408 119.295C71.1462 119.489 71.0554 119.71 71.0554 119.956V128.855C71.0554 130.943 71.6392 132.526 72.8066 133.615C73.9741 134.705 75.5566 135.25 77.5543 135.25C79.5519 135.25 81.1345 134.705 82.3149 133.615C83.4953 132.526 84.0791 130.93 84.0791 128.855V119.956C84.0791 119.71 83.9883 119.489 83.8066 119.295C83.664 119.113 83.4434 119.009 83.1581 119.009Z" fill="white"/>
<path d="M95.3778 118.983H92.2256V115.481C92.2256 115.234 92.1348 115.014 91.9532 114.819C91.7716 114.624 91.5511 114.534 91.2787 114.534C91.0063 114.534 90.7728 114.624 90.5782 114.819C90.3837 115.014 90.2929 115.234 90.2929 115.481V118.983H88.0228C87.7763 118.983 87.5558 119.074 87.3742 119.229C87.1926 119.398 87.1018 119.606 87.1018 119.865C87.1018 120.112 87.1926 120.332 87.3742 120.514C87.5558 120.695 87.7634 120.786 88.0228 120.786H90.2929V131.423C90.2929 132.37 90.4355 133.096 90.7079 133.602C90.9804 134.108 91.3176 134.458 91.7197 134.653C92.1219 134.847 92.511 134.964 92.8872 135.003C93.2634 135.029 93.5488 135.055 93.7433 135.055C94.2103 135.055 94.5995 134.951 94.9367 134.757C95.274 134.562 95.4426 134.316 95.4426 134.017C95.4426 133.784 95.3778 133.602 95.2351 133.446C95.0924 133.304 94.9367 133.226 94.7422 133.226C94.5735 133.226 94.4179 133.252 94.2882 133.304C94.1455 133.356 94.0028 133.382 93.8341 133.382C93.5877 133.382 93.3282 133.33 93.0818 133.239C92.8353 133.148 92.6278 132.954 92.4721 132.655C92.3164 132.357 92.2386 131.916 92.2386 131.332V120.799H95.3907C95.6372 120.799 95.8577 120.721 96.0264 120.553C96.195 120.384 96.2728 120.176 96.2728 119.917C96.2728 119.671 96.182 119.45 96.0264 119.268C95.8318 119.074 95.6242 118.983 95.3778 118.983Z" fill="white"/>
<path d="M100.67 113.872C100.255 113.872 99.918 113.976 99.6716 114.171C99.4251 114.365 99.3083 114.664 99.3083 115.04V115.351C99.3083 115.727 99.4251 116.013 99.6456 116.22C99.8661 116.415 100.203 116.519 100.644 116.519C101.06 116.519 101.384 116.415 101.604 116.22C101.825 116.026 101.942 115.727 101.942 115.351V115.04C101.942 114.664 101.825 114.378 101.604 114.171C101.384 113.976 101.073 113.872 100.67 113.872Z" fill="white"/>
<path d="M100.644 118.633C100.372 118.633 100.138 118.724 99.9697 118.918C99.7881 119.113 99.6973 119.334 99.6973 119.58V134.095C99.6973 134.342 99.7751 134.562 99.9437 134.757C100.112 134.952 100.346 135.042 100.644 135.042C100.891 135.042 101.111 134.952 101.306 134.757C101.5 134.562 101.591 134.342 101.591 134.095V119.58C101.591 119.334 101.5 119.113 101.319 118.918C101.137 118.724 100.917 118.633 100.644 118.633Z" fill="white"/>
<path d="M117.637 119.644C116.444 118.905 115.069 118.542 113.538 118.542C112.047 118.542 110.698 118.905 109.491 119.644C108.285 120.384 107.325 121.383 106.624 122.641C105.924 123.899 105.574 125.339 105.574 126.96C105.574 128.556 105.924 129.996 106.624 131.267C107.325 132.538 108.285 133.537 109.491 134.263C110.698 134.99 112.047 135.353 113.538 135.353C115.069 135.353 116.444 134.99 117.637 134.263C118.831 133.537 119.778 132.538 120.478 131.267C121.166 129.996 121.516 128.556 121.516 126.96C121.516 125.339 121.166 123.899 120.478 122.641C119.791 121.383 118.844 120.384 117.637 119.644ZM118.844 130.372C118.312 131.358 117.599 132.149 116.678 132.72C115.757 133.304 114.719 133.589 113.538 133.589C112.397 133.589 111.372 133.304 110.451 132.72C109.53 132.136 108.791 131.358 108.259 130.372C107.727 129.386 107.455 128.245 107.455 126.96C107.455 125.676 107.727 124.535 108.259 123.536C108.791 122.537 109.53 121.759 110.451 121.188C111.372 120.617 112.41 120.332 113.538 120.332C114.719 120.332 115.757 120.617 116.678 121.188C117.599 121.759 118.312 122.537 118.844 123.536C119.376 124.535 119.635 125.676 119.635 126.96C119.635 128.245 119.363 129.386 118.844 130.372Z" fill="white"/>
<path d="M136.498 119.372C135.668 118.814 134.553 118.542 133.165 118.542C132.412 118.542 131.66 118.684 130.907 118.97C130.155 119.255 129.481 119.644 128.871 120.137C128.3 120.604 127.833 121.123 127.457 121.694V119.969C127.457 119.722 127.366 119.502 127.185 119.307C127.003 119.113 126.782 119.022 126.51 119.022C126.238 119.022 126.004 119.113 125.81 119.307C125.615 119.502 125.524 119.722 125.524 119.969V134.108C125.524 134.354 125.615 134.575 125.797 134.769C125.978 134.964 126.212 135.055 126.51 135.055C126.756 135.055 126.977 134.964 127.172 134.769C127.366 134.575 127.457 134.354 127.457 134.108V124.924C127.457 124.081 127.703 123.315 128.209 122.615C128.715 121.927 129.377 121.37 130.181 120.954C130.985 120.539 131.841 120.345 132.749 120.345C133.761 120.345 134.565 120.552 135.175 120.954C135.785 121.37 136.226 121.914 136.498 122.615C136.771 123.302 136.913 124.081 136.913 124.924V134.108C136.913 134.354 137.004 134.575 137.186 134.769C137.367 134.964 137.601 135.055 137.899 135.055C138.146 135.055 138.366 134.964 138.561 134.769C138.755 134.575 138.846 134.354 138.846 134.108V124.833C138.846 123.679 138.665 122.615 138.288 121.668C137.925 120.695 137.328 119.93 136.498 119.372Z" fill="white"/>
<path d="M138.168 41.1012C135.885 39.4797 132.966 38.9349 130.255 39.6094C127.181 40.3877 125.352 42.9821 122.589 44.3182C120.811 45.1743 118.853 45.6283 116.868 45.6283C111.173 45.6283 106.257 42.0351 104.441 36.8205C104.013 35.6011 102.794 34.8488 101.522 35.0693C99.9139 35.3417 98.954 37.0021 99.4859 38.5457C102.015 45.8488 108.89 50.8819 116.868 50.8819C121.59 50.8819 125.689 49.0399 129.243 46.0564C130.203 45.2521 131.293 44.5906 132.59 44.5906C133.718 44.5906 134.847 45.0316 135.716 45.9007C137.415 47.613 137.441 50.3889 135.768 52.1142C135.729 52.1531 135.69 52.192 135.651 52.2309L135.482 52.3866C130.411 57.1342 123.808 59.7416 116.855 59.7416C102.054 59.7416 89.9776 47.8984 89.6144 33.1884C89.2512 18.3747 100.978 5.83099 115.778 5.24726C123.354 4.94891 130.553 7.73783 135.923 13.0044C137.636 14.7296 137.636 17.5315 135.923 19.2567C134.912 20.2685 133.446 20.7355 132.045 20.4891C130.722 20.2685 129.84 19.3216 128.854 18.5174C127.777 17.6223 126.636 16.8181 125.403 16.1695C122.783 14.7945 119.839 14.081 116.868 14.081C108.89 14.081 102.015 19.114 99.4859 26.4171C98.954 27.9608 99.9139 29.6212 101.522 29.8936C102.794 30.1011 104.013 29.3617 104.441 28.1424C106.244 22.9277 111.16 19.3346 116.868 19.3346C119.229 19.3346 121.577 19.9702 123.6 21.1895C125.65 22.4089 127.077 24.3287 129.36 25.1978C130.462 25.6129 131.617 25.8334 132.784 25.8334C135.262 25.8334 137.74 24.8865 139.633 22.9926C143.408 19.2178 143.408 13.0822 139.633 9.30741C132.927 2.73074 123.821 -0.628943 114.339 0.0974749C97.5012 1.38168 84.3608 15.6376 84.3738 32.5139C84.3738 50.4149 98.954 64.9692 116.868 64.9692C125.157 64.9692 133.044 61.856 139.115 56.1743L139.231 56.0706L139.361 55.9408L139.491 55.8241C141.346 53.9302 142.267 51.4915 142.267 49.0399C142.267 46.5623 141.333 44.0717 139.439 42.1908C139.037 41.7887 138.622 41.4255 138.168 41.1012Z" fill="url(#paint0_linear_1_773)"/>
<path d="M66.2912 0.00688026C60.3112 -0.00609148 55.4338 5.14369 55.4338 11.1237V15.4562V28.8301C55.4338 29.3879 54.9798 29.8419 54.422 29.8419H48.4161C45.6142 29.8419 43.3312 32.1119 43.3312 34.9268V40.8419V46.2122V47.678V51.816V54.1509C43.3312 57.3679 40.5682 59.9493 37.2863 59.638C34.4326 59.3656 32.3052 56.862 32.3052 53.9953V11.0069C32.3052 8.03639 34.5753 5.48096 37.5328 5.3253C39.2062 5.24747 40.7887 5.90902 41.9173 7.15431C42.8642 8.20502 43.3312 9.593 43.3312 11.0069V22.9928C43.3312 24.4586 44.5246 25.652 45.9904 25.652C47.4562 25.652 48.6496 24.4586 48.6496 22.9928V11.0718C48.6496 8.23097 47.6378 5.45501 45.6791 3.39251C43.5517 1.14839 40.646 -0.0579785 37.5717 0.00688026C31.6566 0.136598 26.9998 5.14369 26.9998 11.0588V54.138C26.9998 60.2477 32.0847 65.1899 38.2463 64.9564C44.1095 64.7359 48.6496 59.7288 48.6496 53.8656V51.8031V39.3242V36.1591C48.6496 35.6013 49.1036 35.1473 49.6614 35.1473H53.1638H55.6673C58.4692 35.1473 60.7522 32.8773 60.7522 30.0624V18.6473V15.4433V11.0199C60.7522 8.02342 63.0612 5.42907 66.0577 5.3253C67.6013 5.27341 69.0671 5.84417 70.1567 6.93379C71.1945 7.9845 71.7652 9.35951 71.7652 10.8383V54.1509C71.7652 57.3679 69.0023 59.9493 65.7204 59.638C62.8666 59.3656 60.7393 56.8491 60.7393 53.9823V41.9964C60.7393 40.5306 59.5459 39.3372 58.0801 39.3372C56.6142 39.3372 55.4208 40.5306 55.4208 41.9964V54.1509C55.4208 60.2606 60.5058 65.2029 66.6673 64.9694C72.5306 64.7489 77.0707 59.7547 77.0707 53.8915V10.8383C77.0707 7.94559 75.9421 5.23449 73.9056 3.18496C71.882 1.14839 69.1709 0.019852 66.2912 0.00688026Z" fill="url(#paint1_linear_1_773)"/>
<defs>
<linearGradient id="paint0_linear_1_773" x1="111.771" y1="-6.59011" x2="118.482" y2="120.921" gradientUnits="userSpaceOnUse">
<stop stop-color="#F04E3E"/>
<stop offset="0.7143" stop-color="#A70E13"/>
<stop offset="1" stop-color="#710000"/>
</linearGradient>
<linearGradient id="paint1_linear_1_773" x1="50.1537" y1="-3.34683" x2="56.8649" y2="124.164" gradientUnits="userSpaceOnUse">
<stop stop-color="#F04E3E"/>
<stop offset="0.7143" stop-color="#A70E13"/>
<stop offset="1" stop-color="#710000"/>
</linearGradient>
</defs>
</svg>
