<svg width="100" height="87" viewBox="0 0 100 87" fill="none" xmlns="http://www.w3.org/2000/svg">
<g clip-path="url(#clip0_1_31)">
<path d="M17.0823 58.8054C17.0324 58.089 17.0574 57.0636 17.6514 56.3437C18.9534 54.7635 17.8862 54.0155 16.755 53.1763C15.7056 52.3932 14.9479 51.9928 14.0194 53.5239C12.7743 55.5712 10.1063 56.1084 7.87589 54.9918C6.03319 54.0682 4.22252 53.0709 2.45808 52.0069C0.103131 50.5847 -0.69371 48.0002 0.647402 45.6193C5.64545 36.7384 10.7004 27.8857 15.8016 19.061C17.157 16.7188 19.8463 16.0305 22.2902 17.249C24.0831 18.1445 25.8333 19.1277 27.5621 20.1356C29.5009 21.2663 30.4116 23.0081 29.9278 25.1712C29.6538 26.4003 30.1803 26.618 31.1159 26.9411C33.0689 27.6223 34.7408 27.7874 36.6974 26.4881C38.9314 25.0027 41.7986 25.2063 44.431 24.9043C46.7255 24.641 49.0342 24.5216 51.3322 24.2898C53.3243 24.0896 55.2168 24.4303 57.0808 25.108C58.6887 25.6909 60.3998 26.0526 61.9152 26.8041C64.4089 28.0472 66.7923 27.7312 69.2611 26.8743C70.0651 26.5934 70.2999 26.3055 70.1327 25.3889C69.6667 22.8465 70.4955 21.2663 72.7509 19.9881C74.2876 19.1172 75.8351 18.2604 77.4038 17.4387C80.2319 15.9603 82.7932 16.6485 84.4047 19.3174C85.3438 20.873 86.2189 22.4638 87.126 24.0335C87.8019 25.2028 87.8659 26.3125 86.5568 27.0499C85.1944 27.819 84.3406 27.0289 83.6932 25.8981C82.8466 24.4268 81.9786 22.9659 81.1711 21.4735C80.673 20.5499 80.0612 20.3744 79.1505 20.8906C77.7169 21.7017 76.2619 22.4813 74.8034 23.2539C73.8679 23.749 73.7611 24.3846 74.2663 25.273C79.1256 33.7641 83.9778 42.2587 88.8122 50.7638C89.3422 51.6979 89.9932 51.7786 90.8683 51.287C92.2557 50.5074 93.643 49.7279 95.066 49.008C96.0762 48.4953 96.2826 47.8667 95.6992 46.894C94.7351 45.2857 93.8173 43.6493 92.896 42.0164C92.2308 40.8365 91.9604 39.6601 93.4047 38.8524C94.8027 38.0728 95.6102 38.9402 96.247 40.0393C97.2751 41.8127 98.3209 43.579 99.2921 45.384C100.711 48.0247 99.9609 50.6479 97.3533 52.1684C95.7774 53.0885 94.1624 53.9488 92.5438 54.7951C89.8758 56.1892 87.3964 55.6484 85.7529 53.1517C85.0877 52.1403 84.5968 52.3335 83.7928 52.8391C81.7438 54.1314 81.6157 54.4404 82.5228 56.5755C84.0205 60.0836 82.2632 63.9815 78.5493 65.2246C77.6422 65.5266 77.3042 65.8918 77.2082 66.8926C76.9414 69.6387 75.369 71.5384 72.7011 72.3988C71.8473 72.6762 71.5947 73.0238 71.4916 73.9123C71.0362 77.8488 67.8453 80.2929 63.918 79.7521C63.0251 79.6292 62.769 79.8574 62.4275 80.651C60.6133 84.8579 55.8856 86.0098 52.1255 83.2321C49.9662 81.6378 49.9626 81.6343 47.8745 83.2777C46.8998 84.0433 45.9606 84.8509 44.961 85.5813C40.7456 88.6575 35.2139 86.4979 34.4135 81.4025C34.2357 80.2613 33.8515 79.7696 32.738 79.3798C30.1483 78.4774 28.8108 76.4547 28.544 73.814C28.4586 72.9817 28.2167 72.6902 27.4127 72.4269C24.6167 71.5139 22.9945 69.5509 22.8202 66.6222C22.7633 65.6776 22.2653 65.495 21.5645 65.2562C18.5977 64.2308 17.0609 62.0782 17.0823 58.8054ZM39.5148 51.4661C44.6266 51.4415 47.7535 56.1295 45.797 60.5717C45.4199 61.425 45.4092 61.7867 46.2239 62.3591C48.3903 63.8831 49.2191 66.0358 48.8029 68.6414C48.561 70.1584 49.1231 71.9352 50.112 73.2977C50.5852 73.9509 51.2148 74.7375 51.2006 75.4504C51.1472 78.0068 53.0184 79.0779 54.7117 80.2964C55.9283 81.1673 57.5362 80.9425 58.3864 79.9136C59.3575 78.7372 59.2935 77.473 58.0876 76.3212C57.28 75.5522 56.3587 74.899 55.4907 74.1932C54.5124 73.3961 53.9966 72.4585 54.9073 71.3277C55.8571 70.1443 56.9208 70.3656 57.9915 71.2329C59.6386 72.5673 61.2927 73.9017 62.9753 75.194C64.416 76.3002 65.9528 76.2229 66.9453 75.0746C68.0303 73.8175 67.8382 72.3777 66.3192 71.1135C64.69 69.758 63.0038 68.4658 61.3354 67.156C60.2718 66.3202 59.7275 65.3018 60.6986 64.157C61.6413 63.0474 62.769 63.3072 63.8255 64.1535C65.4334 65.4423 67.0485 66.7275 68.6848 67.9847C70.1931 69.1435 71.7797 69.0733 72.7758 67.8548C73.7967 66.6046 73.5299 65.1333 72.0109 63.9042C70.5453 62.7173 69.0655 61.5479 67.5678 60.4031C66.4793 59.5709 66.0026 58.5631 66.8813 57.4007C67.7991 56.1892 68.9125 56.4807 69.969 57.327C71.3955 58.4647 72.8291 59.6025 74.2663 60.7297C75.9845 62.0747 77.3398 62.0957 78.4746 60.8035C79.524 59.6095 79.2216 58.0012 77.6813 56.7089C76.9592 56.1049 76.2086 55.5325 75.4687 54.9461C69.6062 50.2897 63.7224 45.6684 57.5219 41.4545C54.6298 39.488 51.5279 38.4977 47.9705 39.2668C45.9428 39.7057 43.876 39.8919 41.7879 39.6531C37.6329 39.1755 34.6199 36.6717 33.5313 32.7493C33.2254 31.6431 28.5368 29.6204 27.5693 30.2069C27.3416 30.3438 27.1993 30.6493 27.057 30.8986C23.8341 36.5453 20.6289 42.2025 17.3811 47.8351C17.004 48.4883 17.0075 48.85 17.7119 49.2222C18.9214 49.8578 20.0242 50.6655 20.9206 51.6908C21.4435 52.2878 21.8099 52.2071 22.3578 51.7505C23.7629 50.5847 25.1894 49.4434 26.6443 48.3338C29.7961 45.9353 34.1432 46.3918 36.1389 49.626C37.1207 51.1887 37.8713 52.2071 39.5148 51.4661ZM49.9662 35.0915C54.1567 35.1477 57.401 36.5874 60.4105 38.6909C66.024 42.6098 71.488 46.7219 76.7742 51.0588C77.9659 52.035 78.7556 52.4072 79.8477 51.0131C80.3707 50.3459 81.1817 49.8227 81.9679 49.4575C83.1276 48.9202 82.9817 48.3478 82.4446 47.4207C79.3888 42.1498 76.3366 36.8719 73.3983 31.5342C72.6833 30.2385 71.9825 29.8838 70.6342 30.4632C67.0129 32.0224 63.4769 31.8222 59.8555 30.2104C57.6713 29.2412 55.3769 28.0718 52.9365 28.1701C48.5681 28.3457 44.182 28.5915 39.8812 29.4589C36.9393 30.0523 36.4661 31.5974 38.412 33.873C39.0772 34.649 39.9061 35.1758 40.895 35.4848C42.6452 36.0291 44.4061 35.8992 46.1741 35.6428C47.5792 35.4427 48.9844 35.2355 49.9662 35.0915ZM9.9178 51.5925C10.8712 51.6031 11.0882 51.0061 11.3727 50.5074C12.5111 48.5304 13.6388 46.5428 14.77 44.5623C18.3664 38.259 21.9416 31.9451 25.5771 25.6663C26.2851 24.4443 26.2388 23.6682 24.8479 23.0432C23.6704 22.5129 22.525 21.8773 21.4471 21.168C20.074 20.2655 19.3163 20.6061 18.5336 22.0002C14.4463 29.3009 10.2664 36.5523 6.12568 43.8249C3.59643 48.267 3.59643 48.2741 8.19249 50.7638C8.81147 51.0904 9.37352 51.5609 9.9178 51.5925ZM42.446 57.8888C42.414 56.881 42.0333 56.0452 41.0693 55.6168C40.0235 55.1498 38.9989 55.227 38.074 55.9574C34.7444 58.5912 31.4076 61.2143 28.0886 63.8586C26.5376 65.0946 26.2424 66.5274 27.2206 67.7951C28.2238 69.0979 29.8317 69.1751 31.4361 67.925C34.691 65.3896 37.9175 62.8156 41.1618 60.2662C41.9444 59.6516 42.4816 58.9248 42.446 57.8888ZM33.5135 53.0674C33.5171 52.3721 33.0831 51.575 32.1867 51.0798C31.155 50.5109 30.1163 50.5952 29.1914 51.3116C26.8187 53.1587 24.4459 55.0058 22.123 56.9056C20.7854 58.0012 20.5862 59.6411 21.5289 60.7613C22.5748 61.9974 23.9586 62.1133 25.4526 60.9685C27.7898 59.1741 30.0807 57.3199 32.3823 55.4834C33.0475 54.9531 33.4993 54.2859 33.5135 53.0674ZM42.2824 64.9156C42.0156 64.9998 41.6314 65.0385 41.3575 65.2281C38.4476 67.2332 35.6479 69.3928 33.0653 71.7878C32.0195 72.757 32.1938 74.0703 33.1436 75.1062C34.0969 76.1457 35.3705 76.3739 36.5053 75.5311C39.1483 73.5646 41.731 71.5103 44.2709 69.4069C45.178 68.6554 45.1887 67.5071 44.7654 66.4817C44.3492 65.4774 43.4385 65.042 42.2824 64.9156ZM44.5164 74.748C44.6337 74.734 44.214 74.6708 43.9472 74.8429C42.076 76.0614 40.2547 77.3747 38.7428 78.9971C37.8606 79.9452 37.9993 81.227 38.8638 82.2067C39.7175 83.1759 40.9092 83.5306 42.0511 82.7931C43.8262 81.6483 45.5195 80.3666 46.9816 78.8391C47.7535 78.0314 47.7571 77.0025 47.2733 76.0684C46.8251 75.201 46.0674 74.6392 44.5164 74.748Z" fill="white"/>
<path d="M51.9725 6.9354C51.9761 8.45241 51.9939 9.97294 51.969 11.4899C51.9476 12.7787 51.3713 13.6461 49.952 13.611C48.6286 13.5794 48.0808 12.726 48.0737 11.5251C48.0524 8.37164 48.0523 5.21822 48.0773 2.06831C48.0879 0.839253 48.7496 0.0105141 50.0018 -2.06683e-05C51.2539 -0.0105555 51.9334 0.800625 51.9619 2.0332C51.9974 3.66609 51.969 5.3025 51.9725 6.9354Z" fill="white"/>
<path d="M31.9661 5.7941C32.674 5.77303 33.2112 6.27519 33.6416 6.94941C35.2424 9.46372 36.8645 11.964 38.4298 14.4959C39.1234 15.6161 39.1626 16.7327 37.8713 17.5088C36.6831 18.2217 35.8507 17.6036 35.2211 16.6344C33.5669 14.085 31.9056 11.5391 30.3226 8.94752C29.3479 7.35325 30.1341 5.77654 31.9661 5.7941Z" fill="white"/>
<path d="M61.2073 15.8409C61.161 15.1912 61.4349 14.7453 61.7195 14.2993C63.2243 11.9325 64.7397 9.57266 66.2231 7.1953C66.9701 6.00136 67.9946 5.27446 69.2931 6.09266C70.6164 6.92842 70.2784 8.13993 69.5172 9.30227C67.9199 11.7463 66.3725 14.2255 64.7966 16.6837C64.2879 17.4738 63.5871 18.0391 62.5982 17.7196C61.6982 17.4281 61.0756 16.8101 61.2073 15.8409Z" fill="white"/>
<path d="M89.9006 31.1058C91.0923 31.1339 91.8144 31.7063 91.8571 32.9073C91.8998 34.1118 91.1777 34.7895 90.0215 34.8352C88.8476 34.8808 88.0792 34.1925 88.0472 33.0337C88.0152 31.8854 88.6982 31.2006 89.9006 31.1058Z" fill="white"/>
</g>
<defs>
<clipPath id="clip0_1_31">
<rect width="100" height="87" fill="white"/>
</clipPath>
</defs>
</svg>
