<svg width="95" height="95" viewBox="0 0 95 95" fill="none" xmlns="http://www.w3.org/2000/svg">
<path d="M78.4312 28.1515C80.1743 28.1515 81.5399 28.1459 82.9055 28.1544C85.8127 28.1713 87.3741 29.7045 87.377 32.6039C87.3855 44.2014 87.3798 55.799 87.3798 67.3965C87.3798 73.1019 87.3827 78.8045 87.3798 84.51C87.377 87.7969 85.9064 89.2961 82.6585 89.2961C61.4594 89.2989 40.2632 89.3046 19.0641 89.2932C12.2249 89.2904 7.60294 84.6514 7.6001 77.8371C7.6001 58.9331 7.6001 40.0291 7.60294 21.1251C7.60294 13.8724 11.9694 9.52758 19.2487 9.52475C19.6745 9.52475 20.1004 9.5191 20.5262 9.52475C23.3 9.56718 24.8955 11.1541 24.9069 13.9516C24.9267 18.2427 24.9466 22.531 24.887 26.8221C24.8728 27.863 25.1283 28.1798 26.2128 28.1742C36.8592 28.1317 47.5056 28.1431 58.152 28.1629C58.8674 28.1629 59.3898 27.9705 59.9008 27.4585C65.1956 22.135 70.5216 16.8454 75.8164 11.5218C78.488 8.83456 80.4412 8.81476 83.1582 11.5303C84.1263 12.4977 85.1199 13.4453 86.0568 14.441C87.8624 16.3645 87.8483 18.5793 86.0029 20.4632C83.8566 22.6554 81.6677 24.8109 79.5015 26.9833C79.2119 27.2775 78.945 27.5886 78.4312 28.1515ZM56.1817 30.8416C55.9716 30.8218 55.8012 30.7907 55.6337 30.7907C45.7454 30.7879 35.857 30.7992 25.9658 30.7681C25.0261 30.7652 24.8955 31.1443 24.8983 31.9391C24.9267 36.4169 24.9125 40.8975 24.9125 45.3753C24.9125 52.116 24.9125 58.8596 24.9125 65.6003C24.9125 69.3115 23.5328 70.6693 19.7625 70.6721C19.1465 70.6721 18.5304 70.6551 17.9172 70.6891C12.875 70.9635 9.34326 75.6195 10.5044 80.448C11.3789 84.0828 14.709 86.6626 18.8114 86.6682C40.1042 86.6965 61.3941 86.6852 82.6869 86.6796C84.2626 86.6796 84.7651 86.2015 84.7679 84.6797C84.7764 67.3795 84.7764 50.0766 84.7679 32.7764C84.7679 31.2263 84.2995 30.8048 82.6982 30.7935C80.7592 30.7822 78.8173 30.8275 76.8782 30.7737C76.0549 30.7511 75.4701 31 74.8909 31.5884C71.0752 35.4523 67.2198 39.2767 63.39 43.1265C62.5695 43.9497 61.6496 44.6285 60.4942 44.7926C58.487 45.0783 56.4769 45.4291 54.4385 45.4319C48.5248 45.4432 42.6082 45.4489 36.6945 45.4206C35.8371 45.4177 35.434 45.5592 35.4454 46.5605C35.5021 50.6621 35.4851 54.7637 35.4539 58.8652C35.4482 59.6573 35.5731 60.0674 36.5157 60.0646C46.5006 60.0363 56.4826 60.042 66.4675 60.0618C67.2738 60.0646 67.5293 59.7987 67.5094 59.001C67.4611 57.1624 67.5094 55.3237 67.4924 53.4851C67.4839 52.6082 67.9665 52.0934 68.7529 52.0849C69.5393 52.0764 70.0447 52.5997 70.0645 53.4568C70.0674 53.6463 70.0731 53.833 70.0731 54.0226C70.0731 60.339 70.0816 66.6582 70.0674 72.9746C70.0617 75.0396 69.0908 75.9844 67.0126 75.9844C58.4955 75.99 49.9784 75.9815 41.4613 75.9957C40.4591 75.9985 39.5591 75.8429 39.562 74.652C39.5648 73.4018 40.567 73.3678 41.5095 73.3678C44.0164 73.3707 46.5261 73.3311 49.033 73.3876C49.9784 73.4103 50.2339 73.0935 50.214 72.177C50.1572 69.4445 50.1544 66.7091 50.2169 63.9738C50.2396 63.0036 49.9897 62.6868 48.9705 62.7009C44.9022 62.7575 40.831 62.766 36.7627 62.6981C35.6498 62.6783 35.4425 63.0602 35.451 64.07C35.4965 69.4445 35.4737 74.8189 35.4709 80.1934C35.4709 80.6177 35.4652 81.042 35.4397 81.4663C35.3942 82.2131 34.9428 82.5554 34.2302 82.578C33.5176 82.6006 33.0464 82.2442 32.9214 81.5483C32.8476 81.1354 32.8789 80.7026 32.8789 80.2783C32.876 69.9055 32.8874 59.5356 32.8647 49.1629C32.8618 47.9579 33.3956 46.3993 32.595 45.6497C31.9789 45.0726 30.443 45.4715 29.3159 45.4347C29.2676 45.4319 29.2222 45.4319 29.1739 45.4347C28.2087 45.4743 27.5585 44.985 27.5472 44.0685C27.5386 43.1916 28.2427 42.7956 29.0944 42.7475C29.472 42.7248 29.8525 42.7333 30.23 42.7333C36.4759 42.7333 42.7218 42.7333 48.9677 42.7333C51.4944 42.7333 51.5171 42.7333 51.6193 40.179C51.7443 37.0138 52.4114 34.1144 55.1965 32.1089C55.5855 31.8288 56.0255 31.4922 56.1817 30.8416ZM10.2092 71.6169C12.9971 68.8137 16.0775 67.8632 19.6007 68.016C22.0394 68.1206 22.2552 67.8265 22.2552 65.3768C22.2552 48.5123 22.2552 31.6506 22.2552 14.7861C22.2552 14.4099 22.2666 14.0308 22.2382 13.6574C22.1672 12.707 21.6278 12.229 20.688 12.1498C13.44 11.5246 10.1354 15.8383 10.1723 21.4617C10.2773 37.5229 10.2092 53.5869 10.2092 69.651C10.2092 70.1601 10.2092 70.6721 10.2092 71.6169ZM76.5461 26.1234C76.4155 25.9537 76.3218 25.7953 76.1969 25.6708C74.5303 23.9991 72.8553 22.3415 71.1973 20.6612C70.6976 20.1549 70.462 20.6245 70.1923 20.8932C65.7861 25.2974 61.3941 29.7158 56.9709 34.1002C56.4343 34.632 56.4627 34.946 56.9823 35.4467C58.4813 36.8836 59.9718 38.3319 61.3856 39.8509C62.0216 40.5326 62.3622 40.3884 62.9442 39.8C67.2567 35.4382 71.6061 31.1103 75.9413 26.7712C76.1429 26.5703 76.3275 26.3582 76.5461 26.1234ZM60.1421 62.7235C58.0157 62.7235 55.8864 62.7433 53.76 62.7122C53.0616 62.7009 52.7436 62.8678 52.7521 63.6457C52.789 66.5649 52.7862 69.4869 52.7521 72.4089C52.7436 73.1613 53.0247 73.3791 53.7458 73.3763C58.0015 73.3537 62.2572 73.3537 66.5129 73.3763C67.2255 73.3791 67.5208 73.184 67.5094 72.4231C67.4725 69.5039 67.4725 66.5819 67.5094 63.6598C67.5179 62.8989 67.2454 62.6981 66.5243 62.7094C64.3978 62.7462 62.2714 62.7235 60.1421 62.7235ZM79.3737 12.1809C78.3488 12.4213 77.8634 13.3746 77.1053 13.9799C76.6028 14.3816 76.671 14.6758 77.0997 15.0916C78.3488 16.3051 79.564 17.5582 80.7961 18.7886C82.3831 20.3727 82.3831 20.3727 83.9077 18.8084C84.9893 17.6968 85.0064 17.1791 83.9389 16.0844C82.8856 15.0067 81.804 13.9545 80.7421 12.888C80.3674 12.5118 79.9614 12.2092 79.3737 12.1809ZM80.3419 22.2C80.1516 21.9822 79.9841 21.7672 79.7911 21.5749C78.3006 20.0785 76.7647 18.6218 75.331 17.0745C74.5843 16.2683 74.1925 16.8255 73.7865 17.3177C73.3891 17.8014 72.3187 18.1098 73.3152 19.0517C74.8142 20.4717 76.2366 21.9737 77.7214 23.4079C77.9769 23.654 78.17 24.2961 78.6697 23.9538C79.3141 23.5069 79.8819 22.9411 80.3419 22.2ZM54.7707 37.2344C54.2909 38.6855 54.4158 40.2102 54.1716 41.6782C54.0751 42.2694 54.4215 42.6824 55.0659 42.6824C56.6359 42.6824 58.1803 42.4561 59.8383 42.145C58.1094 40.4704 56.4968 38.9061 54.7707 37.2344Z" fill="white" stroke="white" stroke-width="0.5"/>
</svg>
