<svg width="440" height="440" viewBox="0 0 440 440" fill="none" xmlns="http://www.w3.org/2000/svg">
<rect width="440" height="440" rx="20" fill="url(#paint0_linear_1_47)"/>
<path d="M57.9803 340.896C57.5749 340.896 57.2016 340.8 56.8603 340.608C56.5189 340.405 56.2469 340.133 56.0443 339.792C55.8523 339.451 55.7563 339.077 55.7563 338.672C55.7563 338.256 55.8523 337.877 56.0443 337.536C56.2469 337.195 56.5189 336.928 56.8603 336.736C57.2016 336.533 57.5749 336.432 57.9803 336.432C58.3963 336.432 58.7749 336.533 59.1163 336.736C59.4683 336.928 59.7403 337.195 59.9323 337.536C60.1349 337.877 60.2363 338.256 60.2363 338.672C60.2363 339.077 60.1349 339.451 59.9323 339.792C59.7403 340.133 59.4683 340.405 59.1163 340.608C58.7749 340.8 58.3963 340.896 57.9803 340.896ZM77.792 344L75.376 340.24L73.184 344H70.656L74.176 338.368L70.608 332.832H73.184L75.6 336.576L77.776 332.832H80.304L76.8 338.448L80.368 344H77.792ZM81.4967 339.536C81.4967 338.64 81.6727 337.845 82.0247 337.152C82.3874 336.459 82.8728 335.925 83.4808 335.552C84.0994 335.179 84.7874 334.992 85.5448 334.992C86.2061 334.992 86.7821 335.125 87.2728 335.392C87.7741 335.659 88.1741 335.995 88.4728 336.4V335.136H90.7288V344H88.4728V342.704C88.1848 343.12 87.7848 343.467 87.2728 343.744C86.7714 344.011 86.1901 344.144 85.5288 344.144C84.7821 344.144 84.0994 343.952 83.4808 343.568C82.8728 343.184 82.3874 342.645 82.0247 341.952C81.6727 341.248 81.4967 340.443 81.4967 339.536ZM88.4728 339.568C88.4728 339.024 88.3661 338.56 88.1528 338.176C87.9394 337.781 87.6514 337.483 87.2888 337.28C86.9261 337.067 86.5368 336.96 86.1208 336.96C85.7048 336.96 85.3208 337.061 84.9688 337.264C84.6168 337.467 84.3288 337.765 84.1048 338.16C83.8914 338.544 83.7848 339.003 83.7848 339.536C83.7848 340.069 83.8914 340.539 84.1048 340.944C84.3288 341.339 84.6168 341.643 84.9688 341.856C85.3314 342.069 85.7154 342.176 86.1208 342.176C86.5368 342.176 86.9261 342.075 87.2888 341.872C87.6514 341.659 87.9394 341.36 88.1528 340.976C88.3661 340.581 88.4728 340.112 88.4728 339.568ZM86.4248 333.168L84.0408 334.512V332.88L86.4248 331.584L88.7928 332.88V334.512L86.4248 333.168ZM101.397 335.136L95.9085 348.192H93.5245L95.4445 343.776L91.8925 335.136H94.4045L96.6925 341.328L99.0125 335.136H101.397ZM105.84 339.536C105.84 338.64 106.016 337.845 106.368 337.152C106.731 336.459 107.222 335.925 107.841 335.552C108.459 335.179 109.147 334.992 109.905 334.992C110.481 334.992 111.03 335.12 111.553 335.376C112.075 335.621 112.491 335.952 112.801 336.368V332.16H115.073V344H112.801V342.688C112.523 343.125 112.134 343.477 111.633 343.744C111.131 344.011 110.55 344.144 109.889 344.144C109.142 344.144 108.459 343.952 107.841 343.568C107.222 343.184 106.731 342.645 106.368 341.952C106.016 341.248 105.84 340.443 105.84 339.536ZM112.817 339.568C112.817 339.024 112.71 338.56 112.497 338.176C112.283 337.781 111.995 337.483 111.633 337.28C111.27 337.067 110.881 336.96 110.465 336.96C110.049 336.96 109.665 337.061 109.312 337.264C108.961 337.467 108.673 337.765 108.449 338.16C108.235 338.544 108.129 339.003 108.129 339.536C108.129 340.069 108.235 340.539 108.449 340.944C108.673 341.339 108.961 341.643 109.312 341.856C109.675 342.069 110.059 342.176 110.465 342.176C110.881 342.176 111.27 342.075 111.633 341.872C111.995 341.659 112.283 341.36 112.497 340.976C112.71 340.581 112.817 340.112 112.817 339.568ZM129.052 334.128C128.967 334.565 128.85 334.976 128.7 335.36C128.551 335.744 128.343 336.091 128.076 336.4C127.82 336.699 127.479 336.955 127.052 337.168C126.626 337.371 126.082 337.52 125.42 337.616V344H123.596L123.276 342.88H123.132C122.951 343.179 122.716 343.424 122.428 343.616C122.151 343.797 121.842 343.931 121.5 344.016C121.17 344.112 120.823 344.16 120.46 344.16C119.842 344.16 119.298 344.048 118.828 343.824C118.359 343.6 117.996 343.253 117.74 342.784C117.484 342.315 117.356 341.707 117.356 340.96V335.264H119.74V340.368C119.74 340.987 119.852 341.456 120.076 341.776C120.3 342.096 120.658 342.256 121.148 342.256C121.874 342.256 122.37 342.011 122.636 341.52C122.903 341.019 123.036 340.304 123.036 339.376V335.264H125.42V336.176C125.687 336.091 125.906 335.947 126.076 335.744C126.247 335.531 126.375 335.275 126.46 334.976C126.546 334.667 126.588 334.325 126.588 333.952H128.94L129.052 334.128ZM121.244 347.36C120.882 347.36 120.572 347.275 120.316 347.104C120.071 346.933 119.948 346.629 119.948 346.192C119.948 345.744 120.071 345.435 120.316 345.264C120.572 345.104 120.882 345.024 121.244 345.024C121.596 345.024 121.9 345.104 122.156 345.264C122.412 345.435 122.54 345.744 122.54 346.192C122.54 346.629 122.412 346.933 122.156 347.104C121.9 347.275 121.596 347.36 121.244 347.36ZM134.329 335.008C135.385 335.008 136.238 335.344 136.889 336.016C137.539 336.677 137.865 337.605 137.865 338.8V344H135.625V339.104C135.625 338.4 135.449 337.861 135.097 337.488C134.745 337.104 134.265 336.912 133.657 336.912C133.038 336.912 132.547 337.104 132.185 337.488C131.833 337.861 131.657 338.4 131.657 339.104V344H129.417V335.136H131.657V336.24C131.955 335.856 132.334 335.557 132.793 335.344C133.262 335.12 133.774 335.008 134.329 335.008ZM143.467 334.992C144.128 334.992 144.709 335.125 145.211 335.392C145.712 335.648 146.107 335.984 146.395 336.4V335.136H148.651V344.064C148.651 344.885 148.485 345.616 148.155 346.256C147.824 346.907 147.328 347.419 146.667 347.792C146.005 348.176 145.205 348.368 144.267 348.368C143.008 348.368 141.973 348.075 141.163 347.488C140.363 346.901 139.909 346.101 139.803 345.088H142.027C142.144 345.493 142.395 345.813 142.779 346.048C143.173 346.293 143.648 346.416 144.203 346.416C144.853 346.416 145.381 346.219 145.787 345.824C146.192 345.44 146.395 344.853 146.395 344.064V342.688C146.107 343.104 145.707 343.451 145.195 343.728C144.693 344.005 144.117 344.144 143.467 344.144C142.72 344.144 142.037 343.952 141.419 343.568C140.8 343.184 140.309 342.645 139.947 341.952C139.595 341.248 139.419 340.443 139.419 339.536C139.419 338.64 139.595 337.845 139.947 337.152C140.309 336.459 140.795 335.925 141.403 335.552C142.021 335.179 142.709 334.992 143.467 334.992ZM146.395 339.568C146.395 339.024 146.288 338.56 146.075 338.176C145.861 337.781 145.573 337.483 145.211 337.28C144.848 337.067 144.459 336.96 144.043 336.96C143.627 336.96 143.243 337.061 142.891 337.264C142.539 337.467 142.251 337.765 142.027 338.16C141.813 338.544 141.707 339.003 141.707 339.536C141.707 340.069 141.813 340.539 142.027 340.944C142.251 341.339 142.539 341.643 142.891 341.856C143.253 342.069 143.637 342.176 144.043 342.176C144.459 342.176 144.848 342.075 145.211 341.872C145.573 341.659 145.861 341.36 146.075 340.976C146.288 340.581 146.395 340.112 146.395 339.568ZM164.267 334.56H163.307V344H161.035V342.688C160.758 343.125 160.368 343.477 159.867 343.744C159.366 344.011 158.784 344.144 158.123 344.144C157.376 344.144 156.694 343.952 156.075 343.568C155.456 343.184 154.966 342.645 154.603 341.952C154.251 341.248 154.075 340.443 154.075 339.536C154.075 338.64 154.251 337.845 154.603 337.152C154.966 336.459 155.456 335.925 156.075 335.552C156.694 335.179 157.382 334.992 158.139 334.992C158.715 334.992 159.264 335.12 159.787 335.376C160.31 335.621 160.726 335.952 161.035 336.368V334.56H159.819V333.376H161.035V332.16H163.307V333.376H164.267V334.56ZM158.699 342.176C159.115 342.176 159.504 342.075 159.867 341.872C160.23 341.659 160.518 341.36 160.731 340.976C160.944 340.581 161.051 340.112 161.051 339.568C161.051 339.024 160.944 338.56 160.731 338.176C160.518 337.781 160.23 337.483 159.867 337.28C159.504 337.067 159.115 336.96 158.699 336.96C158.283 336.96 157.899 337.061 157.547 337.264C157.195 337.467 156.907 337.765 156.683 338.16C156.47 338.544 156.363 339.003 156.363 339.536C156.363 340.069 156.47 340.539 156.683 340.944C156.907 341.339 157.195 341.643 157.547 341.856C157.91 342.069 158.294 342.176 158.699 342.176ZM166.724 334.08C166.33 334.08 165.999 333.957 165.732 333.712C165.476 333.456 165.348 333.141 165.348 332.768C165.348 332.395 165.476 332.085 165.732 331.84C165.999 331.584 166.33 331.456 166.724 331.456C167.119 331.456 167.444 331.584 167.7 331.84C167.967 332.085 168.1 332.395 168.1 332.768C168.1 333.141 167.967 333.456 167.7 333.712C167.444 333.957 167.119 334.08 166.724 334.08ZM167.828 335.136V344H165.588V335.136H167.828ZM170.954 334.096C171.135 333.893 171.322 333.669 171.514 333.424C171.706 333.168 171.898 332.912 172.09 332.656C172.292 332.389 172.474 332.139 172.634 331.904H175.098C175.268 332.139 175.45 332.389 175.642 332.656C175.834 332.912 176.026 333.168 176.218 333.424C176.42 333.669 176.607 333.893 176.778 334.096V334.304H175.514C175.247 334.123 174.975 333.925 174.698 333.712C174.42 333.488 174.143 333.253 173.866 333.008C173.599 333.253 173.322 333.488 173.034 333.712C172.756 333.925 172.484 334.123 172.218 334.304H170.954V334.096ZM170.458 332.784C170.159 332.56 169.844 332.315 169.514 332.048C169.194 331.771 168.916 331.477 168.681 331.168V331.008H170.57C170.74 331.349 170.911 331.643 171.082 331.888C171.252 332.123 171.439 332.352 171.642 332.576V332.784H170.458ZM173.786 335.104C174.596 335.104 175.29 335.259 175.866 335.568C176.452 335.877 176.906 336.325 177.226 336.912C177.546 337.499 177.706 338.219 177.706 339.072V340.224H172.074C172.095 340.896 172.292 341.424 172.666 341.808C173.05 342.192 173.578 342.384 174.25 342.384C174.815 342.384 175.327 342.331 175.786 342.224C176.244 342.107 176.719 341.931 177.21 341.696V343.536C176.783 343.749 176.33 343.904 175.85 344C175.38 344.107 174.81 344.16 174.138 344.16C173.263 344.16 172.49 344 171.818 343.68C171.146 343.349 170.618 342.853 170.234 342.192C169.85 341.531 169.658 340.699 169.658 339.696C169.658 338.672 169.828 337.824 170.17 337.152C170.522 336.469 171.007 335.957 171.626 335.616C172.244 335.275 172.964 335.104 173.786 335.104ZM173.802 336.8C173.343 336.8 172.959 336.949 172.65 337.248C172.351 337.547 172.175 338.011 172.122 338.64H175.466C175.466 338.288 175.402 337.973 175.274 337.696C175.156 337.419 174.975 337.2 174.73 337.04C174.484 336.88 174.175 336.8 173.802 336.8ZM187.863 335.136V344H185.607V342.88C185.319 343.264 184.94 343.568 184.471 343.792C184.012 344.005 183.511 344.112 182.967 344.112C182.273 344.112 181.66 343.968 181.127 343.68C180.593 343.381 180.172 342.949 179.863 342.384C179.564 341.808 179.415 341.125 179.415 340.336V335.136H181.655V340.016C181.655 340.72 181.831 341.264 182.183 341.648C182.535 342.021 183.015 342.208 183.623 342.208C184.241 342.208 184.727 342.021 185.079 341.648C185.431 341.264 185.607 340.72 185.607 340.016V335.136H187.863ZM199.133 344L196.125 340.224V344H193.885V332.16H196.125V338.896L199.101 335.136H202.013L198.109 339.584L202.045 344H199.133ZM208.221 335.008C208.893 335.008 209.49 335.157 210.013 335.456C210.536 335.744 210.941 336.176 211.229 336.752C211.528 337.317 211.677 338 211.677 338.8V344H209.437V339.104C209.437 338.4 209.261 337.861 208.909 337.488C208.557 337.104 208.077 336.912 207.469 336.912C206.85 336.912 206.36 337.104 205.997 337.488C205.645 337.861 205.469 338.4 205.469 339.104V344H203.229V332.16H205.469V336.24C205.757 335.856 206.141 335.557 206.621 335.344C207.101 335.12 207.634 335.008 208.221 335.008ZM217.743 344.144C216.89 344.144 216.122 343.957 215.439 343.584C214.756 343.2 214.218 342.661 213.823 341.968C213.439 341.275 213.247 340.475 213.247 339.568C213.247 338.661 213.444 337.861 213.839 337.168C214.244 336.475 214.794 335.941 215.487 335.568C216.18 335.184 216.954 334.992 217.807 334.992C218.66 334.992 219.434 335.184 220.127 335.568C220.82 335.941 221.364 336.475 221.759 337.168C222.164 337.861 222.367 338.661 222.367 339.568C222.367 340.475 222.159 341.275 221.743 341.968C221.338 342.661 220.783 343.2 220.079 343.584C219.386 343.957 218.607 344.144 217.743 344.144ZM217.743 342.192C218.148 342.192 218.527 342.096 218.879 341.904C219.242 341.701 219.53 341.403 219.743 341.008C219.956 340.613 220.063 340.133 220.063 339.568C220.063 338.725 219.839 338.08 219.391 337.632C218.954 337.173 218.415 336.944 217.775 336.944C217.135 336.944 216.596 337.173 216.159 337.632C215.732 338.08 215.519 338.725 215.519 339.568C215.519 340.411 215.727 341.061 216.143 341.52C216.57 341.968 217.103 342.192 217.743 342.192ZM227.738 335.088C228.912 335.088 229.808 335.344 230.426 335.856C231.056 336.357 231.37 337.131 231.37 338.176V344H229.706L229.242 342.816H229.178C228.933 343.125 228.677 343.381 228.41 343.584C228.154 343.787 227.856 343.931 227.514 344.016C227.184 344.112 226.773 344.16 226.282 344.16C225.77 344.16 225.306 344.064 224.89 343.872C224.485 343.669 224.165 343.365 223.93 342.96C223.696 342.544 223.578 342.021 223.578 341.392C223.578 340.464 223.904 339.781 224.554 339.344C225.205 338.896 226.181 338.651 227.482 338.608L229.002 338.56V338.176C229.002 337.717 228.88 337.381 228.634 337.168C228.4 336.955 228.069 336.848 227.642 336.848C227.216 336.848 226.8 336.912 226.394 337.04C225.989 337.157 225.584 337.307 225.178 337.488L224.394 335.872C224.864 335.627 225.381 335.435 225.946 335.296C226.522 335.157 227.12 335.088 227.738 335.088ZM228.074 339.984C227.306 340.005 226.773 340.144 226.474 340.4C226.176 340.656 226.026 340.992 226.026 341.408C226.026 341.771 226.133 342.032 226.346 342.192C226.56 342.341 226.837 342.416 227.178 342.416C227.69 342.416 228.122 342.267 228.474 341.968C228.826 341.659 229.002 341.227 229.002 340.672V339.952L228.074 339.984ZM229.674 332.384C229.674 332.779 229.568 333.109 229.354 333.376C229.141 333.632 228.826 333.813 228.41 333.92L228.33 334.48H226.97L226.794 333.328C227.189 333.264 227.456 333.168 227.594 333.04C227.733 332.901 227.802 332.736 227.802 332.544C227.802 332.373 227.749 332.245 227.642 332.16C227.536 332.075 227.392 332.032 227.21 332.032C227.008 332.032 226.816 332.048 226.634 332.08C226.464 332.112 226.293 332.155 226.122 332.208V330.896C226.272 330.843 226.474 330.8 226.73 330.768C226.986 330.736 227.242 330.72 227.498 330.72C228.224 330.72 228.768 330.864 229.13 331.152C229.493 331.44 229.674 331.851 229.674 332.384ZM238.579 335.008C239.635 335.008 240.488 335.344 241.139 336.016C241.789 336.677 242.115 337.605 242.115 338.8V344H239.875V339.104C239.875 338.4 239.699 337.861 239.347 337.488C238.995 337.104 238.515 336.912 237.907 336.912C237.288 336.912 236.797 337.104 236.435 337.488C236.083 337.861 235.907 338.4 235.907 339.104V344H233.667V335.136H235.907V336.24C236.205 335.856 236.584 335.557 237.043 335.344C237.512 335.12 238.024 335.008 238.579 335.008ZM245.237 344.112C244.831 344.112 244.495 343.989 244.229 343.744C243.973 343.488 243.845 343.173 243.845 342.8C243.845 342.427 243.973 342.117 244.229 341.872C244.495 341.616 244.831 341.488 245.237 341.488C245.631 341.488 245.957 341.616 246.213 341.872C246.469 342.117 246.597 342.427 246.597 342.8C246.597 343.173 246.469 343.488 246.213 343.744C245.957 343.989 245.631 344.112 245.237 344.112ZM57.9803 368.896C57.5749 368.896 57.2016 368.8 56.8603 368.608C56.5189 368.405 56.2469 368.133 56.0443 367.792C55.8523 367.451 55.7563 367.077 55.7563 366.672C55.7563 366.256 55.8523 365.877 56.0443 365.536C56.2469 365.195 56.5189 364.928 56.8603 364.736C57.2016 364.533 57.5749 364.432 57.9803 364.432C58.3963 364.432 58.7749 364.533 59.1163 364.736C59.4683 364.928 59.7403 365.195 59.9323 365.536C60.1349 365.877 60.2363 366.256 60.2363 366.672C60.2363 367.077 60.1349 367.451 59.9323 367.792C59.7403 368.133 59.4683 368.405 59.1163 368.608C58.7749 368.8 58.3963 368.896 57.9803 368.896ZM78.704 360.832V362.64H75.728V372H73.488V362.64H70.512V360.832H78.704ZM81.4744 362.08C81.0797 362.08 80.749 361.957 80.4824 361.712C80.2264 361.456 80.0984 361.141 80.0984 360.768C80.0984 360.395 80.2264 360.085 80.4824 359.84C80.749 359.584 81.0797 359.456 81.4744 359.456C81.869 359.456 82.1944 359.584 82.4504 359.84C82.717 360.085 82.8504 360.395 82.8504 360.768C82.8504 361.141 82.717 361.456 82.4504 361.712C82.1944 361.957 81.869 362.08 81.4744 362.08ZM82.5784 363.136V372H80.3384V363.136H82.5784ZM90.1835 362.304C89.9168 362.123 89.6448 361.925 89.3675 361.712C89.0902 361.488 88.8128 361.253 88.5355 361.008C88.2582 361.253 87.9808 361.488 87.7035 361.712C87.4262 361.925 87.1542 362.123 86.8875 362.304H85.6235V362.096C85.8048 361.893 85.9915 361.669 86.1835 361.424C86.3755 361.168 86.5675 360.912 86.7595 360.656C86.9622 360.389 87.1435 360.139 87.3035 359.904H89.7675C89.9382 360.139 90.1195 360.389 90.3115 360.656C90.5035 360.912 90.6955 361.168 90.8875 361.424C91.0902 361.669 91.2768 361.893 91.4475 362.096V362.304H90.1835ZM90.7595 360.576C90.9728 360.352 91.1595 360.123 91.3195 359.888C91.4902 359.643 91.6608 359.349 91.8315 359.008H93.7195V359.168C93.4848 359.477 93.2075 359.771 92.8875 360.048C92.5675 360.315 92.2528 360.56 91.9435 360.784H90.7595V360.576ZM88.5355 363.104C89.3462 363.104 90.0395 363.259 90.6155 363.568C91.2022 363.877 91.6555 364.325 91.9755 364.912C92.2955 365.499 92.4555 366.219 92.4555 367.072V368.224H86.8235C86.8448 368.896 87.0422 369.424 87.4155 369.808C87.7995 370.192 88.3275 370.384 88.9995 370.384C89.5648 370.384 90.0768 370.331 90.5355 370.224C90.9942 370.107 91.4688 369.931 91.9595 369.696V371.536C91.5328 371.749 91.0795 371.904 90.5995 372C90.1302 372.107 89.5595 372.16 88.8875 372.16C88.0128 372.16 87.2395 372 86.5675 371.68C85.8955 371.349 85.3675 370.853 84.9835 370.192C84.5995 369.531 84.4075 368.699 84.4075 367.696C84.4075 366.672 84.5782 365.824 84.9195 365.152C85.2715 364.469 85.7568 363.957 86.3755 363.616C86.9942 363.275 87.7142 363.104 88.5355 363.104ZM88.5515 364.8C88.0928 364.8 87.7088 364.949 87.3995 365.248C87.1008 365.547 86.9248 366.011 86.8715 366.64H90.2155C90.2155 366.288 90.1515 365.973 90.0235 365.696C89.9062 365.419 89.7248 365.2 89.4795 365.04C89.2342 364.88 88.9248 364.8 88.5515 364.8ZM99.1566 363.008C100.213 363.008 101.066 363.344 101.717 364.016C102.367 364.677 102.693 365.605 102.693 366.8V372H100.453V367.104C100.453 366.4 100.277 365.861 99.9246 365.488C99.5726 365.104 99.0926 364.912 98.4846 364.912C97.866 364.912 97.3753 365.104 97.0126 365.488C96.6606 365.861 96.4846 366.4 96.4846 367.104V372H94.2446V363.136H96.4846V364.24C96.7833 363.856 97.162 363.557 97.6206 363.344C98.09 363.12 98.602 363.008 99.1566 363.008ZM113.627 363.008C114.299 363.008 114.897 363.157 115.419 363.456C115.942 363.744 116.347 364.176 116.635 364.752C116.934 365.317 117.083 366 117.083 366.8V372H114.843V367.104C114.843 366.4 114.667 365.861 114.315 365.488C113.963 365.104 113.483 364.912 112.875 364.912C112.257 364.912 111.766 365.104 111.403 365.488C111.051 365.861 110.875 366.4 110.875 367.104V372H108.635V360.16H110.875V364.24C111.163 363.856 111.547 363.557 112.027 363.344C112.507 363.12 113.041 363.008 113.627 363.008ZM118.637 367.536C118.637 366.64 118.813 365.845 119.165 365.152C119.528 364.459 120.013 363.925 120.621 363.552C121.24 363.179 121.928 362.992 122.685 362.992C123.347 362.992 123.923 363.125 124.413 363.392C124.915 363.659 125.315 363.995 125.613 364.4V363.136H127.869V372H125.613V370.704C125.325 371.12 124.925 371.467 124.413 371.744C123.912 372.011 123.331 372.144 122.669 372.144C121.923 372.144 121.24 371.952 120.621 371.568C120.013 371.184 119.528 370.645 119.165 369.952C118.813 369.248 118.637 368.443 118.637 367.536ZM125.613 367.568C125.613 367.024 125.507 366.56 125.293 366.176C125.08 365.781 124.792 365.483 124.429 365.28C124.067 365.067 123.677 364.96 123.261 364.96C122.845 364.96 122.461 365.061 122.109 365.264C121.757 365.467 121.469 365.765 121.245 366.16C121.032 366.544 120.925 367.003 120.925 367.536C120.925 368.069 121.032 368.539 121.245 368.944C121.469 369.339 121.757 369.643 122.109 369.856C122.472 370.069 122.856 370.176 123.261 370.176C123.677 370.176 124.067 370.075 124.429 369.872C124.792 369.659 125.08 369.36 125.293 368.976C125.507 368.581 125.613 368.112 125.613 367.568ZM125.309 360.912V362.512L121.629 360.832V359.008L125.309 360.912ZM134.969 363.008C136.025 363.008 136.878 363.344 137.529 364.016C138.18 364.677 138.505 365.605 138.505 366.8V372H136.265V367.104C136.265 366.4 136.089 365.861 135.737 365.488C135.385 365.104 134.905 364.912 134.297 364.912C133.678 364.912 133.188 365.104 132.825 365.488C132.473 365.861 132.297 366.4 132.297 367.104V372H130.057V363.136H132.297V364.24C132.596 363.856 132.974 363.557 133.433 363.344C133.902 363.12 134.414 363.008 134.969 363.008ZM145.627 363.008C146.299 363.008 146.897 363.157 147.419 363.456C147.942 363.744 148.347 364.176 148.635 364.752C148.934 365.317 149.083 366 149.083 366.8V372H146.843V367.104C146.843 366.4 146.667 365.861 146.315 365.488C145.963 365.104 145.483 364.912 144.875 364.912C144.257 364.912 143.766 365.104 143.403 365.488C143.051 365.861 142.875 366.4 142.875 367.104V372H140.635V360.16H142.875V364.24C143.163 363.856 143.547 363.557 144.027 363.344C144.507 363.12 145.041 363.008 145.627 363.008ZM160.274 372L157.266 368.224V372H155.026V360.16H157.266V366.896L160.242 363.136H163.154L159.25 367.584L163.186 372H160.274ZM172.85 363.136L167.362 376.192H164.978L166.898 371.776L163.346 363.136H165.858L168.146 369.328L170.466 363.136H172.85ZM169.858 360.832L166.178 362.512V360.912L169.858 359.008V360.832ZM182.862 363.008C183.534 363.008 184.131 363.157 184.654 363.456C185.176 363.744 185.582 364.176 185.87 364.752C186.168 365.317 186.318 366 186.318 366.8V372H184.078V367.104C184.078 366.4 183.902 365.861 183.55 365.488C183.198 365.104 182.718 364.912 182.11 364.912C181.491 364.912 181 365.104 180.638 365.488C180.286 365.861 180.11 366.4 180.11 367.104V372H177.87V360.16H180.11V364.24C180.398 363.856 180.782 363.557 181.262 363.344C181.742 363.12 182.275 363.008 182.862 363.008ZM196.528 367.616C196.528 368.587 196.352 369.413 196 370.096C195.658 370.768 195.168 371.28 194.528 371.632C193.898 371.984 193.146 372.16 192.272 372.16C191.461 372.16 190.736 371.984 190.096 371.632C189.466 371.28 188.97 370.768 188.608 370.096C188.245 369.413 188.064 368.587 188.064 367.616C188.064 366.165 188.442 365.051 189.2 364.272C189.957 363.493 190.997 363.104 192.32 363.104C192.906 363.104 193.461 363.195 193.984 363.376C194.506 363.557 194.949 363.824 195.312 364.176C195.6 364.091 195.829 363.947 196 363.744C196.17 363.531 196.293 363.275 196.368 362.976C196.442 362.667 196.48 362.325 196.48 361.952H198.832L198.944 362.128C198.837 362.64 198.688 363.12 198.496 363.568C198.314 364.005 198.037 364.384 197.664 364.704C197.29 365.024 196.778 365.269 196.128 365.44C196.256 365.749 196.352 366.085 196.416 366.448C196.49 366.811 196.528 367.2 196.528 367.616ZM190.496 367.616C190.496 368.192 190.554 368.677 190.672 369.072C190.8 369.456 190.997 369.749 191.264 369.952C191.53 370.144 191.877 370.24 192.304 370.24C192.73 370.24 193.072 370.144 193.328 369.952C193.594 369.749 193.786 369.456 193.904 369.072C194.032 368.677 194.096 368.192 194.096 367.616C194.096 367.04 194.032 366.56 193.904 366.176C193.786 365.792 193.594 365.504 193.328 365.312C193.061 365.12 192.714 365.024 192.288 365.024C191.658 365.024 191.2 365.243 190.912 365.68C190.634 366.107 190.496 366.752 190.496 367.616ZM192.32 375.36C191.957 375.36 191.648 375.275 191.392 375.104C191.146 374.933 191.024 374.629 191.024 374.192C191.024 373.744 191.146 373.435 191.392 373.264C191.648 373.104 191.957 373.024 192.32 373.024C192.672 373.024 192.976 373.104 193.232 373.264C193.488 373.435 193.616 373.744 193.616 374.192C193.616 374.629 193.488 374.933 193.232 375.104C192.976 375.275 192.672 375.36 192.32 375.36ZM201.547 364.416C201.835 364.011 202.23 363.675 202.731 363.408C203.243 363.131 203.824 362.992 204.475 362.992C205.232 362.992 205.915 363.179 206.523 363.552C207.142 363.925 207.627 364.459 207.979 365.152C208.342 365.835 208.523 366.629 208.523 367.536C208.523 368.443 208.342 369.248 207.979 369.952C207.627 370.645 207.142 371.184 206.523 371.568C205.915 371.952 205.232 372.144 204.475 372.144C203.824 372.144 203.248 372.011 202.747 371.744C202.256 371.477 201.856 371.141 201.547 370.736V376.224H199.307V363.136H201.547V364.416ZM206.235 367.536C206.235 367.003 206.123 366.544 205.899 366.16C205.686 365.765 205.398 365.467 205.035 365.264C204.683 365.061 204.299 364.96 203.883 364.96C203.478 364.96 203.094 365.067 202.731 365.28C202.379 365.483 202.091 365.781 201.867 366.176C201.654 366.571 201.547 367.035 201.547 367.568C201.547 368.101 201.654 368.565 201.867 368.96C202.091 369.355 202.379 369.659 202.731 369.872C203.094 370.075 203.478 370.176 203.883 370.176C204.299 370.176 204.683 370.069 205.035 369.856C205.398 369.643 205.686 369.339 205.899 368.944C206.123 368.549 206.235 368.08 206.235 367.536ZM223.579 362.56H222.619V372H220.347V370.688C220.07 371.125 219.681 371.477 219.179 371.744C218.678 372.011 218.097 372.144 217.435 372.144C216.689 372.144 216.006 371.952 215.387 371.568C214.769 371.184 214.278 370.645 213.915 369.952C213.563 369.248 213.387 368.443 213.387 367.536C213.387 366.64 213.563 365.845 213.915 365.152C214.278 364.459 214.769 363.925 215.387 363.552C216.006 363.179 216.694 362.992 217.451 362.992C218.027 362.992 218.577 363.12 219.099 363.376C219.622 363.621 220.038 363.952 220.347 364.368V362.56H219.131V361.376H220.347V360.16H222.619V361.376H223.579V362.56ZM218.011 370.176C218.427 370.176 218.817 370.075 219.179 369.872C219.542 369.659 219.83 369.36 220.043 368.976C220.257 368.581 220.363 368.112 220.363 367.568C220.363 367.024 220.257 366.56 220.043 366.176C219.83 365.781 219.542 365.483 219.179 365.28C218.817 365.067 218.427 364.96 218.011 364.96C217.595 364.96 217.211 365.061 216.859 365.264C216.507 365.467 216.219 365.765 215.995 366.16C215.782 366.544 215.675 367.003 215.675 367.536C215.675 368.069 215.782 368.539 215.995 368.944C216.219 369.339 216.507 369.643 216.859 369.856C217.222 370.069 217.606 370.176 218.011 370.176ZM225.813 362.096C225.994 361.893 226.181 361.669 226.373 361.424C226.565 361.168 226.757 360.912 226.949 360.656C227.152 360.389 227.333 360.139 227.493 359.904H229.957C230.128 360.139 230.309 360.389 230.501 360.656C230.693 360.912 230.885 361.168 231.077 361.424C231.28 361.669 231.466 361.893 231.637 362.096V362.304H230.373C230.106 362.123 229.834 361.925 229.557 361.712C229.28 361.488 229.002 361.253 228.725 361.008C228.458 361.253 228.181 361.488 227.893 361.712C227.616 361.925 227.344 362.123 227.077 362.304H225.813V362.096ZM225.317 360.784C225.018 360.56 224.704 360.315 224.373 360.048C224.053 359.771 223.776 359.477 223.541 359.168V359.008H225.429C225.6 359.349 225.77 359.643 225.941 359.888C226.112 360.123 226.298 360.352 226.501 360.576V360.784H225.317ZM232.981 367.616C232.981 368.341 232.88 368.987 232.677 369.552C232.485 370.117 232.202 370.597 231.829 370.992C231.466 371.376 231.024 371.669 230.501 371.872C229.978 372.064 229.386 372.16 228.725 372.16C228.117 372.16 227.552 372.064 227.029 371.872C226.517 371.669 226.074 371.376 225.701 370.992C225.328 370.597 225.034 370.117 224.821 369.552C224.618 368.987 224.517 368.341 224.517 367.616C224.517 366.645 224.688 365.829 225.029 365.168C225.37 364.496 225.861 363.984 226.501 363.632C227.141 363.28 227.898 363.104 228.773 363.104C229.594 363.104 230.32 363.28 230.949 363.632C231.578 363.984 232.074 364.496 232.437 365.168C232.8 365.829 232.981 366.645 232.981 367.616ZM226.949 367.616C226.949 368.192 227.008 368.677 227.125 369.072C227.253 369.456 227.45 369.749 227.717 369.952C227.984 370.144 228.33 370.24 228.757 370.24C229.184 370.24 229.525 370.144 229.781 369.952C230.048 369.749 230.24 369.456 230.357 369.072C230.485 368.677 230.549 368.192 230.549 367.616C230.549 367.04 230.485 366.56 230.357 366.176C230.24 365.792 230.048 365.504 229.781 365.312C229.514 365.12 229.168 365.024 228.741 365.024C228.112 365.024 227.653 365.243 227.365 365.68C227.088 366.107 226.949 366.752 226.949 367.616ZM239.719 363.008C240.775 363.008 241.628 363.344 242.279 364.016C242.93 364.677 243.255 365.605 243.255 366.8V372H241.015V367.104C241.015 366.4 240.839 365.861 240.487 365.488C240.135 365.104 239.655 364.912 239.047 364.912C238.428 364.912 237.938 365.104 237.575 365.488C237.223 365.861 237.047 366.4 237.047 367.104V372H234.807V363.136H237.047V364.24C237.346 363.856 237.724 363.557 238.183 363.344C238.652 363.12 239.164 363.008 239.719 363.008ZM248.857 362.992C249.519 362.992 250.1 363.125 250.601 363.392C251.103 363.648 251.497 363.984 251.785 364.4V363.136H254.041V372.064C254.041 372.885 253.876 373.616 253.545 374.256C253.215 374.907 252.719 375.419 252.057 375.792C251.396 376.176 250.596 376.368 249.657 376.368C248.399 376.368 247.364 376.075 246.553 375.488C245.753 374.901 245.3 374.101 245.193 373.088H247.417C247.535 373.493 247.785 373.813 248.169 374.048C248.564 374.293 249.039 374.416 249.593 374.416C250.244 374.416 250.772 374.219 251.177 373.824C251.583 373.44 251.785 372.853 251.785 372.064V370.688C251.497 371.104 251.097 371.451 250.585 371.728C250.084 372.005 249.508 372.144 248.857 372.144C248.111 372.144 247.428 371.952 246.809 371.568C246.191 371.184 245.7 370.645 245.337 369.952C244.985 369.248 244.809 368.443 244.809 367.536C244.809 366.64 244.985 365.845 245.337 365.152C245.7 364.459 246.185 363.925 246.793 363.552C247.412 363.179 248.1 362.992 248.857 362.992ZM251.785 367.568C251.785 367.024 251.679 366.56 251.465 366.176C251.252 365.781 250.964 365.483 250.601 365.28C250.239 365.067 249.849 364.96 249.433 364.96C249.017 364.96 248.633 365.061 248.281 365.264C247.929 365.467 247.641 365.765 247.417 366.16C247.204 366.544 247.097 367.003 247.097 367.536C247.097 368.069 247.204 368.539 247.417 368.944C247.641 369.339 247.929 369.643 248.281 369.856C248.644 370.069 249.028 370.176 249.433 370.176C249.849 370.176 250.239 370.075 250.601 369.872C250.964 369.659 251.252 369.36 251.465 368.976C251.679 368.581 251.785 368.112 251.785 367.568ZM257.221 372.112C256.816 372.112 256.48 371.989 256.213 371.744C255.957 371.488 255.829 371.173 255.829 370.8C255.829 370.427 255.957 370.117 256.213 369.872C256.48 369.616 256.816 369.488 257.221 369.488C257.616 369.488 257.941 369.616 258.197 369.872C258.453 370.117 258.581 370.427 258.581 370.8C258.581 371.173 258.453 371.488 258.197 371.744C257.941 371.989 257.616 372.112 257.221 372.112Z" fill="white"/>
<path d="M59.89 308.063L52.27 298.733V308.063H48.07V287.123H52.27V296.513L59.89 287.123H64.96L56.32 297.503L65.2 308.063H59.89ZM83.8626 291.443L73.5726 315.923H69.1026L72.7026 307.643L66.0426 291.443H70.7526L75.0426 303.053L79.3926 291.443H83.8626ZM78.2526 287.123L71.3526 290.273V287.273L78.2526 283.703V287.123ZM102.635 291.203C103.895 291.203 105.015 291.483 105.995 292.043C106.975 292.583 107.735 293.393 108.275 294.473C108.835 295.533 109.115 296.813 109.115 298.313V308.063H104.915V298.883C104.915 297.563 104.585 296.553 103.925 295.853C103.265 295.133 102.365 294.773 101.225 294.773C100.065 294.773 99.1451 295.133 98.4651 295.853C97.8051 296.553 97.4751 297.563 97.4751 298.883V308.063H93.2751V285.863H97.4751V293.513C98.0151 292.793 98.7351 292.233 99.6351 291.833C100.535 291.413 101.535 291.203 102.635 291.203ZM128.259 299.843C128.259 301.663 127.929 303.213 127.269 304.493C126.629 305.753 125.709 306.713 124.509 307.373C123.329 308.033 121.919 308.363 120.279 308.363C118.759 308.363 117.399 308.033 116.199 307.373C115.019 306.713 114.089 305.753 113.409 304.493C112.729 303.213 112.389 301.663 112.389 299.843C112.389 297.123 113.099 295.033 114.519 293.573C115.939 292.113 117.889 291.383 120.369 291.383C121.469 291.383 122.509 291.553 123.489 291.893C124.469 292.233 125.299 292.733 125.979 293.393C126.519 293.233 126.949 292.963 127.269 292.583C127.589 292.183 127.819 291.703 127.959 291.143C128.099 290.563 128.169 289.923 128.169 289.223H132.579L132.789 289.553C132.589 290.513 132.309 291.413 131.949 292.253C131.609 293.073 131.089 293.783 130.389 294.383C129.689 294.983 128.729 295.443 127.509 295.763C127.749 296.343 127.929 296.973 128.049 297.653C128.189 298.333 128.259 299.063 128.259 299.843ZM116.949 299.843C116.949 300.923 117.059 301.833 117.279 302.573C117.519 303.293 117.889 303.843 118.389 304.223C118.889 304.583 119.539 304.763 120.339 304.763C121.139 304.763 121.779 304.583 122.259 304.223C122.759 303.843 123.119 303.293 123.339 302.573C123.579 301.833 123.699 300.923 123.699 299.843C123.699 298.763 123.579 297.863 123.339 297.143C123.119 296.423 122.759 295.883 122.259 295.523C121.759 295.163 121.109 294.983 120.309 294.983C119.129 294.983 118.269 295.393 117.729 296.213C117.209 297.013 116.949 298.223 116.949 299.843ZM120.369 314.363C119.689 314.363 119.109 314.203 118.629 313.883C118.169 313.563 117.939 312.993 117.939 312.173C117.939 311.333 118.169 310.753 118.629 310.433C119.109 310.133 119.689 309.983 120.369 309.983C121.029 309.983 121.599 310.133 122.079 310.433C122.559 310.753 122.799 311.333 122.799 312.173C122.799 312.993 122.559 313.563 122.079 313.883C121.599 314.203 121.029 314.363 120.369 314.363ZM137.67 293.843C138.21 293.083 138.95 292.453 139.89 291.953C140.85 291.433 141.94 291.173 143.16 291.173C144.58 291.173 145.86 291.523 147 292.223C148.16 292.923 149.07 293.923 149.73 295.223C150.41 296.503 150.75 297.993 150.75 299.693C150.75 301.393 150.41 302.903 149.73 304.223C149.07 305.523 148.16 306.533 147 307.253C145.86 307.973 144.58 308.333 143.16 308.333C141.94 308.333 140.86 308.083 139.92 307.583C139 307.083 138.25 306.453 137.67 305.693V315.983H133.47V291.443H137.67V293.843ZM146.46 299.693C146.46 298.693 146.25 297.833 145.83 297.113C145.43 296.373 144.89 295.813 144.21 295.433C143.55 295.053 142.83 294.863 142.05 294.863C141.29 294.863 140.57 295.063 139.89 295.463C139.23 295.843 138.69 296.403 138.27 297.143C137.87 297.883 137.67 298.753 137.67 299.753C137.67 300.753 137.87 301.623 138.27 302.363C138.69 303.103 139.23 303.673 139.89 304.073C140.57 304.453 141.29 304.643 142.05 304.643C142.83 304.643 143.55 304.443 144.21 304.043C144.89 303.643 145.43 303.073 145.83 302.333C146.25 301.593 146.46 300.713 146.46 299.693ZM178.981 290.363H177.181V308.063H172.921V305.603C172.401 306.423 171.671 307.083 170.731 307.583C169.791 308.083 168.701 308.333 167.461 308.333C166.061 308.333 164.781 307.973 163.621 307.253C162.461 306.533 161.541 305.523 160.861 304.223C160.201 302.903 159.871 301.393 159.871 299.693C159.871 298.013 160.201 296.523 160.861 295.223C161.541 293.923 162.461 292.923 163.621 292.223C164.781 291.523 166.071 291.173 167.491 291.173C168.571 291.173 169.601 291.413 170.581 291.893C171.561 292.353 172.341 292.973 172.921 293.753V290.363H170.641V288.143H172.921V285.863H177.181V288.143H178.981V290.363ZM168.541 304.643C169.321 304.643 170.051 304.453 170.731 304.073C171.411 303.673 171.951 303.113 172.351 302.393C172.751 301.653 172.951 300.773 172.951 299.753C172.951 298.733 172.751 297.863 172.351 297.143C171.951 296.403 171.411 295.843 170.731 295.463C170.051 295.063 169.321 294.863 168.541 294.863C167.761 294.863 167.041 295.053 166.381 295.433C165.721 295.813 165.181 296.373 164.761 297.113C164.361 297.833 164.161 298.693 164.161 299.693C164.161 300.693 164.361 301.573 164.761 302.333C165.181 303.073 165.721 303.643 166.381 304.043C167.061 304.443 167.781 304.643 168.541 304.643ZM183.169 289.493C183.509 289.113 183.859 288.693 184.219 288.233C184.579 287.753 184.939 287.273 185.299 286.793C185.679 286.293 186.019 285.823 186.319 285.383H190.939C191.259 285.823 191.599 286.293 191.959 286.793C192.319 287.273 192.679 287.753 193.039 288.233C193.419 288.693 193.769 289.113 194.089 289.493V289.883H191.719C191.219 289.543 190.709 289.173 190.189 288.773C189.669 288.353 189.149 287.913 188.629 287.453C188.129 287.913 187.609 288.353 187.069 288.773C186.549 289.173 186.039 289.543 185.539 289.883H183.169V289.493ZM182.239 287.033C181.679 286.613 181.089 286.153 180.469 285.653C179.869 285.133 179.349 284.583 178.909 284.003V283.703H182.449C182.769 284.343 183.089 284.893 183.409 285.353C183.729 285.793 184.079 286.223 184.459 286.643V287.033H182.239ZM196.609 299.843C196.609 301.203 196.419 302.413 196.039 303.473C195.679 304.533 195.149 305.433 194.449 306.173C193.769 306.893 192.939 307.443 191.959 307.823C190.979 308.183 189.869 308.363 188.629 308.363C187.489 308.363 186.429 308.183 185.449 307.823C184.489 307.443 183.659 306.893 182.959 306.173C182.259 305.433 181.709 304.533 181.309 303.473C180.929 302.413 180.739 301.203 180.739 299.843C180.739 298.023 181.059 296.493 181.699 295.253C182.339 293.993 183.259 293.033 184.459 292.373C185.659 291.713 187.079 291.383 188.719 291.383C190.259 291.383 191.619 291.713 192.799 292.373C193.979 293.033 194.909 293.993 195.589 295.253C196.269 296.493 196.609 298.023 196.609 299.843ZM185.299 299.843C185.299 300.923 185.409 301.833 185.629 302.573C185.869 303.293 186.239 303.843 186.739 304.223C187.239 304.583 187.889 304.763 188.689 304.763C189.489 304.763 190.129 304.583 190.609 304.223C191.109 303.843 191.469 303.293 191.689 302.573C191.929 301.833 192.049 300.923 192.049 299.843C192.049 298.763 191.929 297.863 191.689 297.143C191.469 296.423 191.109 295.883 190.609 295.523C190.109 295.163 189.459 294.983 188.659 294.983C187.479 294.983 186.619 295.393 186.079 296.213C185.559 297.013 185.299 298.223 185.299 299.843ZM209.243 291.203C211.223 291.203 212.823 291.833 214.043 293.093C215.263 294.333 215.873 296.073 215.873 298.313V308.063H211.673V298.883C211.673 297.563 211.343 296.553 210.683 295.853C210.023 295.133 209.123 294.773 207.983 294.773C206.823 294.773 205.903 295.133 205.223 295.853C204.563 296.553 204.233 297.563 204.233 298.883V308.063H200.033V291.443H204.233V293.513C204.793 292.793 205.503 292.233 206.363 291.833C207.243 291.413 208.203 291.203 209.243 291.203ZM226.377 291.173C227.617 291.173 228.707 291.423 229.647 291.923C230.587 292.403 231.327 293.033 231.867 293.813V291.443H236.097V308.183C236.097 309.723 235.787 311.093 235.167 312.293C234.547 313.513 233.617 314.473 232.377 315.173C231.137 315.893 229.637 316.253 227.877 316.253C225.517 316.253 223.577 315.703 222.057 314.603C220.557 313.503 219.707 312.003 219.507 310.103H223.677C223.897 310.863 224.367 311.463 225.087 311.903C225.827 312.363 226.717 312.593 227.757 312.593C228.977 312.593 229.967 312.223 230.727 311.483C231.487 310.763 231.867 309.663 231.867 308.183V305.603C231.327 306.383 230.577 307.033 229.617 307.553C228.677 308.073 227.597 308.333 226.377 308.333C224.977 308.333 223.697 307.973 222.537 307.253C221.377 306.533 220.457 305.523 219.777 304.223C219.117 302.903 218.787 301.393 218.787 299.693C218.787 298.013 219.117 296.523 219.777 295.223C220.457 293.923 221.367 292.923 222.507 292.223C223.667 291.523 224.957 291.173 226.377 291.173ZM231.867 299.753C231.867 298.733 231.667 297.863 231.267 297.143C230.867 296.403 230.327 295.843 229.647 295.463C228.967 295.063 228.237 294.863 227.457 294.863C226.677 294.863 225.957 295.053 225.297 295.433C224.637 295.813 224.097 296.373 223.677 297.113C223.277 297.833 223.077 298.693 223.077 299.693C223.077 300.693 223.277 301.573 223.677 302.333C224.097 303.073 224.637 303.643 225.297 304.043C225.977 304.443 226.697 304.643 227.457 304.643C228.237 304.643 228.967 304.453 229.647 304.073C230.327 303.673 230.867 303.113 231.267 302.393C231.667 301.653 231.867 300.773 231.867 299.753Z" fill="white"/>
<path d="M294.631 88.08C294.631 78.8533 296.284 71.6267 299.591 66.4C302.951 61.1733 308.497 58.56 316.231 58.56C323.964 58.56 329.484 61.1733 332.791 66.4C336.151 71.6267 337.831 78.8533 337.831 88.08C337.831 97.36 336.151 104.64 332.791 109.92C329.484 115.2 323.964 117.84 316.231 117.84C308.497 117.84 302.951 115.2 299.591 109.92C296.284 104.64 294.631 97.36 294.631 88.08ZM326.791 88.08C326.791 84.1333 326.524 80.8267 325.991 78.16C325.511 75.44 324.497 73.2267 322.951 71.52C321.457 69.8133 319.217 68.96 316.231 68.96C313.244 68.96 310.977 69.8133 309.431 71.52C307.937 73.2267 306.924 75.44 306.391 78.16C305.911 80.8267 305.671 84.1333 305.671 88.08C305.671 92.1333 305.911 95.5467 306.391 98.32C306.871 101.04 307.884 103.253 309.431 104.96C310.977 106.613 313.244 107.44 316.231 107.44C319.217 107.44 321.484 106.613 323.031 104.96C324.577 103.253 325.591 101.04 326.071 98.32C326.551 95.5467 326.791 92.1333 326.791 88.08ZM346.509 75.04C346.776 69.7067 348.643 65.6 352.109 62.72C355.629 59.7867 360.243 58.32 365.949 58.32C369.843 58.32 373.176 59.0133 375.949 60.4C378.723 61.7333 380.803 63.5733 382.189 65.92C383.629 68.2133 384.349 70.8267 384.349 73.76C384.349 77.12 383.469 79.9733 381.709 82.32C380.003 84.6133 377.949 86.16 375.549 86.96V87.28C378.643 88.24 381.043 89.9467 382.749 92.4C384.509 94.8533 385.389 98 385.389 101.84C385.389 105.04 384.643 107.893 383.149 110.4C381.709 112.907 379.549 114.88 376.669 116.32C373.843 117.707 370.429 118.4 366.429 118.4C360.403 118.4 355.496 116.88 351.709 113.84C347.923 110.8 345.923 106.32 345.709 100.4H356.589C356.696 103.013 357.576 105.12 359.229 106.72C360.936 108.267 363.256 109.04 366.189 109.04C368.909 109.04 370.989 108.293 372.429 106.8C373.923 105.253 374.669 103.28 374.669 100.88C374.669 97.68 373.656 95.3867 371.629 94C369.603 92.6133 366.456 91.92 362.189 91.92H359.869V82.72H362.189C369.763 82.72 373.549 80.1867 373.549 75.12C373.549 72.8267 372.856 71.04 371.469 69.76C370.136 68.48 368.189 67.84 365.629 67.84C363.123 67.84 361.176 68.5333 359.789 69.92C358.456 71.2533 357.683 72.96 357.469 75.04H346.509Z" fill="white"/>
<g clip-path="url(#clip0_1_47)">
<path d="M116.704 156C123.322 156.048 128.255 160.628 128.719 166.802C128.853 168.587 128.306 170.278 127.528 171.879C127.091 172.779 126.669 173.689 126.221 174.586C125.927 175.166 125.715 175.592 126.556 176.002C127.477 176.453 127.552 175.803 127.803 175.293C128.246 174.392 128.662 173.48 129.123 172.589C129.817 171.242 130.819 170.816 131.887 171.378C132.988 171.958 133.314 173.027 132.689 174.338C129.781 180.446 126.846 186.538 123.92 192.637C122.403 195.799 120.892 198.965 119.36 202.119C118.636 203.608 117.67 204.091 116.548 203.593C115.384 203.073 115.067 201.856 115.773 200.373C118.84 193.951 121.927 187.541 124.982 181.113C125.185 180.684 125.892 180.192 124.979 179.648C124.105 179.129 123.821 179.521 123.468 180.274C121.269 184.94 119.034 189.592 116.806 194.244C111.848 204.592 106.879 214.935 101.936 225.29C101.359 226.501 100.575 227.468 99.4861 228.256C96.7726 230.216 94.092 232.225 91.4203 234.24C90.1309 235.212 88.8504 236.17 87.1511 236.194C86.6066 236.203 86.3822 236.538 86.1847 236.976C85.9334 237.523 85.6851 238.079 85.359 238.58C84.7906 239.453 83.9439 239.704 83.0075 239.332C81.9873 238.928 81.6223 238.073 81.8526 237.013C81.9573 236.532 82.1787 236.067 82.4121 235.632C82.8309 234.85 83.1062 234.146 82.4181 233.318C82.0112 232.832 81.9394 232.14 81.8616 231.476C81.371 227.217 81.712 222.925 81.3321 218.659C81.2453 217.693 81.5714 216.778 81.9873 215.908C90.6215 197.878 99.2378 179.836 107.908 161.821C109.754 157.972 113.075 156.299 116.704 156ZM97.5654 223.535C98.2505 223.864 98.4241 223.329 98.6425 222.87C104.264 211.129 109.88 199.385 115.525 187.656C115.917 186.843 115.714 186.55 114.975 186.197C111.426 184.502 107.89 182.781 104.384 181.005C103.54 180.579 103.199 180.76 102.813 181.572C97.2752 193.19 91.7255 204.798 86.1309 216.385C85.709 217.261 85.9244 217.717 86.5497 218.294C89.6911 221.188 93.344 222.958 97.5654 223.535ZM117.135 160.105C114.681 160.114 112.461 161.525 111.313 163.89C109.386 167.85 107.54 171.846 105.565 175.782C105.066 176.779 105.443 177.054 106.224 177.431C109.673 179.09 113.117 180.763 116.53 182.497C117.431 182.953 117.856 182.877 118.307 181.902C120.07 178.087 121.766 174.229 123.773 170.547C126.502 165.548 122.577 160.153 117.135 160.105ZM94.3343 227.084C91.0344 226.144 88.2431 224.734 85.5415 222.792C85.4099 225.64 85.5804 228.232 85.7689 230.814C85.8586 232.029 86.7771 232.539 87.7524 231.875C89.9155 230.394 91.9977 228.794 94.3343 227.084Z" fill="white"/>
<path d="M72.4345 239.97C70.0411 239.988 67.6566 239.819 65.3141 239.323C59.6746 238.127 57.4158 234.445 58.7501 228.83C59.6566 225.024 61.4278 221.607 63.2049 218.182C65.5115 213.736 68.0695 209.425 70.1039 204.834C70.9805 202.859 71.7254 200.829 71.9947 198.678C72.5063 194.582 70.8459 191.565 67.3425 189.517C64.1413 187.644 60.5931 186.901 57.0149 186.26C54.9625 185.892 52.9012 185.575 50.8548 185.176C49.6312 184.937 48.8892 184.176 49.0149 182.844C49.1166 181.748 50.2595 180.905 51.4382 181.149C56.0067 182.098 60.6888 182.521 65.1226 184.107C66.1966 184.49 67.2707 184.91 68.2849 185.436C74.9117 188.867 77.347 194.488 75.4263 201.765C74.5497 205.088 73.0448 208.136 71.4891 211.165C69.1346 215.757 66.5048 220.206 64.3477 224.906C63.51 226.733 62.8219 228.615 62.4779 230.606C62.0261 233.231 62.798 234.43 65.353 235.167C67.531 235.795 69.7748 235.853 72.0156 235.916C73.1615 235.949 74.3103 235.898 75.4532 235.946C76.8055 236.004 77.6731 236.795 77.6103 237.934C77.5414 239.19 76.7337 239.84 75.5759 239.949C74.5347 240.048 73.4816 239.97 72.4345 239.97Z" fill="white"/>
</g>
<defs>
<linearGradient id="paint0_linear_1_47" x1="220" y1="0" x2="220" y2="440" gradientUnits="userSpaceOnUse">
<stop stop-color="#ED4B3C"/>
<stop offset="1" stop-color="#B81D1D"/>
</linearGradient>
<clipPath id="clip0_1_47">
<rect width="84" height="84" fill="white" transform="translate(49 156)"/>
</clipPath>
</defs>
</svg>
