<svg width="84" height="84" viewBox="0 0 84 84" fill="none" xmlns="http://www.w3.org/2000/svg">
<g clip-path="url(#clip0_1_52)">
<path d="M67.7038 0C74.3216 0.0483297 79.255 4.62757 79.7188 10.8017C79.8534 12.5869 79.3059 14.2784 78.528 15.8793C78.0912 16.7795 77.6694 17.6887 77.2206 18.5858C76.9274 19.1657 76.715 19.5916 77.5557 20.0024C78.4772 20.4525 78.552 19.8031 78.8033 19.2926C79.2461 18.3925 79.6619 17.4802 80.1226 16.5892C80.8167 15.242 81.819 14.8161 82.887 15.3779C83.988 15.9579 84.3141 17.0271 83.6888 18.3381C80.7808 24.4458 77.8459 30.5383 74.92 36.6369C73.4031 39.7995 71.8923 42.9651 70.3605 46.1186C69.6365 47.6078 68.6701 48.091 67.5482 47.5926C66.3844 47.0731 66.0673 45.8558 66.7734 44.3727C69.8399 37.9509 72.9274 31.5412 75.982 25.1133C76.1855 24.6844 76.8915 24.192 75.979 23.6483C75.1054 23.1288 74.8212 23.5215 74.4682 24.2736C72.2692 28.9404 70.0344 33.5921 67.8055 38.2439C62.8481 48.5925 57.8788 58.935 52.9364 69.2897C52.359 70.5009 51.5751 71.4675 50.4861 72.2559C47.7726 74.2163 45.092 76.225 42.4203 78.2397C41.1309 79.2123 39.8504 80.1699 38.1511 80.194C37.6066 80.2031 37.3822 80.5384 37.1847 80.9764C36.9334 81.5231 36.6851 82.0789 36.359 82.5803C35.7906 83.4533 34.9439 83.704 34.0075 83.3324C32.9873 82.9277 32.6223 82.0729 32.8526 81.0126C32.9573 80.5323 33.1787 80.0672 33.4121 79.6322C33.8309 78.8499 34.1062 78.1461 33.4181 77.3184C33.0112 76.8321 32.9394 76.1404 32.8616 75.4759C32.371 71.2168 32.712 66.9245 32.3321 62.6594C32.2453 61.6928 32.5714 60.7776 32.9873 59.9077C41.6215 41.8777 50.2378 23.8356 58.908 5.82071C60.7539 1.97246 64.0748 0.29904 67.7038 0ZM48.5654 67.5347C49.2505 67.8639 49.4241 67.3293 49.6425 66.8702C55.264 55.1291 60.8796 43.3849 66.525 31.6559C66.917 30.8434 66.7135 30.5504 65.9746 30.197C62.4263 28.5024 58.89 26.7807 55.3837 25.0046C54.54 24.5787 54.1989 24.7599 53.813 25.5724C48.2752 37.1897 42.7255 48.7979 37.1309 60.3849C36.709 61.2609 36.9244 61.717 37.5497 62.2939C40.6911 65.1877 44.344 66.9577 48.5654 67.5347ZM68.1346 4.105C65.6814 4.11406 63.4615 5.52469 62.3126 7.88982C60.3859 11.8498 58.54 15.8461 56.5654 19.7819C56.0658 20.7787 56.4428 21.0536 57.2236 21.4312C60.6731 23.0895 64.1167 24.7629 67.5303 26.4967C68.4308 26.9529 68.8556 26.8773 69.3074 25.9017C71.0695 22.0867 72.7659 18.2294 74.7734 14.5472C77.5019 9.54813 73.5766 4.15333 68.1346 4.105ZM45.3343 71.0839C42.0344 70.1445 39.2431 68.7339 36.5415 66.7916C36.4099 69.64 36.5804 72.2317 36.7689 74.8143C36.8586 76.0286 37.7771 76.5391 38.7524 75.8746C40.9155 74.3945 42.9977 72.7936 45.3343 71.0839Z" fill="white"/>
<path d="M23.4345 83.9697C21.0411 83.9879 18.6566 83.8187 16.3141 83.3233C10.6746 82.1272 8.4158 78.445 9.75013 72.8297C10.6566 69.0238 12.4278 65.6075 14.2049 62.1821C16.5115 57.7358 19.0695 53.4254 21.1039 48.8341C21.9805 46.8586 22.7254 44.8287 22.9947 42.6781C23.5063 38.5821 21.8459 35.5645 18.3425 33.5166C15.1413 31.6438 11.5931 30.9007 8.0149 30.2604C5.96254 29.8918 3.90121 29.5747 1.85484 29.176C0.631203 28.9373 -0.110757 28.1761 0.0148975 26.8441C0.116618 25.7476 1.25947 24.9048 2.43823 25.1495C7.00667 26.098 11.6888 26.5208 16.1226 28.1067C17.1966 28.4903 18.2707 28.9101 19.2849 29.4357C25.9117 32.8671 28.347 38.4885 26.4263 45.7651C25.5497 49.0878 24.0448 52.1356 22.4891 55.1652C20.1346 59.7566 17.5048 64.2059 15.3477 68.906C14.51 70.7334 13.8219 72.6153 13.4779 74.6059C13.0261 77.2308 13.798 78.4299 16.353 79.167C18.531 79.7953 20.7748 79.8527 23.0156 79.9161C24.1615 79.9493 25.3103 79.898 26.4532 79.9463C27.8055 80.0037 28.6731 80.7951 28.6103 81.9338C28.5414 83.1904 27.7337 83.8399 26.5759 83.9486C25.5347 84.0483 24.4816 83.9697 23.4345 83.9697Z" fill="white"/>
</g>
<defs>
<clipPath id="clip0_1_52">
<rect width="84" height="84" fill="white"/>
</clipPath>
</defs>
</svg>
