<svg width="98" height="98" viewBox="0 0 98 98" fill="none" xmlns="http://www.w3.org/2000/svg">
<g clip-path="url(#clip0_1_62)">
<path d="M48.8169 34.4537C37.4887 34.4537 26.1605 34.4537 14.8358 34.4537C12.0848 34.4537 11.7745 34.7733 11.7745 37.5631C11.771 45.2028 11.7745 52.8426 11.771 60.4858C11.771 61.1216 11.7814 61.7678 11.6629 62.3862C11.4467 63.5327 10.711 64.2379 9.53601 64.363C8.29475 64.495 7.43703 63.9426 6.921 62.7892C6.62114 62.1187 6.65252 61.4377 6.65252 60.7464C6.64904 52.8739 6.72226 45.0013 6.62114 37.1323C6.56536 32.8347 9.49417 29.1139 14.2849 29.5134C15.9585 29.6524 17.653 29.4821 19.3371 29.5551C20.3482 29.6002 20.6515 29.232 20.6027 28.2627C20.5365 26.8765 20.5923 25.4868 20.5853 24.0971C20.5783 22.7005 21.2338 21.7972 22.5866 21.4289C23.6501 21.1406 24.717 20.88 25.7874 20.616C27.726 20.1365 28.3431 18.733 27.3111 17.0445C24.5217 12.469 24.058 12.8894 28.3989 8.74467C29.5321 7.66419 30.6234 6.54203 31.7357 5.44071C32.7747 4.4054 33.9183 4.23517 35.1875 5.01686C36.0766 5.56231 36.9692 6.10081 37.8687 6.63236C39.5946 7.65724 41.059 7.04579 41.5716 5.08634C42.9314 -0.128419 42.4293 -0.0380899 48.144 0.0209714C49.7688 0.0383423 51.397 0.0279197 53.0218 0.0279197C54.5176 0.0313939 55.3893 0.82351 55.7624 2.21319C56.0169 3.15817 56.2365 4.11357 56.4806 5.06202C57.0036 7.10832 58.4506 7.68156 60.2985 6.59414C64.7894 3.95723 64.3082 3.41178 68.3946 7.53565C69.4964 8.64739 70.5842 9.77303 71.7313 10.8361C73.0075 12.0174 73.1365 13.275 72.1985 14.7029C71.6581 15.5263 71.1525 16.3705 70.647 17.2147C69.7544 18.7121 70.3367 20.1956 72.0033 20.609C77.8888 22.0578 77.4878 21.6165 77.3763 27.5852C77.3449 29.1625 77.7528 29.7218 79.3706 29.5759C80.985 29.43 82.6202 29.5308 84.2485 29.5481C88.3453 29.5863 91.2707 32.2406 91.316 36.2846C91.4101 44.6748 91.3613 53.0684 91.3334 61.4621C91.3265 63.2478 90.2735 64.3804 88.7986 64.4047C87.2436 64.429 86.2429 63.3034 86.2359 61.3544C86.2115 53.4262 86.2254 45.4947 86.2254 37.5666C86.2254 34.7803 85.9151 34.4676 83.1502 34.4676C71.7034 34.4537 60.2602 34.4537 48.8169 34.4537ZM66.2712 29.5342C67.4915 29.5342 68.7119 29.5342 69.9322 29.5342C72.5193 29.5342 72.481 29.5342 72.3973 26.9981C72.3694 26.1399 72.0974 25.7613 71.2432 25.6327C70.3924 25.5042 69.5626 25.2228 68.7258 25.0039C66.6547 24.4619 64.0014 18.8546 64.9149 16.9333C65.0613 16.6207 65.2705 16.3358 65.4518 16.0405C65.7517 15.5471 65.9992 15.0052 66.3688 14.5709C67.1498 13.6502 66.9441 12.9484 66.0515 12.2675C65.6401 11.9548 65.2566 11.5796 64.9323 11.1731C64.3187 10.4019 63.6666 10.2247 62.8787 10.8952C60.5844 12.8581 58.1751 13.1395 55.6089 11.4128C55.3753 11.2565 55.0755 11.1662 54.7966 11.1175C53.0532 10.8014 52.2722 9.64101 51.9758 8.01856C51.8538 7.34109 51.6934 6.6671 51.5226 5.99658C51.3936 5.48587 51.2227 5.09329 50.5393 4.98559C47.4571 4.4992 46.7353 4.9439 46.038 7.9456C45.9857 8.17142 45.9822 8.40767 45.916 8.62654C45.3128 10.6902 39.7062 13.2715 37.7293 12.3856C37.4155 12.2467 37.1365 12.0243 36.8402 11.8471C36.1916 11.4615 35.5396 11.0828 34.8911 10.6972C34.539 10.4887 34.145 10.2038 33.7789 10.5408C32.8863 11.3642 31.8159 12.1181 31.244 13.136C30.7629 13.9907 31.8961 14.7238 32.3005 15.5124C32.8758 16.6276 33.8381 17.6073 33.228 19.0283C31.903 22.1064 31.0662 25.6605 26.6137 25.6292C26.5022 25.6292 26.3801 25.6709 26.2825 25.7265C24.8983 26.5117 25.8048 27.7902 25.6654 28.829C25.5433 29.7323 26.3941 29.5238 26.9241 29.5273C29.8877 29.5447 32.8514 29.4578 35.8116 29.569C37.2202 29.6211 37.67 29.298 37.656 27.8006C37.6072 23.1799 40.6267 18.9935 44.9467 17.3746C52.3733 14.5917 60.3055 19.9663 60.3264 27.8909C60.3299 29.3431 60.7901 29.6489 62.0837 29.5585C63.4784 29.4613 64.88 29.5342 66.2712 29.5342ZM48.9947 29.5342C50.6788 29.5342 52.3628 29.4856 54.0434 29.5516C55.0371 29.5898 55.3509 29.1903 55.4032 28.2523C55.5845 24.8614 52.464 21.5783 48.9982 21.5783C45.5324 21.5783 42.4119 24.858 42.5932 28.2523C42.642 29.1868 42.9558 29.5898 43.9495 29.5516C45.6266 29.4856 47.3141 29.5342 48.9947 29.5342Z" fill="white"/>
<path d="M48.9251 97.9965C35.212 97.9965 21.4989 98 7.78581 97.9965C2.61856 97.9965 0.0140085 95.3735 0.00703516 90.1796C0.00354848 86.6463 -0.00691154 83.1165 0.0105218 79.5833C0.0209819 77.2486 0.81943 76.4565 3.13458 76.4565C13.3017 76.453 23.4724 76.4774 33.6395 76.4287C35.2259 76.4218 36.1151 77.0714 36.6659 78.475C37.2099 79.8682 37.5027 81.7824 38.5557 82.4356C39.6959 83.1443 41.5822 82.6892 43.1442 82.6962C48.1406 82.71 53.1405 82.6718 58.1369 82.7239C59.2247 82.7344 59.7408 82.4182 60.1592 81.369C62.4534 75.6227 61.5085 76.4808 67.4603 76.46C76.5814 76.4252 85.706 76.4496 94.8272 76.453C97.1633 76.453 97.9722 77.2347 97.9826 79.5485C98.0001 83.3111 98.0105 87.0771 97.9826 90.8397C97.9477 95.2102 95.1654 97.9826 90.7617 97.9861C76.815 98.0069 62.8718 97.993 48.9251 97.9965ZM48.9983 93.0076C62.7079 93.0076 76.414 93.011 90.1237 93.0041C92.4597 93.0041 93.0002 92.4586 93.0141 90.1483C93.0281 87.7754 92.9269 85.3991 93.0525 83.0297C93.1292 81.574 92.5539 81.3273 91.2533 81.3377C84.0499 81.3899 76.8499 81.3621 69.6464 81.3621C65.5914 81.3621 65.5252 81.3377 64.0852 85.1281C63.3878 86.9625 62.3174 87.7164 60.3195 87.6886C53.6426 87.5982 46.9621 87.6642 40.2816 87.6503C34.1555 87.6365 35.2364 88.1993 32.9387 82.7344C32.9178 82.6823 32.8899 82.6267 32.8759 82.5711C32.6632 81.6435 32.1298 81.3308 31.1396 81.3377C22.8901 81.3794 14.6441 81.3864 6.39463 81.3343C5.18475 81.3273 4.93371 81.779 4.96509 82.856C5.02785 85.1698 4.98252 87.4871 4.98601 89.8009C4.98949 92.5663 5.42882 93.0041 8.22862 93.0041C21.8127 93.0076 35.4038 93.0076 48.9983 93.0076Z" fill="white"/>
<path d="M40.1039 66.4474C35.0657 63.8591 30.3307 61.4515 25.6202 58.9918C24.3511 58.3282 24.4208 55.8268 25.7144 55.1493C30.125 52.8459 34.5671 50.6016 38.9707 48.2912C39.9784 47.7632 40.0132 48.128 40.1353 49.0417C40.4665 51.5014 39.8563 53.1482 37.2448 54.0271C35.1877 54.722 33.3153 55.9518 31.0629 57.0948C33.7058 58.4185 36.0698 59.6727 38.5 60.7879C39.6994 61.3368 40.3375 61.9935 40.1283 63.3901C39.9958 64.2934 40.1039 65.2279 40.1039 66.4474Z" fill="white"/>
<path d="M57.8929 66.4544C57.8929 64.8771 57.9139 63.5708 57.886 62.2645C57.8685 61.4863 58.4857 61.3681 58.9808 61.118C61.5644 59.8186 64.1515 58.5262 67.0001 57.0984C64.5106 55.8476 62.2583 54.5761 59.8873 53.5755C58.3183 52.912 57.5861 52.0434 57.8685 50.3306C57.9871 49.6045 57.8894 48.8437 57.8894 48.128C58.5798 47.8501 58.9843 48.2947 59.4166 48.5171C63.6006 50.6364 67.7498 52.8216 71.9582 54.8922C72.9763 55.3925 73.2204 56.0318 73.2099 57.0636C73.1994 58.0607 73.0635 58.7382 72.0175 59.2558C67.3627 61.5488 62.7638 63.9564 57.8929 66.4544Z" fill="white"/>
<path d="M42.834 66.7115C45.6547 59.3809 48.3883 52.3422 51.0556 45.2792C51.5088 44.0736 52.4084 44.421 53.2034 44.4071C56.0764 44.3654 56.0799 44.3863 55.0408 47.0684C52.7675 52.9328 50.407 58.7625 48.2767 64.679C47.67 66.3675 46.8646 66.9824 45.1701 66.7288C44.4902 66.6281 43.7858 66.7115 42.834 66.7115Z" fill="white"/>
<path d="M11.9211 70.0466C11.942 71.5614 10.8786 72.6836 9.36885 72.7426C7.76498 72.8051 6.61438 71.7177 6.59346 70.13C6.57603 68.5493 7.71268 67.4063 9.28517 67.4271C10.7844 67.4445 11.9002 68.5562 11.9211 70.0466Z" fill="white"/>
<path d="M91.4312 69.998C91.466 71.617 90.3817 72.7496 88.7917 72.7496C87.2925 72.7496 86.1523 71.6518 86.1105 70.1752C86.0686 68.6049 87.2123 67.4306 88.7883 67.4271C90.2945 67.4237 91.3963 68.4937 91.4312 69.998Z" fill="white"/>
</g>
<defs>
<clipPath id="clip0_1_62">
<rect width="98" height="98" fill="white"/>
</clipPath>
</defs>
</svg>
