<svg width="100" height="72" viewBox="0 0 100 72" fill="none" xmlns="http://www.w3.org/2000/svg">
<g clip-path="url(#clip0_1_76)">
<path d="M49.9576 61.6618C35.3155 61.6618 20.6699 61.6618 6.0279 61.6618C4.0353 61.6618 3.9072 61.8242 4.8359 63.5248C6.51182 66.5906 9.14133 68.1667 12.7494 68.1667C21.8192 68.1632 30.8891 68.1632 39.959 68.1702C40.5461 68.1702 41.1652 68.1391 41.7203 68.298C42.6704 68.5711 43.165 69.2382 43.0867 70.2544C43.0084 71.2775 42.4142 71.8097 41.4108 71.9445C41.0621 71.9929 40.6991 71.9722 40.3469 71.9722C31.0991 71.9722 21.8513 71.9998 12.6035 71.9618C6.15599 71.9376 1.02149 67.5549 0.110591 61.406C-0.273696 58.8172 0.274269 58.0671 2.97139 57.8736C3.97125 57.801 3.93211 57.3067 3.92855 56.6431C3.92144 53.0727 3.92499 49.5022 3.92499 45.9318C3.92499 34.1835 4.09579 22.4318 3.85739 10.6904C3.73285 4.43784 8.47595 -0.048551 14.7562 -0.000161632C38.2902 0.183027 61.8278 0.17957 85.3618 0.00329476C91.6634 -0.0450947 96.2215 4.56573 96.1503 10.4381C95.9759 25.5806 96.1005 40.7299 96.0756 55.8723C96.072 57.1305 96.008 58.0568 97.8618 57.9116C99.3135 57.7975 100.007 58.8241 100 60.2965C99.9683 66.0652 94.7021 71.7683 88.735 71.8858C78.8396 72.0862 68.9371 71.9618 59.0346 71.9653C57.6967 71.9653 56.857 71.3708 56.9424 69.9813C57.0349 68.4674 58.1344 68.1598 59.4402 68.1598C68.7485 68.1598 78.0568 68.1632 87.3615 68.1563C90.9731 68.1529 93.5742 66.5042 95.2216 63.4349C96.0827 61.8311 95.9439 61.6583 94.0616 61.6583C79.3627 61.6618 64.6601 61.6618 49.9576 61.6618ZM75.8187 57.8425C81.0564 57.8425 85.7959 57.7906 90.5354 57.8736C91.8804 57.8978 92.2042 57.521 92.1971 56.2387C92.1509 40.8578 92.1722 25.4769 92.1615 10.0994C92.158 6.13147 89.8451 3.88482 85.7674 3.88482C61.9274 3.8779 38.091 3.8779 14.2509 3.88482C10.1697 3.88482 7.8497 6.12801 7.84614 10.0856C7.83547 25.4665 7.85682 40.8474 7.81412 56.2249C7.81056 57.483 8.09522 57.877 9.46157 57.8701C27.3701 57.8217 45.2785 57.839 63.187 57.8287C63.6069 57.8287 64.1299 58.0499 64.4929 57.5003C64.2723 57.1063 64.0766 56.6915 63.8239 56.3078C63.2511 55.4403 63.0127 54.0785 62.0875 53.8158C61.3581 53.6084 60.6322 54.8147 59.8814 55.3608C59.1662 55.8792 58.4083 56.1212 57.5686 55.6926C56.8214 55.3089 56.4976 54.6833 56.5296 53.8469C56.7644 48.0955 56.9424 42.3371 57.2306 36.5891C57.3338 34.5326 58.5863 33.9485 60.5326 34.9059C62.2227 35.7354 63.888 36.6064 65.5603 37.4671C68.9584 39.216 72.353 40.9718 75.7511 42.7242C76.5837 43.1528 77.2598 43.7646 77.1672 44.722C77.0818 45.6483 76.4271 46.2428 75.4842 46.5228C74.9754 46.6714 74.5021 46.9376 73.9933 47.0689C73.0966 47.3005 72.8867 47.6323 73.4311 48.4791C74.5911 50.2834 75.5945 52.1775 76.7367 53.9921C77.6191 55.3677 77.6867 56.5602 75.8187 57.8425ZM60.529 49.5437C63.2297 48.2717 63.6745 48.4031 65.1191 50.8329C65.8592 52.0772 66.5851 53.3284 67.3252 54.5727C69.0225 57.4277 69.0047 57.4001 71.8868 55.5578C72.5949 55.105 72.7124 54.7628 72.2711 54.0577C71.1681 52.2915 70.1362 50.4804 69.0759 48.6865C67.5672 46.1357 67.6277 45.8281 70.1149 44.1344C67.0584 42.5652 64.0766 41.0375 60.8742 39.3923C60.8422 42.9627 60.8671 46.2256 60.529 49.5437Z" fill="white"/>
<path d="M50.114 71.9793C48.8331 71.8825 48.1072 71.2708 48.093 70.1371C48.0787 68.9239 48.8473 68.1842 50.0856 68.2222C51.2313 68.2568 51.9394 68.9999 51.918 70.1301C51.9003 71.2673 51.1566 71.8514 50.114 71.9793Z" fill="white"/>
<path d="M54.035 21.3121C54.7431 18.7129 55.4761 16.1172 56.1557 13.5076C56.5009 12.1803 57.2018 11.2817 58.7212 11.413C60.148 11.534 60.6355 12.5225 60.8561 13.7737C61.6425 18.2359 62.4751 22.6912 63.2864 27.15C63.3362 27.4334 63.354 27.7203 63.386 28.0071C63.5319 29.2998 63.0017 30.2054 61.6425 30.3333C60.3687 30.4508 59.7104 29.6351 59.4969 28.4807C59.0948 26.2824 58.7141 24.0807 58.2693 21.5748C57.2944 23.3721 57.1805 25.128 56.6112 26.7386C56.4012 27.3331 56.3123 27.9657 56.1308 28.574C55.7999 29.6869 55.0562 30.3851 53.8287 30.3575C52.6936 30.3298 51.9713 29.6697 51.6688 28.6189C51.0177 26.3619 50.3914 24.098 49.4449 21.8098C49.0927 23.7938 48.7369 25.7778 48.3846 27.7617C48.3241 28.1005 48.3028 28.4496 48.2067 28.7779C47.8936 29.8494 47.1855 30.5061 46.0006 30.316C44.8299 30.1294 44.2571 29.3309 44.4243 28.1938C44.8193 25.4702 45.264 22.7534 45.7231 20.0402C46.1073 17.7762 46.545 15.5192 46.9471 13.2553C47.1428 12.1423 47.8295 11.4925 48.9539 11.4061C50.1673 11.3128 50.9856 11.9004 51.3201 13.0548C52.1172 15.7992 52.9071 18.547 53.697 21.2948C53.8109 21.2983 53.9212 21.3052 54.035 21.3121Z" fill="white"/>
<path d="M86.4896 21.0183C86.4433 26.2201 82.0276 30.4473 76.7009 30.392C71.417 30.3367 66.9834 26.0093 66.955 20.8835C66.9265 15.6989 71.4668 11.33 76.8468 11.368C82.3158 11.4026 86.5394 15.6298 86.4896 21.0183ZM82.5755 20.842C82.572 17.6276 80.0456 15.1735 76.7507 15.1874C73.5341 15.2012 70.8441 17.8073 70.8654 20.8835C70.8904 23.9527 73.6195 26.5692 76.7934 26.5623C80.0385 26.5554 82.5791 24.0426 82.5755 20.842Z" fill="white"/>
<path d="M13.5177 20.8351C13.5142 18.4744 13.5533 16.1137 13.5035 13.753C13.4679 12.1803 14.1689 11.413 15.7914 11.3301C19.6627 11.1296 23.2921 11.6308 25.1851 15.4293C27.1706 19.418 27.1563 23.4896 24.4628 27.2191C22.0823 30.5165 18.8088 30.6132 15.0513 30.278C13.8629 30.1708 13.507 29.1858 13.5142 28.0866C13.5319 25.6741 13.5213 23.2546 13.5177 20.8351ZM22.5698 21.0563C22.5947 17.714 21.2604 15.6402 18.9938 15.2461C17.9299 15.0595 17.3606 15.1908 17.4068 16.487C17.51 19.2417 17.446 22.0034 17.4531 24.765C17.4602 26.6211 18.0046 27.0117 19.7517 26.2305C22.1001 25.1833 22.4275 23.0541 22.5698 21.0563Z" fill="white"/>
<path d="M30.583 20.8282C30.583 18.5228 30.5688 16.2208 30.5866 13.9154C30.6008 12.0109 31.1808 11.3957 33.0773 11.3439C34.618 11.3024 36.1623 11.3127 37.703 11.3473C38.9875 11.3784 39.9198 11.9038 39.8984 13.2933C39.8771 14.5859 38.9911 15.0733 37.7813 15.1424C37.3685 15.1666 36.9451 15.2046 36.5395 15.1493C34.981 14.935 34.401 15.4258 34.433 17.0815C34.4615 18.5988 34.8529 19.1968 36.4256 18.9721C36.9416 18.8995 37.5002 18.9548 38.0161 19.0585C39.0124 19.2659 39.539 19.9261 39.5248 20.9111C39.5106 21.8202 39.0124 22.4492 38.0909 22.6428C37.518 22.7638 36.9024 22.8363 36.3295 22.7603C34.8422 22.5633 34.4828 23.1232 34.4366 24.5542C34.3796 26.2651 34.9418 26.8457 36.6284 26.5934C37.1479 26.5174 37.6959 26.5727 38.2225 26.6349C39.2366 26.7593 39.8344 27.3469 39.902 28.3389C39.9767 29.4208 39.4003 30.2261 38.3293 30.2918C36.3224 30.4162 34.2978 30.4335 32.2945 30.3056C31.0314 30.2261 30.5652 29.279 30.5795 28.0797C30.6044 25.6637 30.5866 23.2476 30.583 20.8282Z" fill="white"/>
</g>
<defs>
<clipPath id="clip0_1_76">
<rect width="100" height="72" fill="white"/>
</clipPath>
</defs>
</svg>
