<svg width="100" height="100" viewBox="0 0 100 100" fill="none" xmlns="http://www.w3.org/2000/svg">
<g clip-path="url(#clip0_1_89)">
<path d="M99.9965 20.8607C99.9965 24.6996 100.007 28.5385 99.9929 32.3774C99.9858 34.5681 99.4485 35.1104 97.278 35.114C92.0617 35.1246 86.8453 35.1494 81.629 35.0927C80.526 35.0821 79.8036 35.3763 79.0956 36.2625C75.9999 40.1404 72.1179 42.611 66.9407 42.4586C66.0938 42.4338 65.6526 42.9159 65.1545 43.4157C59.2977 49.2716 53.4373 55.1274 47.5805 60.9798C45.0968 63.4611 44.7624 63.4646 42.3072 61.0081C30.5544 49.2503 18.7981 37.4925 7.04886 25.7347C5.35871 24.0438 5.36227 23.3491 7.08444 21.6263C13.8593 14.8453 20.6412 8.07133 27.4232 1.30092C29.1845 -0.457258 29.8855 -0.43599 31.6895 1.36827C33.3191 2.99884 34.9915 4.59751 36.5642 6.28125C37.2794 7.04691 37.9199 7.1497 38.8771 6.77042C41.1792 5.85588 43.5419 5.09377 45.8547 4.2005C50.2883 2.49195 54.64 2.67627 58.9596 4.59042C63.1263 6.43722 67.1293 8.58886 71.0718 10.8646C72.1997 11.5168 73.349 12.1513 74.6407 12.3994C75.7864 12.6192 77.2204 13.4947 77.4517 11.2119C77.5193 10.5526 78.423 10.262 79.1987 10.2761C80.0278 10.2903 80.8604 10.2336 81.6895 10.2832C83.2693 10.3789 84.7424 10.542 84.6321 8.15995C84.5859 7.17097 85.5003 6.7137 86.5215 6.7137C90.3146 6.72079 94.1076 6.71016 97.9043 6.71725C99.5446 6.72079 100.004 7.73458 100 9.17019C99.9894 13.0658 99.9965 16.9615 99.9965 20.8607ZM77.1243 24.6571C77.1243 22.5302 77.0923 20.4034 77.1385 18.2801C77.1599 17.277 77.0425 16.6885 75.7793 16.5716C72.9648 16.3128 70.4633 15.104 68.058 13.6613C64.6599 11.6267 61.1123 9.86141 57.515 8.20957C55.2093 7.1497 52.7968 6.71016 50.2527 7.0859C47.1748 7.53962 44.4492 9.05322 41.5173 9.95003C40.3929 10.2939 41.1614 10.822 41.5279 11.1942C43.2288 12.924 44.983 14.6007 46.6589 16.3553C47.5022 17.238 48.4487 17.7803 49.63 18.1383C53.5867 19.3329 57.4972 20.6763 61.4433 21.9099C62.8523 22.3494 63.4394 23.2427 62.9519 24.5755C62.4894 25.841 61.4895 26.0253 60.1943 25.5929C56.6112 24.3947 52.9889 23.3065 49.3845 22.1651C47.4701 21.559 45.5772 20.8819 43.6451 20.3396C42.1008 19.9071 40.5815 19.9674 39.3681 21.247C38.3291 22.3424 38.08 23.6787 38.5462 25.0293C39.0977 26.635 40.3893 27.546 41.9905 28.0813C46.7478 29.6799 51.4945 31.3176 56.2483 32.9304C57.0382 33.1998 57.7392 33.5188 58.3191 34.1923C63.3362 40.0305 70.6519 40.0624 75.6939 34.327C76.6724 33.214 77.2488 32.0478 77.1528 30.4988C77.0318 28.5598 77.1243 26.6067 77.1243 24.6571ZM41.2219 16.0824C39.9196 14.9126 38.7596 13.991 37.7491 12.9311C37.0588 12.2045 36.6069 12.1159 35.6925 12.6653C32.5221 14.5617 28.8002 15.2494 25.669 13.5727C22.3598 11.8004 20.7231 13.0552 18.9226 15.3309C18.8515 15.4231 18.7661 15.5152 18.67 15.579C17.8765 16.1249 17.9548 16.6637 18.4209 17.4826C20.7551 21.6086 20.7729 25.8126 18.4209 29.9316C17.8765 30.8851 18.0971 31.3459 18.7625 32.0053C24.7225 37.9178 30.6754 43.8411 36.582 49.8104C37.4111 50.6505 37.9768 50.6398 38.966 50.0727C42.0439 48.311 45.6483 47.5453 48.6479 49.2219C52.2061 51.2141 53.8785 49.5374 55.8462 47.2298C56.4013 46.5811 56.5294 46.1912 56.0597 45.4362C55.0812 43.873 54.5866 42.1361 54.3553 40.2893C54.1881 38.9777 55.1061 37.3507 54.0244 36.4362C53.0637 35.6209 51.5301 35.4755 50.2456 35.036C49.8542 34.9013 49.445 34.8056 49.0749 34.6283C48.3099 34.2632 47.922 34.4511 47.6445 35.2806C47.157 36.7516 46.3066 38.0348 45.2249 39.1514C42.051 42.4267 37.1691 43.4334 32.9526 41.6894C28.754 39.9525 25.975 35.7166 26.0853 31.2325C26.2027 26.5677 29.1169 22.5409 33.4579 20.9316C34.134 20.6799 34.9879 20.8288 35.4541 20.0028C36.6176 17.9398 38.4892 16.7949 41.2219 16.0824ZM88.3754 20.7579C88.3754 23.8276 88.3967 26.9009 88.3611 29.9706C88.3505 30.8461 88.5675 31.2644 89.546 31.229C91.3216 31.1652 93.1042 31.1652 94.8798 31.229C95.8085 31.2609 96.1002 30.9702 96.0931 30.0308C96.0575 23.9481 96.054 17.8654 96.0931 11.7791C96.1002 10.8149 95.748 10.5704 94.8549 10.5987C93.1967 10.6519 91.5315 10.6802 89.8769 10.5916C88.7205 10.5314 88.322 10.8965 88.3505 12.0733C88.4216 14.9693 88.3718 17.8618 88.3754 20.7579ZM34.4186 24.9158C31.4867 26.121 29.7431 28.9497 30.0207 31.9627C30.3231 35.2593 32.6182 37.8399 35.8312 38.4956C38.8557 39.1124 41.9976 37.6555 43.5063 34.9403C44.4848 33.175 44.4563 32.9588 42.5029 32.4058C38.507 31.2715 35.3544 29.29 34.4186 24.9158ZM81.0419 22.7075C81.0419 25.0647 81.1273 27.4255 81.0099 29.7756C80.9387 31.1864 81.6254 31.268 82.7107 31.229C83.6928 31.1935 84.5147 31.3495 84.4862 29.8465C84.3973 25.0753 84.3973 20.3006 84.4862 15.5294C84.5147 14.0123 83.6607 14.2108 82.6929 14.1576C81.5721 14.0973 80.9494 14.271 81.0134 15.6393C81.1237 17.9894 81.0419 20.3502 81.0419 22.7075ZM40.6242 53.6103C44.677 58.5056 44.9189 58.5304 48.5127 54.539C48.5518 54.4965 48.591 54.4504 48.6372 54.4114C49.2671 53.8584 49.1959 53.4933 48.3988 53.1601C45.7337 52.0471 43.1718 52.157 40.6242 53.6103ZM16.2646 23.6894C16.1401 22.3105 16.2006 20.492 15.0015 19.7264C14.2614 19.2549 13.3754 20.9493 12.589 21.6901C10.5003 23.661 10.5146 23.7213 12.5036 25.6992C13.2828 26.472 14.1617 28.0529 14.9054 27.7516C16.0689 27.2837 16.0013 25.5751 16.2184 24.3132C16.2504 24.1395 16.2468 23.9623 16.2646 23.6894ZM29.5261 10.3931C29.8784 10.3648 30.2342 10.3364 30.5864 10.308C31.7215 10.223 33.1412 10.1273 33.554 9.13829C33.8458 8.43644 32.4901 7.77003 31.8532 7.11426C29.551 4.7393 29.519 4.74284 27.1883 7.10717C26.5443 7.75939 25.2029 8.42935 25.4946 9.14538C25.9038 10.1485 27.3236 10.2372 28.4586 10.3151C28.8144 10.3399 29.1703 10.3683 29.5261 10.3931ZM58.3476 39.7434C58.3227 41.1648 58.465 42.6359 59.4258 43.0896C60.2299 43.4689 60.8704 42.1042 61.4397 41.3527C60.4256 40.8245 59.4969 40.3389 58.3476 39.7434Z" fill="white"/>
<path d="M0.00359585 82.1098C0.00359585 78.5686 0.00359585 75.0239 0.00359585 71.4828C0.00359585 68.1472 0.338068 67.8069 3.61518 67.8069C8.65361 67.8033 13.692 67.7892 18.7269 67.8211C19.6307 67.8281 20.2178 67.5765 20.7978 66.8179C27.5726 57.9667 38.5034 59.2747 44.2108 65.719C44.7196 66.2968 45.3744 66.4741 46.0397 66.7009C50.2313 68.1224 54.4158 69.5686 58.618 70.9617C61.3045 71.8514 63.5639 73.2409 64.8058 75.8924C65.2256 76.7927 65.7985 76.6226 66.5493 76.4064C70.8049 75.1941 75.0748 74.0279 79.341 72.8475C84.4755 71.4296 88.5639 73.2764 90.0228 77.6718C91.4034 81.8262 88.966 86.2394 84.2407 87.9763C78.7006 90.011 73.132 91.9748 67.5776 93.9704C62.8559 95.6684 58.1377 97.3804 53.4088 99.0606C49.2457 100.539 45.1466 100.227 41.1472 98.4651C36.8702 96.5793 32.7641 94.3604 28.7219 92.0208C27.3307 91.2162 25.8718 90.603 24.2635 90.3796C23.4878 90.2733 22.8936 90.2556 22.7548 91.2942C22.6125 92.354 21.7265 92.6731 20.7942 92.744C19.9687 92.8042 19.129 92.829 18.307 92.7581C16.6667 92.6199 15.311 92.6057 15.3466 94.9169C15.3608 95.9909 14.2863 96.3808 13.2437 96.3808C9.62856 96.3879 6.01342 96.4127 2.39827 96.3738C0.654748 96.356 0.0249451 95.6577 0.0142705 93.8038C-0.010637 89.9046 0.00715406 86.009 0.00359585 82.1098ZM22.8793 78.1787C22.8793 80.4225 22.9292 82.6699 22.858 84.9137C22.8224 85.9806 23.228 86.3883 24.2528 86.4663C26.7258 86.6506 28.9461 87.597 31.0597 88.8412C34.8349 91.0602 38.7098 93.0949 42.7093 94.8885C45.8654 96.3029 49.1105 96.4907 52.384 95.3139C59.4969 92.7581 66.6027 90.1776 73.712 87.6077C76.8788 86.4627 80.0812 85.4099 83.2088 84.1622C85.8668 83.1023 87.0197 80.855 86.2369 78.7317C85.4398 76.5588 83.4757 75.7967 80.6113 76.5836C75.9999 77.8526 71.3956 79.1571 66.777 80.4048C65.9159 80.6388 65.4071 80.9684 65.0442 81.89C63.4928 85.8353 59.5645 87.6857 55.4904 86.4698C52.4908 85.5765 49.5161 84.6017 46.5308 83.6553C43.887 82.8188 41.2433 81.9716 38.5995 81.1315C37.2652 80.7097 36.5571 79.8518 37.0268 78.4588C37.4894 77.0834 38.6209 77.0621 39.8129 77.3989C40.2648 77.5265 40.706 77.7037 41.1543 77.8455C46.2781 79.4619 51.4055 81.0712 56.5294 82.7018C58.0985 83.2016 59.4684 82.9109 60.6106 81.7482C61.6603 80.6813 61.9129 79.3414 61.4575 77.9731C60.8882 76.2646 59.4827 75.3926 57.8423 74.8396C53.2522 73.2941 48.6621 71.7486 44.0827 70.1783C43.2608 69.8947 42.3855 69.7139 41.7912 68.9376C39.1937 65.5453 35.6604 64.3189 31.4867 64.5245C27.1243 64.7407 22.8793 69.083 22.8793 73.3934C22.8793 74.9885 22.8793 76.5836 22.8793 78.1787ZM3.92475 82.124C3.92475 85.137 3.95677 88.15 3.90695 91.163C3.88916 92.1449 4.15959 92.5348 5.19859 92.4923C6.91364 92.4178 8.63938 92.4391 10.358 92.4852C11.244 92.51 11.6461 92.2477 11.6425 91.2942C11.6176 85.1512 11.614 79.0082 11.6425 72.8616C11.6461 71.8656 11.1515 71.6919 10.3117 71.7096C8.65361 71.7415 6.98837 71.7734 5.33024 71.699C4.26278 71.6494 3.87849 71.9719 3.9034 73.085C3.971 76.098 3.92475 79.111 3.92475 82.124ZM18.9582 80.4792C18.9582 78.005 18.8941 75.5273 18.9831 73.0566C19.0329 71.7061 18.3035 71.6954 17.3214 71.7061C16.3251 71.7202 15.4925 71.6139 15.5174 73.0991C15.5957 77.927 15.585 82.762 15.5245 87.5899C15.5067 89.0362 16.4034 88.8235 17.2787 88.8412C18.2038 88.8625 19.0365 88.9511 18.9831 87.5439C18.8906 85.1937 18.9582 82.8365 18.9582 80.4792Z" fill="white"/>
<path d="M70.1502 26.0466C70.0007 27.2305 69.4101 27.9962 68.2359 28.0033C66.9585 28.0139 66.2468 27.1809 66.2966 25.9863C66.3429 24.8839 67.0652 24.1147 68.2608 24.1679C69.4279 24.214 70.015 24.9654 70.1502 26.0466Z" fill="white"/>
<path d="M29.8677 76.9558C29.9424 75.7683 30.558 75.0381 31.7215 75.0097C32.9776 74.9778 33.7355 75.7541 33.7034 76.97C33.675 78.083 32.9562 78.8203 31.7713 78.8026C30.5971 78.7919 29.978 78.0936 29.8677 76.9558Z" fill="white"/>
</g>
<defs>
<clipPath id="clip0_1_89">
<rect width="100" height="100" fill="white"/>
</clipPath>
</defs>
</svg>
