<svg width="95" height="95" viewBox="0 0 95 95" fill="none" xmlns="http://www.w3.org/2000/svg">
<path d="M30.792 34.9836C37.7771 34.9836 44.3021 34.9735 50.8237 34.9937C52.1091 34.9971 51.7133 34.0802 51.7167 33.4566C51.7404 26.2666 51.7336 19.0767 51.7269 11.8867C51.7269 10.8687 51.7776 9.86084 52.2444 8.9406C53.0664 7.3226 54.3145 6.31473 56.2223 6.31473C67.5506 6.31473 78.8823 6.29787 90.2106 6.32821C92.8016 6.33495 94.9327 8.38442 94.9496 11.0676C95.0138 20.9542 95.0138 30.8409 94.9529 40.7241C94.936 43.3601 92.92 45.15 90.2173 45.1669C85.82 45.1938 81.4226 45.2141 77.0286 45.15C75.7771 45.1332 75.2358 45.3657 75.2832 46.7849C75.3948 50.1523 75.3881 53.5265 75.2866 56.894C75.246 58.2322 75.7466 58.5962 76.9373 58.4344C77.103 58.4109 77.2756 58.4311 77.4447 58.4311C80.2962 58.4344 80.2962 58.4344 81.0201 61.1648C81.585 63.2952 82.8061 63.8075 84.6665 62.6952C87.0681 61.2592 87.0681 61.2592 89.1315 63.2952C89.2533 63.4132 89.3751 63.5311 89.4935 63.6491C92.0372 66.1907 92.0372 66.1907 90.3628 69.3627C89.7878 70.4514 90.4913 71.9818 91.7327 72.3593C94.9834 73.3436 94.9834 73.3436 94.9834 76.647C94.9834 76.9268 94.9834 77.21 94.9834 77.4897C94.9834 80.3212 94.9834 80.3212 92.23 81.0325C90.0787 81.5887 89.6017 82.8325 90.7518 84.7842C92.2063 87.2483 92.5648 86.6954 90.2207 89.0719C90.0245 89.2708 89.8148 89.4629 89.6152 89.6584C87.1595 92.0989 87.1595 92.0989 84.1422 90.4404C82.9482 89.7831 81.4936 90.4371 81.1046 91.7955C80.056 95.4562 80.8509 94.9506 76.9001 94.9944C76.6734 94.9978 76.4502 94.9978 76.2236 94.9944C72.6854 94.9574 73.2334 95.4225 72.3404 92.0483C71.8566 90.2247 70.4867 89.6584 68.8664 90.6258C68.3827 90.9157 67.8855 91.182 67.4322 91.5124C66.6441 92.0854 66.0115 91.9371 65.3688 91.2528C64.3676 90.1876 63.3562 89.1224 62.2636 88.155C61.3469 87.346 61.3503 86.6044 62.0471 85.6909C62.453 85.1584 62.7879 84.5617 63.1025 83.9685C63.5862 83.0516 62.8996 81.4707 61.9118 81.1639C60.9918 80.8774 60.0548 80.7965 59.0874 80.7999C47.4208 80.8167 35.7509 80.81 24.0843 80.81C21.9432 80.81 21.9195 80.7864 21.9195 78.6392C21.9161 69.9896 21.8857 61.3367 21.9499 52.6872C21.9601 51.2175 21.6793 50.6175 20.0523 50.7119C17.5932 50.8535 17.5864 50.7422 17.5864 53.1894C17.5864 62.0075 17.5864 70.8256 17.5864 79.6471C17.5864 80.0954 17.5695 80.5471 17.5729 80.9954C17.5762 81.592 17.2786 81.9999 16.7035 82.0471C16.0338 82.1044 15.6651 81.6594 15.5907 81.0291C15.5332 80.5302 15.5568 80.0212 15.5568 79.5156C15.5568 69.966 15.5602 60.4165 15.5501 50.8669C15.5501 49.913 15.4317 48.9591 15.4655 48.0085C15.5264 46.3028 15.3573 44.968 13.6288 43.8152C11.6973 42.5241 11.8935 39.4432 13.7438 37.7511C14.4271 37.1241 14.3662 36.7533 13.9636 36.1095C13.2736 35.0005 12.3704 34.0836 11.4504 33.1701C7.02934 28.788 5.56129 23.5161 7.31348 17.5969C9.07242 11.644 13.2804 8.09452 19.3623 6.84395C27.5955 5.15179 36.2346 11.526 37.202 19.8149C37.8447 25.3127 36.1162 29.8364 32.1214 33.5847C31.7628 33.9151 31.4415 34.2926 30.792 34.9836ZM73.345 43.114C78.9229 43.114 84.5008 43.1242 90.0786 43.1073C91.9188 43.1006 92.9302 42.1736 92.9403 40.3365C92.9741 32.533 92.9437 24.7296 92.9741 16.9227C92.9775 16.0463 92.7171 15.7699 91.8274 15.7733C79.5453 15.7969 67.2631 15.8002 54.9809 15.7733C54.0067 15.7699 53.7429 16.0969 53.7463 17.0306C53.7767 24.6655 53.7463 32.3038 53.7733 39.9387C53.7835 42.2477 54.7441 43.1107 57.1221 43.114C62.5275 43.1174 67.9362 43.114 73.345 43.114ZM41.1799 78.7706C45.8547 78.7706 50.5328 78.7706 55.2075 78.7706C58.4515 78.7706 58.4514 78.7706 58.4548 75.5212C58.4548 73.0234 58.4481 72.9863 60.9376 72.4706C61.922 72.2683 62.6391 71.9885 63.1194 70.9604C63.8298 69.4368 62.5782 68.6784 62.0302 67.7042C61.4687 66.7065 61.3672 65.9986 62.3076 65.2469C63.7824 64.0705 64.7194 62.2738 66.573 61.5289C67.094 61.3199 66.9045 60.8682 66.9045 60.5244C66.9214 55.8086 66.891 51.0928 66.935 46.377C66.9451 45.3894 66.5798 45.1433 65.6564 45.1601C62.842 45.2073 60.021 45.1298 57.2067 45.1938C55.5492 45.2309 54.0608 44.9478 52.9547 43.623C52.4677 43.0399 51.8385 43.1882 51.2432 43.1882C44.9887 43.1781 38.7377 43.1781 32.4833 43.1848C30.4335 43.1882 28.6948 44.9275 28.6813 46.9568C28.661 49.549 27.7646 50.6108 25.231 50.7153C24.1757 50.7591 23.9321 51.0658 23.9355 52.0703C23.9727 60.4907 23.9829 68.911 23.9287 77.3313C23.922 78.5549 24.3245 78.8111 25.4678 78.801C30.7007 78.7369 35.9403 78.7673 41.1799 78.7706ZM23.056 32.6948C23.056 33.0319 23.056 33.369 23.056 33.7061C23.056 36.6387 23.056 36.6488 26.0124 36.6117C26.6923 36.605 27.4365 36.8544 27.8525 35.8971C28.6305 34.1173 30.0377 32.8027 31.3772 31.424C34.9019 27.8105 36.1636 23.4891 34.8647 18.6014C33.3966 13.0732 28.6136 9.07206 23.33 8.7215C17.3158 8.32374 12.1472 11.317 9.79968 16.562C7.46569 21.7801 8.72063 27.8206 13.0064 31.8319C14.0414 32.7993 15.1103 33.787 15.6617 35.0712C16.23 36.3994 17.079 36.7904 18.4016 36.6286C18.9022 36.5679 19.4164 36.5848 19.9204 36.6252C20.7221 36.6859 21.0333 36.3522 21.0163 35.5533C20.9825 34.0364 20.9588 32.5195 21.0265 31.006C21.0772 29.9071 20.8675 29.1993 19.7174 28.6498C17.6608 27.6655 16.7712 25.3734 17.3293 23.2498C17.9111 21.0452 19.7749 19.5452 21.9702 19.5149C24.2467 19.4812 26.141 20.9711 26.7566 23.2734C27.3181 25.37 26.4082 27.6993 24.355 28.6734C23.2015 29.2195 22.9275 29.9071 23.0425 31.0161C23.1068 31.5656 23.056 32.1319 23.056 32.6948ZM92.8659 76.7111C93.4511 74.965 92.4329 74.4189 90.9784 74.1964C90.3222 74.0953 89.6288 74.0818 89.1586 73.4717C87.9172 71.8638 87.8055 69.7402 88.8203 67.9537C89.0774 67.502 89.7708 67.0233 89.3615 66.4941C88.6816 65.6143 87.9036 64.7311 86.9802 64.1345C86.2056 63.6356 85.5967 64.5963 84.9574 64.9637C82.8636 66.1671 79.6738 64.9031 79.2476 62.4896C78.9635 60.8985 78.3377 60.4738 76.7242 60.4199C74.9111 60.3592 74.4545 61.1412 74.1568 62.648C73.7407 64.7446 70.5645 66.1132 68.7853 65.075C66.5798 63.7873 66.6305 63.8379 64.7025 65.6851C63.9143 66.4402 63.9515 66.966 64.4894 67.7952C64.99 68.5671 65.8999 69.3357 65.5177 70.3503C64.8344 72.1604 64.4657 74.338 61.7867 74.4054C59.7639 74.456 60.6569 76.0436 60.4979 77.0448C60.3356 78.0527 60.5013 78.7875 61.7833 79.0808C65.2065 79.8662 66.3802 82.5932 64.5333 85.4651C63.8839 86.4763 63.8704 87.1539 64.8547 87.8247C65.7747 88.455 66.1773 90.0798 67.9396 88.873C70.6761 87.0022 73.6697 88.2359 74.265 91.4753C74.5965 93.2719 75.7094 92.9045 76.8358 92.9854C77.9893 93.0663 78.8079 92.9686 79.1089 91.5393C79.8091 88.2224 82.6065 87.1438 85.573 88.8966C85.979 89.1359 86.4288 89.7629 86.8821 89.4022C87.7954 88.6674 88.7324 87.8651 89.348 86.891C89.7302 86.291 88.8711 85.6202 88.5227 85.0168C87.2982 82.9033 88.4821 79.7583 90.8668 79.2594C92.3754 78.9392 93.5086 78.5819 92.8659 76.7111ZM73.5073 13.7541C79.4776 13.7541 85.4513 13.7305 91.4215 13.7744C92.5107 13.7811 93.0181 13.6328 92.9911 12.3519C92.9268 9.32488 92.027 8.33385 88.9658 8.33385C78.544 8.33048 68.1223 8.33048 57.6971 8.33385C54.4769 8.33385 53.7767 9.1024 53.7294 12.2878C53.7124 13.4912 54.0879 13.7845 55.2549 13.7744C61.3368 13.7272 67.4221 13.7541 73.5073 13.7541ZM29.5134 37.0128C30.7785 37.9567 31.5632 38.796 31.6377 39.841C31.7324 41.1792 32.4563 41.1522 33.4271 41.1455C38.6092 41.1185 43.7947 41.1691 48.9768 41.1185C52.1598 41.0882 51.6524 41.823 51.7472 38.2365C51.7708 37.2926 51.4901 36.9859 50.5193 36.9926C43.7034 37.0297 36.8874 37.0128 29.5134 37.0128ZM68.9409 54.0052C68.9409 56.6445 68.9476 59.2873 68.9375 61.9266C68.9341 63.1705 69.5734 63.5143 70.6795 63.1806C71.5759 62.9109 72.1475 62.4525 72.4182 61.3974C72.9763 59.2165 73.4194 57.0625 73.3145 54.7872C73.2097 52.5456 73.3247 50.2939 73.2841 48.0456C73.2232 44.7421 73.9538 45.2579 70.3142 45.1466C69.1743 45.1096 68.8833 45.5073 68.9138 46.5894C68.9916 49.0602 68.9409 51.5344 68.9409 54.0052ZM21.8417 43.0972C23.6446 43.0972 25.4475 43.1208 27.2538 43.0904C28.7997 43.0635 29.6961 42.2477 29.7265 40.9264C29.7536 39.5949 28.8707 38.6881 27.3485 38.6713C23.7968 38.6342 20.2485 38.6477 16.6968 38.6679C15.2896 38.678 14.4846 39.423 14.4169 40.832C14.3493 42.1837 15.2592 43.0534 16.7746 43.0837C18.4591 43.1242 20.1504 43.0938 21.8417 43.0972ZM22.0582 45.1365C21.0468 45.1365 20.0354 45.1601 19.024 45.1298C18.1242 45.1028 17.3428 45.059 17.4545 46.3837C17.5492 47.5062 17.2684 48.7265 19.0375 48.6961C20.8912 48.6624 22.7482 48.6355 24.6019 48.7096C26.0902 48.7703 26.6551 48.2714 26.7126 46.6939C26.7735 45.0084 25.894 45.0759 24.7575 45.1298C23.8577 45.1736 22.9546 45.1365 22.0582 45.1365ZM21.977 21.5576C20.5157 21.5947 19.2202 22.9295 19.2134 24.4093C19.2033 26.0105 20.5123 27.3015 22.1089 27.2678C23.5871 27.2341 24.8793 25.9195 24.886 24.4363C24.8928 22.879 23.5195 21.5172 21.977 21.5576Z" fill="#B91E1E"/>
<path d="M42.8239 94.9911C34.594 94.9911 26.3642 94.9945 18.1343 94.9911C14.0752 94.9877 12.0863 93.0394 12.0964 89.0484C12.1066 84.4371 11.562 84.882 16.2198 84.882C29.6926 84.8786 43.1621 84.882 56.635 84.882C57.0848 84.882 57.5415 84.8483 57.9846 84.9056C58.6307 84.9865 59.0265 85.418 58.9757 86.0483C58.9284 86.5978 58.5326 86.9348 57.9203 86.9214C57.4705 86.9146 57.0172 86.9281 56.5673 86.9281C43.0403 86.9281 29.51 86.9517 15.983 86.8978C14.5488 86.891 14.0313 87.1607 14.0922 88.7146C14.2241 92.0248 15.0799 92.9686 18.4726 92.9686C34.6481 92.9686 50.8271 92.9686 67.0026 92.9686C67.3984 92.9686 67.7907 92.9585 68.1865 92.972C68.9983 92.999 70.1247 92.7461 70.118 93.9765C70.1146 95.19 69.0017 94.9877 68.1797 94.9877C59.7334 94.9945 51.2769 94.9911 42.8239 94.9911Z" fill="#B91E1E"/>
<path d="M8.0238 9.26101C7.91894 9.96889 7.55362 10.5183 6.93461 10.3464C5.86232 10.0464 5.11477 9.18685 4.80357 8.16212C4.64121 7.62953 5.24331 7.01267 5.85894 7.17447C6.93799 7.45762 7.5773 8.32729 8.0238 9.26101Z" fill="#B91E1E"/>
<path d="M23.012 1.84848C22.9376 2.58332 23.215 3.61142 22.0615 3.63839C20.8269 3.66535 20.9859 2.61028 20.9723 1.79791C20.9622 1.01925 20.8878 0.0383424 21.9533 0.00126331C23.2218 -0.0425574 22.9376 1.06307 23.012 1.84848Z" fill="#B91E1E"/>
<path d="M42.1169 20.843C41.4099 20.7958 40.5034 21.0149 40.5 19.916C40.4966 18.6554 41.5046 18.8407 42.3198 18.8104C43.2061 18.7733 44.2006 18.8711 44.1126 19.9801C44.0179 21.1666 42.8746 20.7554 42.1169 20.843Z" fill="#B91E1E"/>
<path d="M39.1977 8.10814C39.1876 8.77894 37.5741 10.4408 36.9754 10.3464C36.424 10.2587 36.0959 9.89131 36.0857 9.30816C36.0756 8.61714 37.6756 7.00588 38.3182 7.09353C38.8798 7.16768 39.2214 7.49802 39.1977 8.10814Z" fill="#B91E1E"/>
<path d="M1.87086 20.9476C1.02183 20.8533 -0.0200036 21.1061 0.000291963 19.9398C0.0205875 18.8611 0.991391 18.9049 1.77953 18.9083C2.61165 18.915 3.67717 18.8206 3.62304 20.0341C3.56554 21.187 2.47635 20.7993 1.87086 20.9476Z" fill="#B91E1E"/>
<path d="M77.8573 34.2791C77.2958 30.5139 81.0099 31.3802 82.2175 29.5094C81.3076 29.0408 80.33 28.5386 79.3491 28.0363C79.0007 27.8577 78.6387 27.7026 78.2971 27.5105C77.4481 27.0318 77.6273 26.1284 77.8573 25.5655C78.2024 24.7127 78.8011 25.5284 79.1969 25.7172C80.9659 26.5599 82.6944 27.4903 84.4399 28.3801C85.0014 28.6667 85.4986 28.933 85.458 29.7285C85.4242 30.4498 84.9371 30.6521 84.4399 30.9083C82.3055 32.0004 80.171 33.0926 77.8573 34.2791Z" fill="#B91E1E"/>
<path d="M64.3067 29.6443C65.5143 30.2646 66.4039 30.8545 67.3815 31.1949C68.8462 31.7073 69.2622 32.614 68.7548 34.1983C66.4648 33.0152 64.1714 31.8792 61.9321 30.6488C61.073 30.1769 61.1711 29.0511 62.1047 28.5488C64.2594 27.3825 66.4513 26.2836 68.6533 25.1443C69.154 27.1702 69.1506 27.1668 67.4627 28.0263C66.5189 28.505 65.5786 28.9938 64.3067 29.6443Z" fill="#B91E1E"/>
<path d="M76.9508 23.3747C75.6248 26.8466 74.2954 30.3219 72.9661 33.8006C72.5669 34.8456 71.6367 34.6197 70.9704 34.3973C70.2025 34.1411 70.8926 33.5006 71.0211 33.1467C72.0291 30.3725 73.2029 27.659 74.15 24.8679C74.6371 23.4353 75.3305 22.832 76.9508 23.3747Z" fill="#B91E1E"/>
<path d="M59.6895 61.0401C59.6387 63.8649 60.0615 63.8817 57.1356 64.6166C55.8333 64.9469 55.5593 65.7896 56.29 66.8683C57.687 68.9346 57.6531 68.9481 55.6473 70.8998C55.2853 71.2537 54.8997 71.5908 54.5851 71.9818C53.797 72.9627 52.9107 73.0706 51.9704 72.265C50.455 70.9706 49.0783 71.2537 48.7569 73.5661C48.5777 74.8672 47.9316 75.292 46.7206 75.1942C46.1625 75.1504 45.5841 75.1167 45.0327 75.2009C43.152 75.4807 42.0899 74.8942 41.8294 72.8414C41.6569 71.4593 40.6387 71.0515 39.5326 71.9144C37.8819 73.1953 36.7149 72.7807 35.5885 71.2942C35.2875 70.8964 34.9052 70.5425 34.5129 70.2256C33.5184 69.4234 33.3864 68.6245 34.1239 67.4919C35.4566 65.4424 35.2063 64.8357 32.8114 64.3401C31.5396 64.0772 31.11 63.4334 31.181 62.2502C31.2148 61.6907 31.2351 61.1244 31.1776 60.5682C30.9916 58.8288 31.3772 57.6828 33.4609 57.4771C34.868 57.3389 35.3314 56.1827 34.4824 55.0636C33.3019 53.5097 33.5319 52.3501 35.0405 51.2647C35.3551 51.0389 35.6359 50.7389 35.8659 50.4254C36.9077 49.0231 37.9902 48.949 39.4142 49.9973C40.6996 50.9445 41.64 50.5535 41.897 48.9557C42.1778 47.2062 43.0167 46.5321 44.735 46.7883C45.2323 46.8624 45.7566 46.8624 46.2504 46.7883C47.8166 46.5489 48.6115 47.1085 48.9125 48.7366C49.2711 50.6647 50.0694 50.9816 51.6761 49.8692C52.9581 48.9793 53.8985 49.077 54.8185 50.2872C55.123 50.6849 55.4849 51.0625 55.8874 51.3591C57.3284 52.4175 57.5415 53.5299 56.4151 55.0232C55.5728 56.1423 55.9585 57.0929 57.1559 57.5007C59.6895 58.3536 59.6895 58.3536 59.6895 61.0401ZM37.1614 55.8457C37.1817 57.167 35.8557 58.9738 34.5737 59.2671C33.6401 59.4828 33.1294 59.8536 33.1835 60.9525C33.2308 61.9334 33.4135 62.439 34.5162 62.6547C36.6439 63.0693 37.6823 65.5806 36.5728 67.4177C36.0959 68.2099 35.8321 68.7762 36.7048 69.5548C37.4861 70.2492 38.0037 70.4885 38.9779 69.8447C40.7098 68.702 43.2264 69.7368 43.6864 71.7492C43.9266 72.7942 44.3122 73.2358 45.4589 73.1987C46.5007 73.165 46.8864 72.8683 47.1028 71.8234C47.5493 69.6998 50.0558 68.7121 51.9264 69.9189C52.86 70.5189 53.337 70.2795 54.0676 69.6222C54.8896 68.8806 54.8185 68.3278 54.2875 67.4784C53.134 65.6211 54.1386 63.1536 56.29 62.6918C57.3352 62.466 57.6362 62.0749 57.687 61.0435C57.7445 59.8536 57.1559 59.5064 56.1885 59.2704C54.2029 58.7918 53.1509 56.3243 54.2705 54.6018C54.8659 53.685 54.8524 53.1254 54.0507 52.3265C53.2896 51.5681 52.7687 51.595 51.923 52.1276C50.1303 53.2636 47.5832 52.2389 47.1299 50.1591C46.9067 49.1377 46.5447 48.7636 45.486 48.804C44.5355 48.8411 43.9875 48.9557 43.7541 50.0782C43.2873 52.2996 40.8011 53.2771 38.8662 52.0602C38.0612 51.5512 37.5741 51.5411 36.8739 52.249C36.1331 52.9973 35.8219 53.6007 36.5559 54.5041C36.8671 54.8749 37.1919 55.2962 37.1614 55.8457Z" fill="#B91E1E"/>
<path d="M11.2407 21.4464C11.5282 16.1171 16.0845 11.5126 21.1043 11.3575C21.8451 11.3339 22.8632 11.0643 22.9241 12.244C22.9816 13.3362 22.0751 13.3429 21.2531 13.3969C17.282 13.6632 13.9704 16.7441 13.4021 20.6711C13.3615 20.9475 13.3277 21.2273 13.3007 21.5037C13.2262 22.2723 13.1045 23.0374 12.0559 22.8756C11.1256 22.7307 11.2508 21.9621 11.2407 21.4464Z" fill="#B91E1E"/>
<path d="M76.6396 66.6729C82.2344 66.6628 86.7637 71.1291 86.7975 76.6809C86.8313 82.1382 82.1431 86.8304 76.6869 86.8068C71.1902 86.7832 66.5696 82.1146 66.6271 76.6438C66.6846 71.146 71.1699 66.6796 76.6396 66.6729ZM76.7512 68.7156C72.3065 68.7055 68.6668 72.3022 68.6634 76.7045C68.6601 81.0764 72.3978 84.8079 76.7444 84.7675C81.0505 84.727 84.6698 81.1303 84.7679 76.7955C84.8627 72.4606 81.1621 68.7257 76.7512 68.7156Z" fill="#B91E1E"/>
<path d="M80.9355 11.0408C80.8002 11.634 80.5296 12.1026 79.8497 12.0689C79.1292 12.0318 78.7233 11.5734 78.7842 10.8756C78.8383 10.2318 79.3254 9.95873 79.9546 9.97559C80.648 9.99244 80.8949 10.4273 80.9355 11.0408Z" fill="#B91E1E"/>
<path d="M85.732 11.0002C85.5832 11.5934 85.3261 12.0788 84.653 12.0721C83.9189 12.062 83.5266 11.6035 83.5536 10.9092C83.5773 10.262 84.0373 9.94847 84.6766 9.96869C85.3396 9.99229 85.6441 10.4002 85.732 11.0002Z" fill="#B91E1E"/>
<path d="M89.3818 12.0856C88.7357 12.0486 88.3197 11.6576 88.2689 11.0677C88.208 10.3328 88.7087 9.97551 89.4224 9.96877C90.0989 9.9654 90.4744 10.3969 90.4473 11.007C90.4203 11.5901 90.0583 12.0317 89.3818 12.0856Z" fill="#B91E1E"/>
<path d="M45.3135 67.0874C41.9275 67.0537 39.1944 64.3098 39.218 60.9659C39.2417 57.5917 42.1271 54.8007 45.5367 54.8513C48.8618 54.8985 51.6355 57.7131 51.6152 61.0199C51.5949 64.4615 48.8314 67.1211 45.3135 67.0874ZM45.5097 65.0379C47.7625 65.0143 49.562 63.2177 49.562 60.9929C49.562 58.7277 47.617 56.8367 45.3372 56.8839C43.1452 56.9277 41.2679 58.8221 41.2679 60.9963C41.2679 63.2547 43.1621 65.0615 45.5097 65.0379Z" fill="#B91E1E"/>
<path d="M76.6633 72.4201C79.004 72.3999 80.9693 74.2909 81.0403 76.6235C81.108 78.946 79.0074 81.0629 76.6633 81.0292C74.3597 80.9988 72.3809 78.9966 72.3843 76.701C72.3877 74.365 74.3124 72.4403 76.6633 72.4201ZM76.6937 74.4628C75.4692 74.4695 74.4307 75.5078 74.4375 76.7145C74.4443 77.928 75.4929 78.9595 76.7174 78.9494C77.9283 78.9426 79.0006 77.8775 78.9905 76.6876C78.9803 75.5044 77.9013 74.4561 76.6937 74.4628Z" fill="#B91E1E"/>
</svg>
