<svg width="78" height="78" viewBox="0 0 78 78" fill="none" xmlns="http://www.w3.org/2000/svg">
<path d="M38.8562 27.7127C30.0713 27.7127 21.2864 27.7127 12.5042 27.7127C10.3709 27.7127 10.1302 27.9606 10.1302 30.124C10.1275 36.0485 10.1302 41.9731 10.1275 47.9003C10.1275 48.3933 10.1356 48.8945 10.0437 49.374C9.87608 50.2631 9.30556 50.81 8.39435 50.907C7.43177 51.0094 6.76662 50.581 6.36644 49.6866C6.13391 49.1666 6.15824 48.6385 6.15824 48.1024C6.15554 41.9973 6.21232 35.8923 6.13391 29.7899C6.09065 26.4572 8.3619 23.5717 12.077 23.8815C13.3749 23.9893 14.689 23.8573 15.995 23.9139C16.7791 23.9489 17.0143 23.6633 16.9765 22.9116C16.9251 21.8366 16.9684 20.759 16.9629 19.6813C16.9575 18.5982 17.4659 17.8977 18.515 17.6121C19.3397 17.3885 20.167 17.1865 20.9971 16.9817C22.5005 16.6099 22.9791 15.5214 22.1787 14.2121C20.0156 10.6638 19.656 10.9898 23.0223 7.77562C23.9011 6.93772 24.7474 6.0675 25.6099 5.21344C26.4157 4.41057 27.3026 4.27855 28.2868 4.88475C28.9763 5.30773 29.6685 5.72533 30.3661 6.13755C31.7045 6.93234 32.8401 6.45816 33.2376 4.93863C34.2921 0.894638 33.9027 0.964687 38.3344 1.01049C39.5944 1.02396 40.8571 1.01588 42.1171 1.01588C43.2771 1.01857 43.9531 1.63285 44.2424 2.71053C44.4398 3.44335 44.6101 4.18425 44.7994 4.91977C45.205 6.50665 46.3271 6.95119 47.7601 6.10791C51.2427 4.06301 50.8696 3.64003 54.0385 6.83804C54.893 7.70018 55.7366 8.5731 56.6261 9.39753C57.6158 10.3136 57.7158 11.2889 56.9885 12.3962C56.5694 13.0347 56.1773 13.6894 55.7852 14.3441C55.093 15.5053 55.5446 16.6557 56.837 16.9763C61.4012 18.0998 61.0902 17.7576 61.0037 22.3863C60.9794 23.6094 61.2957 24.0432 62.5503 23.93C63.8022 23.8169 65.0704 23.895 66.3331 23.9085C69.5101 23.9381 71.7787 25.9965 71.8138 29.1325C71.8868 35.639 71.849 42.1482 71.8274 48.6574C71.8219 50.0422 71.0054 50.9205 69.8616 50.9394C68.6557 50.9582 67.8797 50.0853 67.8743 48.5739C67.8554 42.4257 67.8662 36.2748 67.8662 30.1267C67.8662 27.9659 67.6255 27.7235 65.4813 27.7235C56.6045 27.7127 47.7304 27.7127 38.8562 27.7127ZM52.3919 23.8977C53.3382 23.8977 54.2846 23.8977 55.2309 23.8977C57.2372 23.8977 57.2075 23.8977 57.1426 21.9309C57.121 21.2655 56.9101 20.9718 56.2476 20.8721C55.5879 20.7724 54.9443 20.5542 54.2954 20.3845C52.6893 19.9642 50.6316 15.6157 51.3401 14.1258C51.4536 13.8834 51.6159 13.6624 51.7565 13.4334C51.989 13.0509 52.181 12.6306 52.4676 12.2938C53.0732 11.5798 52.9137 11.0356 52.2215 10.5075C51.9025 10.2651 51.605 9.97408 51.3536 9.65886C50.8777 9.06075 50.3721 8.92335 49.761 9.44333C47.9818 10.9655 46.1135 11.1838 44.1234 9.84476C43.9422 9.72352 43.7097 9.65347 43.4934 9.61576C42.1415 9.37058 41.5358 8.47072 41.306 7.21253C41.2113 6.68716 41.087 6.16449 40.9545 5.64451C40.8544 5.24846 40.7219 4.94402 40.192 4.8605C37.8017 4.48331 37.242 4.82817 36.7013 7.15595C36.6607 7.33108 36.658 7.51428 36.6066 7.68402C36.1389 9.28437 31.791 11.2862 30.2579 10.5991C30.0146 10.4914 29.7983 10.3189 29.5684 10.1815C29.0655 9.88248 28.5599 9.58881 28.057 9.28976C27.7839 9.12811 27.4783 8.90718 27.1944 9.16852C26.5022 9.80704 25.6721 10.3917 25.2287 11.1811C24.8556 11.8439 25.7343 12.4123 26.048 13.0239C26.4941 13.8888 27.2404 14.6485 26.7672 15.7504C25.7397 18.1375 25.0908 20.8937 21.6379 20.8694C21.5514 20.8694 21.4568 20.9018 21.3811 20.9449C20.3076 21.5537 21.0106 22.5452 20.9025 23.3508C20.8079 24.0513 21.4676 23.8896 21.8786 23.8923C24.1769 23.9058 26.4752 23.8384 28.7708 23.9246C29.8631 23.9651 30.2119 23.7145 30.2011 22.5533C30.1633 18.97 32.5048 15.7235 35.8549 14.468C41.6142 12.31 47.7655 16.4779 47.7818 22.6233C47.7845 23.7495 48.1414 23.9866 49.1445 23.9166C50.2261 23.8411 51.313 23.8977 52.3919 23.8977ZM38.9941 23.8977C40.3001 23.8977 41.6061 23.86 42.9094 23.9112C43.68 23.9408 43.9233 23.631 43.9639 22.9035C44.1045 20.274 41.6845 17.728 38.9969 17.728C36.3092 17.728 33.8892 20.2713 34.0298 22.9035C34.0677 23.6283 34.311 23.9408 35.0816 23.9112C36.3822 23.86 37.6909 23.8977 38.9941 23.8977Z" fill="#B91E1E" stroke="white"/>
<path d="M38.9403 76.9896C28.306 76.9896 17.6716 76.9923 7.03724 76.9896C3.03009 76.9896 1.0103 74.9555 1.00489 70.9276C1.00218 68.1876 0.994072 65.4503 1.00759 62.7103C1.0157 60.8998 1.63489 60.2855 3.43027 60.2855C11.3148 60.2829 19.202 60.3017 27.0865 60.264C28.3168 60.2586 29.0063 60.7624 29.4335 61.8509C29.8553 62.9312 30.0824 64.4157 30.899 64.9223C31.7831 65.4719 33.2459 65.1189 34.4573 65.1243C38.3319 65.1351 42.2093 65.1055 46.084 65.1459C46.9276 65.154 47.3277 64.9088 47.6522 64.0951C49.4314 59.6389 48.6986 60.3044 53.3141 60.2882C60.3875 60.2613 67.4635 60.2802 74.5369 60.2828C76.3485 60.2828 76.9758 60.889 76.9839 62.6834C76.9974 65.6012 77.0055 68.5217 76.9839 71.4395C76.9568 74.8288 74.7991 76.9788 71.3841 76.9815C60.5686 76.9977 49.7558 76.9869 38.9403 76.9896ZM38.9971 73.1207C49.6287 73.1207 60.2577 73.1234 70.8893 73.118C72.7009 73.118 73.12 72.695 73.1309 70.9034C73.1417 69.0632 73.0633 67.2204 73.1606 65.383C73.2201 64.2541 72.7739 64.0628 71.7654 64.0709C66.1792 64.1113 60.5957 64.0898 55.0095 64.0898C51.8648 64.0898 51.8135 64.0709 50.6968 67.0103C50.156 68.4328 49.3259 69.0174 47.7766 68.9959C42.5987 68.9258 37.418 68.977 32.2374 68.9662C27.4867 68.9555 28.3249 69.3919 26.543 65.154C26.5268 65.1135 26.5052 65.0704 26.4944 65.0273C26.3294 64.308 25.9157 64.0655 25.1478 64.0709C18.7504 64.1032 12.3558 64.1086 5.95839 64.0682C5.02015 64.0628 4.82547 64.4131 4.8498 65.2483C4.89847 67.0426 4.86332 68.8396 4.86603 70.634C4.86873 72.7785 5.20942 73.118 7.38063 73.118C17.9149 73.1207 28.4547 73.1207 38.9971 73.1207Z" fill="#B91E1E" stroke="white"/>
<path d="M32.0996 52.5235C28.1925 50.5163 24.5207 48.6492 20.8677 46.7417C19.8835 46.2272 19.9376 44.2873 20.9407 43.762C24.3611 41.9757 27.8059 40.2353 31.2209 38.4436C32.0023 38.0341 32.0293 38.317 32.124 39.0256C32.3808 40.9331 31.9077 42.2101 29.8825 42.8917C28.2872 43.4306 26.8352 44.3843 25.0885 45.2707C27.138 46.2972 28.9712 47.2698 30.8558 48.1346C31.786 48.5603 32.2808 49.0695 32.1186 50.1526C32.0158 50.8531 32.0996 51.5778 32.0996 52.5235Z" fill="#B91E1E" stroke="white"/>
<path d="M45.8946 52.5287C45.8946 51.3055 45.9108 50.2925 45.8892 49.2795C45.8757 48.676 46.3543 48.5844 46.7382 48.3904C48.7418 47.3827 50.7481 46.3805 52.9572 45.2732C51.0266 44.3033 49.2799 43.3172 47.4412 42.5413C46.2245 42.0267 45.6567 41.3531 45.8757 40.0249C45.9676 39.4618 45.8919 38.8718 45.8919 38.3168C46.4273 38.1012 46.7409 38.4461 47.0762 38.6185C50.3209 40.262 53.5385 41.9566 56.8021 43.5624C57.5916 43.9503 57.7809 44.4461 57.7728 45.2462C57.7646 46.0195 57.6592 46.5449 56.848 46.9463C53.2384 48.7245 49.6719 50.5915 45.8946 52.5287Z" fill="#B91E1E" stroke="white"/>
<path d="M34.2168 52.7281C36.4042 47.0434 38.5241 41.5849 40.5925 36.1076C40.944 35.1727 41.6416 35.4421 42.2581 35.4314C44.4861 35.399 44.4888 35.4152 43.6831 37.4951C41.9201 42.0429 40.0896 46.5638 38.4376 51.152C37.9671 52.4614 37.3425 52.9383 36.0284 52.7416C35.5011 52.6635 34.955 52.7281 34.2168 52.7281Z" fill="#B91E1E" stroke="white"/>
<path d="M10.244 55.3146C10.2602 56.4893 9.43553 57.3595 8.26475 57.4053C7.02096 57.4538 6.12868 56.6105 6.11246 55.3793C6.09894 54.1534 6.9804 53.267 8.19985 53.2832C9.36252 53.2966 10.2278 54.1588 10.244 55.3146Z" fill="#B91E1E" stroke="white"/>
<path d="M71.9034 55.2769C71.9304 56.5324 71.0895 57.4107 69.8565 57.4107C68.6938 57.4107 67.8097 56.5594 67.7772 55.4143C67.7448 54.1965 68.6317 53.2859 69.8538 53.2832C71.0219 53.2805 71.8763 54.1103 71.9034 55.2769Z" fill="#B91E1E" stroke="white"/>
</svg>
