<svg width="73" height="73" viewBox="0 0 73 73" fill="none" xmlns="http://www.w3.org/2000/svg">
<path d="M63.8426 17.548C65.3892 17.548 66.6007 17.543 67.8123 17.5505C70.3916 17.5656 71.777 18.9258 71.7795 21.4982C71.787 31.7877 71.782 42.0773 71.782 52.3668C71.782 57.4288 71.7845 62.4882 71.782 67.5502C71.7795 70.4664 70.4747 71.7965 67.5932 71.7965C48.785 71.799 29.9793 71.804 11.1711 71.794C5.1032 71.7915 1.00252 67.6757 1 61.6299C1 44.858 1 28.086 1.00252 11.314C1.00252 4.87929 4.8765 1.02447 11.3348 1.02196C11.7126 1.02196 12.0905 1.01694 12.4683 1.02196C14.9292 1.05961 16.3448 2.46752 16.3549 4.94956C16.3725 8.75669 16.3901 12.5613 16.3372 16.3685C16.3246 17.292 16.5513 17.5731 17.5135 17.5681C26.9592 17.5304 36.4049 17.5405 45.8505 17.558C46.4853 17.558 46.9487 17.3874 47.4021 16.9331C52.0998 12.21 56.8251 7.51693 61.5228 2.79377C63.893 0.409608 65.626 0.39204 68.0365 2.8013C68.8954 3.6596 69.777 4.50033 70.6082 5.38373C72.2102 7.09029 72.1976 9.05534 70.5604 10.7268C68.6561 12.6717 66.7141 14.5841 64.7922 16.5115C64.5353 16.7725 64.2985 17.0486 63.8426 17.548ZM44.1024 19.9347C43.916 19.9171 43.7649 19.8895 43.6163 19.8895C34.8432 19.887 26.07 19.897 17.2944 19.8694C16.4607 19.8669 16.3448 20.2032 16.3473 20.9084C16.3725 24.8812 16.3599 28.8565 16.3599 32.8292C16.3599 38.8097 16.3599 44.7927 16.3599 50.7732C16.3599 54.0659 15.1357 55.2705 11.7907 55.273C11.2441 55.273 10.6975 55.2579 10.1535 55.2881C5.68001 55.5315 2.54657 59.6624 3.57678 63.9463C4.35258 67.1712 7.30718 69.46 10.9469 69.465C29.8382 69.4901 48.727 69.4801 67.6184 69.4751C69.0163 69.4751 69.4622 69.0509 69.4647 67.7008C69.4722 52.3518 69.4722 37.0003 69.4647 21.6513C69.4647 20.276 69.0491 19.902 67.6284 19.892C65.9081 19.882 64.1852 19.9221 62.4648 19.8744C61.7343 19.8543 61.2155 20.0752 60.7016 20.5972C57.3163 24.0254 53.8957 27.4184 50.4978 30.8341C49.7698 31.5644 48.9537 32.1667 47.9286 32.3122C46.1477 32.5657 44.3644 32.8769 42.5559 32.8794C37.3091 32.8895 32.0599 32.8945 26.8131 32.8694C26.0524 32.8669 25.6947 32.9923 25.7048 33.8808C25.7552 37.5198 25.7401 41.1587 25.7124 44.7977C25.7073 45.5004 25.8182 45.8643 26.6544 45.8618C35.5132 45.8367 44.3694 45.8417 53.2282 45.8593C53.9436 45.8618 54.1703 45.6259 54.1526 44.9182C54.1098 43.2869 54.1526 41.6557 54.1375 40.0244C54.13 39.2464 54.5582 38.7896 55.2559 38.7821C55.9536 38.7746 56.4019 39.2389 56.4196 39.9993C56.4221 40.1674 56.4271 40.3331 56.4271 40.5012C56.4271 46.1053 56.4347 51.7118 56.4221 57.3158C56.4171 59.1479 55.5556 59.9861 53.7118 59.9861C46.1553 59.9911 38.5988 59.9836 31.0422 59.9962C30.1531 59.9987 29.3546 59.8606 29.3571 58.8041C29.3597 57.6948 30.2488 57.6647 31.0851 57.6647C33.3092 57.6672 35.5359 57.6321 37.76 57.6823C38.5988 57.7023 38.8255 57.4213 38.8078 56.6081C38.7575 54.1838 38.7549 51.757 38.8103 49.3302C38.8305 48.4693 38.6088 48.1883 37.7046 48.2008C34.0951 48.251 30.4831 48.2585 26.8736 48.1983C25.8862 48.1807 25.7023 48.5195 25.7098 49.4155C25.7501 54.1838 25.73 58.9521 25.7275 63.7205C25.7275 64.0969 25.7224 64.4734 25.6998 64.8498C25.6595 65.5124 25.259 65.816 24.6267 65.8361C23.9945 65.8562 23.5764 65.54 23.4656 64.9226C23.4001 64.5562 23.4278 64.1722 23.4278 63.7958C23.4253 54.5929 23.4353 45.3925 23.4152 36.1896C23.4127 35.1205 23.8862 33.7377 23.1759 33.0727C22.6293 32.5607 21.2666 32.9146 20.2666 32.8819C20.2238 32.8794 20.1835 32.8794 20.1407 32.8819C19.2843 32.9171 18.7075 32.4829 18.6974 31.6698C18.6898 30.8918 19.3145 30.5404 20.0702 30.4978C20.4052 30.4777 20.7427 30.4852 21.0777 30.4852C26.6192 30.4852 32.1606 30.4852 37.7021 30.4852C39.9438 30.4852 39.964 30.4852 40.0547 28.219C40.1655 25.4107 40.7574 22.8383 43.2284 21.059C43.5735 20.8105 43.9639 20.5119 44.1024 19.9347ZM3.31482 56.1112C5.78832 53.6242 8.52127 52.7809 11.6471 52.9164C13.8108 53.0093 14.0023 52.7483 14.0023 50.5749C14.0023 35.6124 14.0023 20.6524 14.0023 5.6899C14.0023 5.35612 14.0123 5.01983 13.9872 4.68856C13.9242 3.84531 13.4456 3.42118 12.6119 3.35091C6.18126 2.79628 3.24933 6.62349 3.28207 11.6127C3.37527 25.8624 3.31482 40.1147 3.31482 54.367C3.31482 54.8187 3.31482 55.273 3.31482 56.1112ZM62.1701 15.7486C62.0542 15.598 61.9711 15.4574 61.8603 15.347C60.3817 13.8638 58.8956 12.3932 57.4246 10.9024C56.9813 10.4532 56.7722 10.8698 56.5329 11.1082C52.6237 15.0158 48.727 18.9358 44.8027 22.8258C44.3266 23.2976 44.3518 23.5762 44.8128 24.0204C46.1427 25.2953 47.4651 26.5802 48.7195 27.9279C49.2837 28.5327 49.586 28.4047 50.1023 27.8827C53.9284 24.0128 57.7873 20.1731 61.6336 16.3233C61.8124 16.1451 61.9761 15.9569 62.1701 15.7486ZM47.6162 48.2209C45.7296 48.2209 43.8405 48.2385 41.9539 48.2108C41.3342 48.2008 41.0521 48.3489 41.0597 49.039C41.0924 51.629 41.0899 54.2215 41.0597 56.8139C41.0521 57.4815 41.3015 57.6747 41.9413 57.6722C45.717 57.6521 49.4928 57.6521 53.2685 57.6722C53.9007 57.6747 54.1627 57.5016 54.1526 56.8265C54.1199 54.2365 54.1199 51.644 54.1526 49.0516C54.1602 48.3765 53.9184 48.1983 53.2786 48.2083C51.392 48.241 49.5054 48.2209 47.6162 48.2209ZM64.6789 3.37852C63.7696 3.59184 63.3388 4.43759 62.6663 4.97466C62.2205 5.33102 62.2809 5.59203 62.6613 5.96095C63.7696 7.03758 64.8476 8.14936 65.9408 9.24105C67.3488 10.6465 67.3488 10.6465 68.7015 9.25862C69.6611 8.27233 69.6763 7.81307 68.7292 6.84183C67.7947 5.88566 66.835 4.95207 65.893 4.00593C65.5605 3.67215 65.2003 3.40362 64.6789 3.37852ZM65.5378 12.2677C65.369 12.0744 65.2204 11.8837 65.0491 11.7131C63.7267 10.3855 62.3641 9.09299 61.092 7.72021C60.4296 7.00496 60.082 7.49936 59.7218 7.93604C59.3691 8.36519 58.4195 8.63874 59.3037 9.47445C60.6336 10.7343 61.8955 12.0669 63.2129 13.3393C63.4396 13.5576 63.6109 14.1273 64.0542 13.8237C64.626 13.4271 65.1297 12.9252 65.5378 12.2677ZM42.8506 25.6065C42.4249 26.8939 42.5357 28.2466 42.3191 29.5491C42.2335 30.0736 42.5408 30.44 43.1125 30.44C44.5055 30.44 45.8757 30.2393 47.3467 29.9632C45.8127 28.4775 44.382 27.0897 42.8506 25.6065Z" fill="#B91E1E" stroke="#B91E1E" stroke-width="0.5"/>
</svg>
