<svg width="84" height="83" viewBox="0 0 84 83" fill="none" xmlns="http://www.w3.org/2000/svg">
<path d="M31.115 3.77091C33.1262 7.11749 35.0015 10.2759 36.9181 13.4078C37.2873 14.0136 37.2046 14.6311 37.2046 15.2546C37.2134 26.2324 37.2282 37.2103 37.1839 48.1881C37.178 49.3968 37.4792 49.7379 38.7196 49.735C52.2039 49.6909 65.6912 49.6938 79.1756 49.732C80.3244 49.735 80.6581 49.4497 80.6522 48.2793C80.6079 37.0074 80.6286 25.7354 80.6227 14.4635C80.6197 11.3845 79.214 9.99356 76.1279 9.99061C63.7244 9.98767 51.3209 9.97885 38.9204 10.0083C37.8868 10.0112 37.4202 9.84358 37.4644 8.66433C37.5028 7.69976 37.7657 7.41451 38.7284 7.42627C42.4672 7.47332 46.2089 7.44686 49.9506 7.44686C58.5149 7.44686 67.0793 7.44392 75.6436 7.44686C80.6138 7.4498 83.003 9.80829 83.003 14.7135C83.0059 29.2702 83.0059 43.827 83 58.3808C82.9971 61.7774 81.3433 64.1006 78.4107 64.9181C77.637 65.1328 76.8485 65.0857 76.0659 65.0857C69.2233 65.0946 62.3836 65.1152 55.5411 65.0652C54.407 65.0563 53.9877 65.321 54.0467 66.5179C54.1501 68.5705 54.153 70.6379 54.0467 72.6906C53.9818 73.911 54.4366 74.2433 55.5529 74.1168C56.1849 74.0462 56.8316 74.0992 57.4695 74.108C60.2278 74.1462 61.7989 75.5372 62.2183 78.3074C62.8886 82.7333 62.6908 82.9715 58.3112 82.9715C46.3034 82.9715 34.2927 82.9538 22.2849 82.9979C21.0978 83.0009 20.5809 82.7538 20.7197 81.4834C20.8585 80.2248 20.64 78.9456 20.9235 77.6781C21.4078 75.5196 22.9524 74.1727 25.1496 74.1168C26.0355 74.0933 26.9244 74.0462 27.8045 74.1168C28.7466 74.1903 28.9681 73.7963 28.9474 72.9288C28.8972 70.7732 28.8706 68.6147 28.9562 66.462C29.0005 65.3592 28.6698 65.0534 27.5594 65.0622C20.6193 65.1122 13.6793 65.0946 6.73924 65.0828C2.44527 65.0828 0.0147744 62.642 0.0118212 58.3308C0.00296153 43.627 0.0177276 28.9232 8.32318e-06 14.2224C-0.00294489 11.7992 0.779656 9.80829 2.88234 8.47024C3.22196 8.25557 3.79784 7.6086 4.04591 8.39084C4.24082 9.00252 5.25672 9.69066 4.29102 10.3964C2.78489 11.4963 2.36258 12.9725 2.36553 14.7488C2.39506 25.9237 2.39802 37.0985 2.35372 48.2705C2.34781 49.4291 2.6579 49.7556 3.82146 49.735C7.10248 49.6762 7.10248 49.7291 7.10248 46.4266C7.10248 31.5758 7.13201 16.725 7.06114 1.87706C7.05228 0.283166 7.5366 -0.0403175 9.01321 0.00379386C12.5039 0.109661 16.0035 0.0978982 19.4942 0.00673462C20.7522 -0.0256137 21.018 0.350803 21.0121 1.55357C20.9708 16.9926 21.0032 32.4286 20.953 47.8676C20.9471 49.2792 21.1952 50.0144 22.7634 49.7144C23.0971 49.6497 23.4574 49.6644 23.794 49.7115C24.7715 49.8467 25.0669 49.4409 25.0491 48.4793C24.9989 45.3444 25.0314 42.2066 25.0314 39.0688C25.0314 31.1288 25.0432 23.1887 25.0137 15.2487C25.0108 14.2753 25.2411 13.4519 25.7461 12.6285C27.5239 9.76418 29.2486 6.86753 31.115 3.77091ZM41.593 52.1229C39.133 52.1229 36.6759 52.1229 34.2159 52.1229C24.0834 52.1229 13.9539 52.1435 3.82146 52.0964C2.65199 52.0905 2.2917 52.4023 2.35962 53.5609C2.45708 55.2195 2.35667 56.8899 2.39211 58.5543C2.44527 61.1981 3.91301 62.6596 6.5207 62.6596C29.8334 62.6655 53.146 62.6655 76.4586 62.6596C79.0841 62.6596 80.5548 61.2128 80.6168 58.5808C80.6522 57.0634 80.6374 55.543 80.6227 54.0256C80.602 51.8641 80.8944 52.1258 78.7769 52.1229C66.3793 52.1199 53.9877 52.1229 41.593 52.1229ZM18.5491 26.1354C18.5491 18.6894 18.5285 11.2463 18.5728 3.80032C18.5787 2.72988 18.3306 2.3417 17.1907 2.38875C14.9816 2.47991 12.7638 2.46521 10.5518 2.39757C9.29081 2.35934 9.55365 3.18864 9.56546 3.87089C9.57727 4.53256 9.24061 5.42656 10.5253 5.35598C11.801 5.28834 13.0857 5.40891 14.3585 5.32069C15.3862 5.25011 15.5723 5.6824 15.59 6.5911C15.6077 7.58213 15.2356 7.87327 14.2965 7.82622C13.0709 7.76446 11.8365 7.83798 10.6079 7.80563C9.8785 7.78505 9.5566 8.0056 9.53297 8.79961C9.50049 9.83475 9.63043 10.4406 10.9387 10.3612C11.6918 10.317 12.9735 9.63184 12.9971 11.4669C13.0207 13.3843 11.6918 12.505 10.8708 12.6991C10.732 12.7314 10.5755 12.7167 10.4307 12.702C9.36759 12.6079 9.59204 13.3754 9.55365 13.9812C9.5123 14.6458 9.6068 15.1222 10.475 15.0811C11.6534 15.0281 12.8347 15.084 14.0159 15.0634C14.8871 15.0487 15.593 14.9634 15.6107 16.2809C15.6314 17.6836 14.8783 17.6189 13.9392 17.5925C12.9557 17.566 11.9635 17.6631 10.9889 17.566C9.77809 17.4484 9.46505 17.9395 9.53297 19.0687C9.63634 20.8038 10.921 19.9304 11.6298 19.9774C12.5984 20.0421 12.9912 20.2127 12.9971 21.2861C13.003 22.3859 12.4832 22.4918 11.6475 22.4241C11.3049 22.3977 10.9564 22.4536 10.6168 22.4124C9.74561 22.3095 9.5123 22.727 9.53888 23.524C9.56251 24.2592 9.51821 24.8856 10.5814 24.8326C11.9074 24.7679 13.2393 24.865 14.5652 24.8062C15.6638 24.7562 15.5487 25.4561 15.5693 26.156C15.59 26.8794 15.4985 27.3882 14.5564 27.344C13.2304 27.2823 11.9014 27.3587 10.5725 27.3205C9.81648 27.297 9.61271 27.5764 9.52707 28.3292C9.30558 30.2466 10.6581 29.7555 11.612 29.7261C12.5807 29.6937 13 29.8996 12.9971 30.9935C12.9971 32.0669 12.5187 32.2345 11.6593 32.1492C11.4644 32.1316 11.2636 32.161 11.0686 32.1434C10.1502 32.0698 9.5064 32.1169 9.50935 33.3961C9.5123 34.7577 10.3156 34.5871 11.1484 34.5871C12.2795 34.5871 13.4135 34.6371 14.5416 34.5754C15.6136 34.5136 15.5605 35.1694 15.5723 35.8958C15.5841 36.6251 15.4896 37.125 14.5505 37.0721C13.3751 37.0074 12.1909 37.0515 11.0096 37.0574C9.56251 37.0633 9.29376 37.372 9.56841 38.7865C9.81353 40.054 10.8353 39.3835 11.4791 39.4217C12.4094 39.4776 13.0237 39.46 13.006 40.7245C12.9882 41.942 12.3622 41.942 11.5146 41.8949C11.172 41.8773 10.8235 41.9155 10.481 41.889C9.47391 41.8126 9.56546 42.4978 9.54774 43.1506C9.52707 43.8564 9.58023 44.4034 10.5371 44.3652C11.8631 44.3122 13.195 44.4063 14.5209 44.3387C15.5723 44.2858 15.5634 44.8915 15.5752 45.6385C15.5871 46.3913 15.4512 46.8383 14.5357 46.7913C13.2599 46.7266 11.9723 46.853 10.7024 46.7531C9.44143 46.6531 9.53593 47.4059 9.54774 48.2234C9.55955 49.0233 9.41189 49.7762 10.6906 49.7203C12.8494 49.6291 15.02 49.6321 17.1818 49.7203C18.3129 49.7673 18.5816 49.3909 18.5728 48.3087C18.5285 40.9274 18.5491 33.5314 18.5491 26.1354ZM41.5222 74.108C44.5167 74.108 47.5142 74.0786 50.5088 74.1256C51.4125 74.1404 51.6989 73.858 51.6783 72.9582C51.6221 70.7114 51.634 68.4588 51.6723 66.2121C51.6842 65.4298 51.504 65.074 50.621 65.0769C44.5315 65.1093 38.442 65.1034 32.3554 65.0799C31.5846 65.0769 31.3277 65.3387 31.3395 66.0974C31.3749 68.3471 31.4074 70.5967 31.3277 72.8435C31.2893 73.9227 31.6998 74.1433 32.6862 74.1256C35.6276 74.0727 38.5749 74.108 41.5222 74.108ZM27.4855 16.4956C27.4855 25.2561 27.4915 33.8078 27.4737 42.3625C27.4708 43.1242 27.837 43.2418 28.4719 43.233C30.0932 43.2094 31.7205 43.1447 33.3359 43.2536C34.5496 43.333 34.8036 42.8742 34.7977 41.7567C34.7564 33.7784 34.78 25.8031 34.7652 17.8248C34.7652 17.4278 34.9778 16.9455 34.4728 16.6014C33.3772 17.2396 32.2757 18.3924 31.18 18.3835C30.0253 18.3747 28.8795 17.2602 27.4855 16.4956ZM41.3538 80.6012C46.8173 80.6012 52.2778 80.6012 57.7412 80.6012C59.711 80.6012 60.4463 79.3161 59.4806 77.5663C58.9491 76.6047 58.066 76.49 57.0826 76.493C46.6991 76.5047 36.3156 76.4988 25.9322 76.5018C25.6368 76.5018 25.3386 76.4841 25.0491 76.5283C23.6818 76.74 23.1325 77.7957 23.2477 79.719C23.3392 81.2423 24.4703 80.563 25.1171 80.5689C30.5274 80.6277 35.9406 80.6012 41.3538 80.6012ZM31.1209 49.7085C31.3661 49.7085 31.6112 49.7085 31.8563 49.7085C34.9601 49.7085 34.9335 49.7085 34.7888 46.6384C34.7534 45.8796 34.523 45.6091 33.7582 45.6326C32.2373 45.6767 30.7045 45.7532 29.1955 45.615C27.7307 45.4797 27.3733 45.9943 27.4472 47.3883C27.5682 49.7056 27.4767 49.7085 29.792 49.7115C30.2379 49.7085 30.6809 49.7085 31.1209 49.7085ZM31.115 8.52906C30.1228 10.1759 29.2043 11.711 28.2711 13.2343C28.0673 13.5695 28.0408 13.793 28.3656 14.1047C29.8658 15.5457 31.1623 15.7133 32.9549 14.64C33.1646 14.5135 33.3565 14.3488 33.581 14.2606C34.2868 13.9812 34.21 13.593 33.8615 13.0461C32.9756 11.6492 32.1398 10.2259 31.115 8.52906Z" fill="#B91E1E"/>
<path d="M64.0965 12.402C68.3255 12.402 72.5575 12.4255 76.7865 12.3844C77.7463 12.3755 78.1863 12.5432 78.1686 13.643C78.1066 17.4131 78.1243 21.186 78.1597 24.9561C78.1686 25.8648 77.9559 26.2295 76.9312 26.2265C68.2753 26.1853 59.6165 26.1912 50.9577 26.2177C50.057 26.2206 49.6406 26.0589 49.6553 25.0267C49.7114 21.2066 49.7144 17.3866 49.6553 13.5665C49.6406 12.5226 50.0717 12.3785 50.9606 12.3873C55.3402 12.4196 59.7199 12.402 64.0965 12.402ZM63.816 23.7269C67.3569 23.7269 70.8978 23.721 74.4387 23.7327C75.1268 23.7357 75.6731 23.7416 75.6495 22.7652C75.5934 20.4156 75.5993 18.063 75.6465 15.7133C75.6642 14.8752 75.2715 14.7664 74.5745 14.7693C67.4927 14.784 60.4109 14.7928 53.3291 14.7605C52.4077 14.7575 52.1449 15.0722 52.1655 15.9456C52.2128 18.0982 52.2276 20.2568 52.1596 22.4094C52.1272 23.4298 52.452 23.7651 53.4915 23.7504C56.9291 23.6945 60.3725 23.7269 63.816 23.7269Z" fill="#B91E1E"/>
<path d="M43.4654 12.4021C44.1535 12.4021 44.8504 12.4668 45.5297 12.3874C46.6637 12.255 47.0712 12.6226 47.021 13.8137C46.9797 14.7694 46.5367 14.8694 45.8279 14.7723C44.8593 14.64 44.5876 15.0252 44.5905 15.9869C44.623 25.1973 44.626 34.4107 44.5876 43.6212C44.5846 44.6181 44.9184 44.9563 45.8457 44.8063C46.9502 44.6269 46.9797 45.2857 47.0033 46.115C47.0269 46.9766 46.8202 47.356 45.8663 47.3177C44.1476 47.2471 42.4229 47.2589 40.7012 47.3118C39.7709 47.3413 39.6616 46.8531 39.6794 46.1208C39.6971 45.4004 39.6321 44.6563 40.7071 44.8181C41.9445 45.0033 42.2516 44.5005 42.2457 43.2859C42.1925 34.2696 42.1984 25.2532 42.2398 16.2398C42.2457 15.1252 42.0035 14.5665 40.7957 14.7753C39.83 14.9429 39.6675 14.4165 39.6675 13.5843C39.6675 12.7403 39.8418 12.2992 40.8104 12.3844C41.6875 12.4638 42.5794 12.4021 43.4654 12.4021Z" fill="#B91E1E"/>
<path d="M56.2705 37.5132C54.5015 37.5132 52.7326 37.4808 50.9665 37.5279C50.0628 37.5514 49.6287 37.3426 49.6612 36.3192C49.7291 34.1195 49.7055 31.9169 49.6701 29.7172C49.6583 28.9409 49.8354 28.5703 50.7214 28.5791C54.3568 28.6203 57.9922 28.6203 61.6276 28.5791C62.5106 28.5674 62.6967 28.9144 62.6849 29.6996C62.6465 31.9493 62.6376 34.1989 62.6878 36.4486C62.7055 37.2985 62.3925 37.5455 61.5804 37.5279C59.8084 37.4838 58.0395 37.5132 56.2705 37.5132ZM56.2144 35.0812C56.6072 35.0812 57.0029 35.0812 57.3957 35.0812C60.4493 35.0812 60.4286 35.0812 60.2573 31.961C60.2219 31.2846 60.0447 30.9935 59.33 31.0023C57.2657 31.0317 55.1985 31.0141 53.1312 31.0112C52.6676 31.0112 52.3102 31.0464 52.1773 31.6522C51.5897 34.3519 52.1449 35.0782 54.8854 35.0782C55.3284 35.0812 55.7714 35.0812 56.2144 35.0812Z" fill="#B91E1E"/>
<path d="M71.7571 28.5969C73.5231 28.5969 75.2892 28.6322 77.0552 28.5822C77.8939 28.5557 78.1715 28.8498 78.1567 29.6703C78.1183 31.917 78.1213 34.1638 78.1567 36.4105C78.1685 37.2192 77.9057 37.5368 77.064 37.528C73.4346 37.4956 69.8051 37.4986 66.1756 37.525C65.4077 37.5309 65.1449 37.2574 65.1567 36.5017C65.1892 34.2049 65.198 31.9082 65.1537 29.6144C65.136 28.7233 65.5524 28.5704 66.3173 28.5851C68.1276 28.6204 69.9439 28.5969 71.7571 28.5969ZM71.4972 35.0813C71.89 35.0813 72.2828 35.0813 72.6756 35.0813C75.865 35.0813 75.8414 35.0813 75.6465 31.9347C75.6052 31.2377 75.3896 30.9936 74.6956 31.0024C72.6342 31.0318 70.5699 31.023 68.5086 31.0054C67.912 30.9995 67.664 31.1818 67.599 31.8288C67.2741 35.0842 67.2535 35.0813 70.4636 35.0813C70.8121 35.0813 71.1547 35.0813 71.4972 35.0813Z" fill="#B91E1E"/>
<path d="M53.6185 43.2329C53.1785 43.2329 52.7355 43.2094 52.2984 43.2388C51.4449 43.2917 50.8307 43.2741 50.8218 42.0713C50.813 40.8479 51.377 40.7185 52.3398 40.7685C53.3173 40.8185 54.3007 40.8244 55.2753 40.7685C56.2291 40.7127 56.6692 40.9509 56.678 42.0419C56.6869 43.2005 56.1258 43.3123 55.2339 43.2447C54.6964 43.2005 54.156 43.2329 53.6185 43.2329Z" fill="#B91E1E"/>
<path d="M69.1997 43.2329C68.7567 43.2329 68.3137 43.2065 67.8766 43.2388C66.9582 43.3035 66.3232 43.2653 66.3173 41.989C66.3144 40.6598 67.0527 40.7627 67.9091 40.7744C68.8896 40.7892 69.876 40.8333 70.8505 40.7627C71.8457 40.6892 72.0672 41.1038 72.085 42.0302C72.1056 43.0241 71.7512 43.3388 70.8151 43.2417C70.2835 43.1888 69.7372 43.2329 69.1997 43.2329Z" fill="#B91E1E"/>
<path d="M60.2573 43.2066C59.2178 43.436 59.0642 42.8978 59.0495 41.998C59.0347 41.051 59.3241 40.754 60.2869 40.7452C61.2851 40.7393 61.4918 41.1157 61.4977 42.0215C61.5007 42.9625 61.2555 43.4213 60.2573 43.2066Z" fill="#B91E1E"/>
<path d="M75.5609 40.8156C76.5768 40.6215 76.9371 40.9832 76.9134 41.9655C76.8928 42.8389 76.7569 43.2976 75.7144 43.2653C74.8108 43.2359 74.3766 43.0682 74.4387 42.0566C74.4859 41.2214 74.4977 40.5333 75.5609 40.8156Z" fill="#B91E1E"/>
<path d="M42.7182 57.4574C42.9545 58.5425 42.3048 58.5837 41.4542 58.6366C40.4029 58.7013 40.2759 58.2308 40.2346 57.3456C40.1873 56.2811 40.6894 56.2017 41.5547 56.1605C42.5853 56.1164 42.8895 56.5193 42.7182 57.4574Z" fill="#B91E1E"/>
<path d="M36.7911 58.5661C35.7959 58.7572 35.344 58.5131 35.3942 57.4633C35.4356 56.6134 35.4887 56.0988 36.5696 56.1605C37.4231 56.2105 37.9812 56.2605 37.8661 57.3339C37.7804 58.0985 37.9783 58.9778 36.7911 58.5661Z" fill="#B91E1E"/>
<path d="M47.5585 57.431C47.8007 58.4749 47.2455 58.6073 46.3477 58.6396C45.3318 58.6749 45.1576 58.275 45.131 57.3692C45.1044 56.3576 45.4913 56.1782 46.4068 56.1606C47.402 56.14 47.7623 56.4752 47.5585 57.431Z" fill="#B91E1E"/>
<path d="M29.8747 25.1974C29.8747 24.3181 29.9249 23.4329 29.8599 22.5566C29.792 21.6155 29.9751 21.1715 31.1003 21.1597C32.2904 21.145 32.3229 21.7096 32.3052 22.5889C32.2638 24.4945 32.2491 26.406 32.3111 28.3116C32.3436 29.2909 31.8829 29.4115 31.0648 29.4203C30.2084 29.4291 29.795 29.2233 29.8599 28.2763C29.9308 27.2559 29.8747 26.2237 29.8747 25.1974Z" fill="#B91E1E"/>
<path d="M29.8747 38.4837C30.2025 37.9661 29.2161 36.8192 30.6455 36.6222C31.7116 36.4752 32.5326 36.631 32.2993 38.0279C32.252 38.3132 32.32 38.6161 32.2875 38.9072C32.1989 39.6659 32.7364 40.6569 31.1505 40.6893C29.541 40.7216 29.8924 39.7688 29.8717 38.8925C29.8717 38.7954 29.8747 38.6984 29.8747 38.4837Z" fill="#B91E1E"/>
<path d="M31.0737 31.8141C32.0808 31.5935 32.3318 32.0523 32.32 32.9992C32.3111 33.8638 32.1132 34.2255 31.1653 34.1843C30.3206 34.1461 29.7891 34.1108 29.8393 33.0198C29.8806 32.1082 30.0371 31.5876 31.0737 31.8141Z" fill="#B91E1E"/>
</svg>
