<svg width="225" height="48" viewBox="0 0 225 48" fill="none" xmlns="http://www.w3.org/2000/svg">
<g clip-path="url(#clip0_1_645)">
<path d="M76.0073 3.28543V11.5081L75.8633 13.9824H76.0073C76.4865 13.1349 77.2448 12.4124 78.2775 11.8171C79.3103 11.2241 80.415 10.9264 81.5918 10.9264C83.7765 10.9264 85.446 11.6058 86.6003 12.9645C87.7523 14.3232 88.3305 16.1409 88.3305 18.422V29.3371H85.0163V18.931C85.0163 15.6319 83.5628 13.9824 80.658 13.9824C79.29 13.9824 78.1718 14.5345 77.3078 15.6387C76.4438 16.743 76.0118 18.0222 76.0118 19.4763V29.3348H72.6975V3.28543H76.0073Z" fill="#595959"/>
<path d="M95.823 7.03436C95.3663 7.49559 94.815 7.72507 94.1648 7.72507C93.5145 7.72507 92.9633 7.49559 92.5065 7.03436C92.0498 6.57313 91.8225 6.01647 91.8225 5.35984C91.8225 4.7032 92.0498 4.14654 92.5065 3.68531C92.9633 3.22408 93.5145 2.9946 94.1648 2.9946C94.815 2.9946 95.3663 3.22635 95.823 3.68531C96.2798 4.14654 96.507 4.7032 96.507 5.35984C96.507 6.01647 96.2775 6.57313 95.823 7.03436ZM95.823 29.3348H92.5088V11.5081H95.823V29.3348Z" fill="#595959"/>
<path d="M107.352 29.9165C105.071 29.9165 103.102 29.0077 101.444 27.1877C99.7853 25.3678 98.9573 23.1139 98.9573 20.4215C98.9573 17.7291 99.7853 15.4729 101.444 13.6552C103.102 11.8353 105.071 10.9264 107.352 10.9264C108.698 10.9264 109.904 11.2173 110.972 11.7989C112.041 12.3806 112.84 13.1076 113.369 13.9824H113.513L113.369 11.5081V3.28543H116.683V29.3348H113.513V26.8606H113.369C112.84 27.733 112.041 28.4624 110.972 29.044C109.904 29.6257 108.695 29.9165 107.352 29.9165ZM107.892 26.8606C109.454 26.8606 110.779 26.2789 111.872 25.1133C112.966 23.95 113.513 22.3846 113.513 20.4192C113.513 18.4538 112.966 16.8907 111.872 15.7251C110.779 14.5618 109.451 13.9778 107.892 13.9778C106.355 13.9778 105.035 14.5663 103.93 15.7433C102.825 16.9202 102.272 18.4788 102.272 20.4192C102.272 22.3596 102.823 23.9182 103.93 25.0951C105.032 26.2744 106.353 26.8606 107.892 26.8606Z" fill="#595959"/>
<path d="M128.534 29.9165C125.867 29.9165 123.701 29.019 122.031 27.2241C120.362 25.4291 119.527 23.1616 119.527 20.4215C119.527 17.8267 120.337 15.5956 121.959 13.7279C123.581 11.8603 125.651 10.9264 128.174 10.9264C130.79 10.9264 132.887 11.7876 134.46 13.5098C136.033 15.232 136.82 17.5359 136.82 20.4215L136.784 21.0395H122.841C122.938 22.8344 123.532 24.2545 124.625 25.2951C125.719 26.338 126.997 26.8605 128.462 26.8605C130.84 26.8605 132.449 25.8427 133.29 23.8046L136.244 25.0406C135.668 26.422 134.719 27.5808 133.398 28.5146C132.077 29.4507 130.455 29.9165 128.534 29.9165ZM133.29 18.2744C133.218 17.2565 132.755 16.2863 131.904 15.3638C131.051 14.4413 129.785 13.9801 128.104 13.9801C126.88 13.9801 125.816 14.3686 124.916 15.1434C124.016 15.9205 123.397 16.9634 123.059 18.2721H133.29V18.2744Z" fill="#595959"/>
<path d="M139.846 29.3348V11.5081H143.017V13.9824H143.161C143.665 13.1349 144.439 12.4124 145.485 11.8171C146.529 11.2241 147.568 10.9264 148.601 10.9264C151.339 10.9264 153.2 12.067 154.186 14.3459C155.626 12.067 157.68 10.9264 160.346 10.9264C162.436 10.9264 164.009 11.599 165.067 12.9463C166.124 14.2914 166.651 16.1181 166.651 18.422V29.3371H163.336V18.931C163.336 17.136 163.012 15.8637 162.364 15.1116C161.716 14.3596 160.731 13.9847 159.41 13.9847C158.114 13.9847 157.039 14.5436 156.186 15.6592C155.333 16.7748 154.908 18.0494 154.908 19.4786V29.3371H151.594V18.931C151.594 17.136 151.27 15.8637 150.622 15.1116C149.974 14.3596 148.988 13.9847 147.667 13.9847C146.371 13.9847 145.296 14.5436 144.443 15.6592C143.59 16.7748 143.165 18.0494 143.165 19.4786V29.3371H139.846V29.3348Z" fill="#595959"/>
<path d="M174.143 7.03436C173.687 7.49559 173.135 7.72507 172.485 7.72507C171.835 7.72507 171.284 7.49559 170.827 7.03436C170.37 6.57313 170.143 6.01647 170.143 5.35984C170.143 4.7032 170.37 4.14654 170.827 3.68531C171.284 3.22408 171.835 2.9946 172.485 2.9946C173.135 2.9946 173.687 3.22635 174.143 3.68531C174.6 4.14654 174.827 4.7032 174.827 5.35984C174.827 6.01647 174.6 6.57313 174.143 7.03436ZM174.143 29.3348H170.829V11.5081H174.143V29.3348Z" fill="#595959"/>
<path d="M193.959 29.3348H190.789V26.8605H190.645C190.141 27.7103 189.371 28.4306 188.339 29.0258C187.306 29.6189 186.212 29.9165 185.06 29.9165C182.851 29.9165 181.175 29.2371 180.034 27.8784C178.893 26.5197 178.322 24.7021 178.322 22.4209V11.5081H181.636V21.8756C181.636 25.1997 183.089 26.8605 185.994 26.8605C187.362 26.8605 188.48 26.3039 189.344 25.186C190.208 24.0704 190.64 22.7844 190.64 21.3303V11.5081H193.955V29.3348H193.959Z" fill="#595959"/>
<path d="M197.993 29.3348V11.5081H201.164V13.9824H201.308C201.812 13.1349 202.586 12.4124 203.632 11.8171C204.676 11.2241 205.715 10.9264 206.748 10.9264C209.486 10.9264 211.347 12.067 212.333 14.3459C213.773 12.067 215.827 10.9264 218.493 10.9264C220.583 10.9264 222.156 11.599 223.214 12.9463C224.271 14.2914 224.798 16.1181 224.798 18.422V29.3371H221.483V18.931C221.483 17.136 221.159 15.8637 220.511 15.1116C219.863 14.3596 218.878 13.9847 217.557 13.9847C216.261 13.9847 215.186 14.5436 214.333 15.6592C213.48 16.7748 213.055 18.0494 213.055 19.4786V29.3371H209.741V18.931C209.741 17.136 209.417 15.8637 208.769 15.1116C208.121 14.3596 207.135 13.9847 205.814 13.9847C204.518 13.9847 203.443 14.5436 202.59 15.6592C201.737 16.7748 201.312 18.0494 201.312 19.4786V29.3371H197.993V29.3348Z" fill="#595959"/>
<path d="M72.7087 43.2127V37.4575H73.7325V38.255H73.7797C73.9417 37.9801 74.1937 37.7484 74.529 37.5552C74.8665 37.3644 75.2017 37.2667 75.5347 37.2667C76.419 37.2667 77.0197 37.6348 77.337 38.3709C77.8027 37.6348 78.4642 37.2667 79.326 37.2667C80.001 37.2667 80.5072 37.4848 80.8492 37.9188C81.1912 38.3527 81.36 38.9435 81.36 39.6864V43.2104H80.289V39.8523C80.289 39.2729 80.1855 38.8617 79.974 38.6186C79.7647 38.3755 79.4475 38.255 79.02 38.255C78.6015 38.255 78.255 38.4345 77.9782 38.7958C77.7037 39.157 77.5642 39.566 77.5642 40.0295V43.2127H76.5V39.8546C76.5 39.2752 76.3965 38.8639 76.185 38.6208C75.9757 38.3777 75.6585 38.2573 75.231 38.2573C74.8125 38.2573 74.466 38.4368 74.1892 38.7981C73.9147 39.1593 73.7752 39.5683 73.7752 40.0318V43.215H72.7087V43.2127Z" fill="#595959"/>
<path d="M83.781 36.0148C83.6347 36.1624 83.4548 36.2374 83.2455 36.2374C83.0363 36.2374 82.8585 36.1624 82.71 36.0148C82.5615 35.8671 82.4895 35.6853 82.4895 35.474C82.4895 35.2627 82.5638 35.0832 82.71 34.9332C82.8563 34.7856 83.0363 34.7106 83.2455 34.7106C83.4548 34.7106 83.6325 34.7856 83.781 34.9332C83.9272 35.0832 84.0015 35.2627 84.0015 35.474C84.0015 35.6853 83.9295 35.8648 83.781 36.0148ZM83.781 43.2127H82.71V37.4575H83.781V43.2127Z" fill="#595959"/>
<path d="M86.1998 37.4575V38.255H86.247C86.4023 37.9801 86.6453 37.7484 86.9805 37.5552C87.3135 37.3644 87.6713 37.2667 88.0515 37.2667C88.758 37.2667 89.2958 37.4871 89.667 37.9233C90.0383 38.3618 90.225 38.9503 90.225 39.6842V43.2082H89.154V39.85C89.154 38.7844 88.686 38.2528 87.7478 38.2528C87.3068 38.2528 86.9445 38.43 86.6655 38.7867C86.3865 39.1434 86.247 39.5569 86.247 40.025V43.2082H85.176V37.453H86.1998V37.4575Z" fill="#595959"/>
<path d="M92.6438 36.0148C92.4975 36.1624 92.3175 36.2374 92.1083 36.2374C91.899 36.2374 91.7213 36.1624 91.5728 36.0148C91.4243 35.8671 91.3523 35.6853 91.3523 35.474C91.3523 35.2627 91.4265 35.0832 91.5728 34.9332C91.719 34.7856 91.899 34.7106 92.1083 34.7106C92.3175 34.7106 92.4953 34.7856 92.6438 34.9332C92.79 35.0832 92.8643 35.2627 92.8643 35.474C92.8643 35.6853 92.79 35.8648 92.6438 36.0148ZM92.6438 43.2127H91.5728V37.4575H92.6438V43.2127Z" fill="#595959"/>
<path d="M94.0388 43.2127V37.4575H95.0626V38.255H95.1098C95.2718 37.9801 95.5238 37.7484 95.8591 37.5552C96.1966 37.3644 96.5318 37.2667 96.8648 37.2667C97.7491 37.2667 98.3498 37.6348 98.6671 38.3709C99.1328 37.6348 99.7943 37.2667 100.656 37.2667C101.331 37.2667 101.837 37.4848 102.179 37.9188C102.521 38.3527 102.69 38.9435 102.69 39.6864V43.2104H101.619V39.8523C101.619 39.2729 101.516 38.8617 101.304 38.6186C101.095 38.3755 100.778 38.255 100.35 38.255C99.9316 38.255 99.5851 38.4345 99.3083 38.7958C99.0338 39.157 98.8943 39.566 98.8943 40.0295V43.2127H97.8233V39.8546C97.8233 39.2752 97.7198 38.8639 97.5083 38.6208C97.2991 38.3777 96.9818 38.2573 96.5543 38.2573C96.1358 38.2573 95.7893 38.4368 95.5126 38.7981C95.2381 39.1593 95.0986 39.5683 95.0986 40.0318V43.215H94.0388V43.2127Z" fill="#595959"/>
<path d="M108.947 43.2127H107.923V42.4129H107.876C107.714 42.6879 107.464 42.9196 107.131 43.1127C106.798 43.3036 106.445 43.4013 106.074 43.4013C105.361 43.4013 104.821 43.1832 104.452 42.7447C104.083 42.3062 103.898 41.72 103.898 40.9838V37.4598H104.969V40.8066C104.969 41.879 105.437 42.4152 106.375 42.4152C106.816 42.4152 107.179 42.2357 107.458 41.8745C107.737 41.5155 107.876 41.0997 107.876 40.6294V37.4575H108.947V43.2127Z" fill="#595959"/>
<path d="M110.25 43.2127V37.4575H111.274V38.255H111.321C111.483 37.9801 111.735 37.7484 112.07 37.5552C112.408 37.3644 112.743 37.2667 113.076 37.2667C113.96 37.2667 114.561 37.6348 114.878 38.3709C115.344 37.6348 116.005 37.2667 116.867 37.2667C117.542 37.2667 118.048 37.4848 118.39 37.9188C118.732 38.3527 118.901 38.9435 118.901 39.6864V43.2104H117.83V39.8523C117.83 39.2729 117.727 38.8617 117.515 38.6186C117.306 38.3755 116.989 38.255 116.561 38.255C116.143 38.255 115.796 38.4345 115.519 38.7958C115.245 39.157 115.105 39.566 115.105 40.0295V43.2127H114.035V39.8546C114.035 39.2752 113.931 38.8639 113.72 38.6208C113.51 38.3777 113.193 38.2573 112.765 38.2573C112.347 38.2573 112 38.4368 111.724 38.7981C111.449 39.1593 111.31 39.5683 111.31 40.0318V43.215H110.25V43.2127Z" fill="#595959"/>
<path d="M123.786 43.2127H122.715V37.4575H123.739V38.3982H123.786C123.894 38.0846 124.117 37.8279 124.454 37.6234C124.792 37.4189 125.118 37.3189 125.438 37.3189C125.755 37.3189 126.023 37.3667 126.241 37.4598L125.834 38.4709C125.694 38.4164 125.503 38.3891 125.264 38.3891C124.877 38.3891 124.533 38.5436 124.236 38.8526C123.937 39.1616 123.788 39.566 123.788 40.0682V43.2127H123.786Z" fill="#595959"/>
<path d="M128.102 36.0148C127.955 36.1624 127.775 36.2374 127.566 36.2374C127.357 36.2374 127.179 36.1624 127.031 36.0148C126.882 35.8671 126.81 35.6853 126.81 35.474C126.81 35.2627 126.884 35.0832 127.031 34.9332C127.177 34.7856 127.357 34.7106 127.566 34.7106C127.775 34.7106 127.953 34.7856 128.102 34.9332C128.248 35.0832 128.322 35.2627 128.322 35.474C128.322 35.6853 128.25 35.8648 128.102 36.0148ZM128.102 43.2127H127.031V37.4575H128.102V43.2127Z" fill="#595959"/>
<path d="M131.614 43.4013C130.977 43.4013 130.453 43.2445 130.039 42.931C129.625 42.6174 129.319 42.2266 129.125 41.7563L130.079 41.3564C130.381 42.0767 130.898 42.4379 131.625 42.4379C131.958 42.4379 132.232 42.363 132.444 42.2153C132.658 42.0676 132.763 41.8699 132.763 41.6291C132.763 41.2542 132.502 40.9997 131.985 40.8657L130.833 40.5839C130.468 40.4908 130.124 40.3113 129.798 40.05C129.472 39.7887 129.31 39.4342 129.31 38.9866C129.31 38.4777 129.532 38.0642 129.978 37.7484C130.423 37.4303 130.952 37.2735 131.566 37.2735C132.07 37.2735 132.52 37.3894 132.916 37.6189C133.312 37.8506 133.594 38.1801 133.765 38.6118L132.833 39.0003C132.624 38.4913 132.19 38.2369 131.53 38.2369C131.213 38.2369 130.945 38.3028 130.727 38.4368C130.511 38.5709 130.401 38.7504 130.401 38.9776C130.401 39.307 130.653 39.5297 131.157 39.6478L132.284 39.9182C132.82 40.0432 133.216 40.259 133.47 40.5635C133.726 40.8679 133.855 41.2133 133.855 41.5973C133.855 42.113 133.645 42.5447 133.227 42.8878C132.811 43.2286 132.273 43.4013 131.614 43.4013Z" fill="#595959"/>
<path d="M135.857 34.8037V39.9818L138.323 37.4575H139.696V37.5053L137.475 39.7478L139.801 43.165V43.2127H138.51L136.719 40.4999L135.857 41.3678V43.2127H134.786V34.8037H135.857Z" fill="#595959"/>
<path d="M140.767 44.5283L140.267 44.1988L140.942 43.2127C140.771 43.1809 140.625 43.1014 140.501 42.9719C140.378 42.8424 140.315 42.6811 140.315 42.4857C140.315 42.2675 140.391 42.079 140.546 41.9222C140.702 41.7654 140.888 41.6882 141.104 41.6882C141.32 41.6882 141.507 41.7654 141.662 41.9222C141.818 42.079 141.894 42.2675 141.894 42.4857C141.894 42.7129 141.777 43.0014 141.545 43.3536L140.767 44.5283Z" fill="#595959"/>
<path d="M145.663 43.2127V37.4575H146.687V38.255H146.734C146.896 37.9801 147.148 37.7484 147.483 37.5552C147.821 37.3644 148.156 37.2667 148.489 37.2667C149.373 37.2667 149.974 37.6348 150.291 38.3709C150.757 37.6348 151.418 37.2667 152.28 37.2667C152.955 37.2667 153.461 37.4848 153.803 37.9188C154.145 38.3527 154.314 38.9435 154.314 39.6864V43.2104H153.243V39.8523C153.243 39.2729 153.14 38.8617 152.928 38.6186C152.719 38.3755 152.402 38.255 151.974 38.255C151.556 38.255 151.209 38.4345 150.932 38.7958C150.658 39.157 150.518 39.566 150.518 40.0295V43.2127H149.447V39.8546C149.447 39.2752 149.344 38.8639 149.132 38.6208C148.923 38.3777 148.606 38.2573 148.178 38.2573C147.76 38.2573 147.413 38.4368 147.137 38.7981C146.862 39.1593 146.723 39.5683 146.723 40.0318V43.215H145.663V43.2127Z" fill="#595959"/>
<path d="M157.315 43.4013C156.71 43.4013 156.204 43.2264 155.799 42.8719C155.392 42.5197 155.189 42.054 155.189 41.4746C155.189 40.8475 155.43 40.3567 155.909 40C156.391 39.6433 156.982 39.4661 157.689 39.4661C158.317 39.4661 158.832 39.5842 159.235 39.8182V39.6546C159.235 39.232 159.091 38.8935 158.805 38.639C158.517 38.3845 158.166 38.2573 157.747 38.2573C157.437 38.2573 157.156 38.3323 156.904 38.48C156.652 38.6299 156.478 38.8321 156.386 39.0912L155.41 38.6686C155.542 38.3232 155.801 38.0051 156.188 37.712C156.575 37.4189 157.088 37.2712 157.723 37.2712C158.452 37.2712 159.057 37.4871 159.536 37.9165C160.018 38.3482 160.256 38.9548 160.256 39.7364V43.2127H159.232V42.4129H159.185C158.76 43.0719 158.137 43.4013 157.315 43.4013ZM157.489 42.4129C157.93 42.4129 158.332 42.2471 158.692 41.9131C159.052 41.5814 159.232 41.186 159.232 40.7339C158.931 40.4839 158.476 40.359 157.871 40.359C157.351 40.359 156.96 40.4726 156.697 40.6998C156.433 40.927 156.301 41.1928 156.301 41.4996C156.301 41.7813 156.42 42.004 156.661 42.1698C156.904 42.3312 157.18 42.4129 157.489 42.4129Z" fill="#595959"/>
<path d="M166.154 43.2127H164.898L163.492 41.0861L162.108 43.2127H160.853L162.864 40.2886L160.898 37.4575H162.108L163.514 39.4888L164.851 37.4575H166.106L164.117 40.2886L166.154 43.2127Z" fill="#595959"/>
<path d="M168.062 36.0148C167.915 36.1624 167.735 36.2374 167.526 36.2374C167.317 36.2374 167.139 36.1624 166.991 36.0148C166.842 35.8671 166.77 35.6853 166.77 35.474C166.77 35.2627 166.844 35.0832 166.991 34.9332C167.137 34.7856 167.317 34.7106 167.526 34.7106C167.735 34.7106 167.913 34.7856 168.062 34.9332C168.208 35.0832 168.282 35.2627 168.282 35.474C168.282 35.6853 168.208 35.8648 168.062 36.0148ZM168.062 43.2127H166.991V37.4575H168.062V43.2127Z" fill="#595959"/>
<path d="M169.457 43.2127V37.4575H170.48V38.255H170.528C170.69 37.9801 170.942 37.7484 171.277 37.5552C171.614 37.3644 171.95 37.2667 172.283 37.2667C173.167 37.2667 173.768 37.6348 174.085 38.3709C174.551 37.6348 175.212 37.2667 176.074 37.2667C176.749 37.2667 177.255 37.4848 177.597 37.9188C177.939 38.3527 178.108 38.9435 178.108 39.6864V43.2104H177.037V39.8523C177.037 39.2729 176.933 38.8617 176.722 38.6186C176.513 38.3755 176.195 38.255 175.768 38.255C175.349 38.255 175.003 38.4345 174.726 38.7958C174.452 39.157 174.312 39.566 174.312 40.0295V43.2127H173.241V39.8546C173.241 39.2752 173.138 38.8639 172.926 38.6208C172.717 38.3777 172.4 38.2573 171.972 38.2573C171.554 38.2573 171.207 38.4368 170.93 38.7981C170.656 39.1593 170.516 39.5683 170.516 40.0318V43.215H169.457V43.2127Z" fill="#595959"/>
<path d="M184.365 43.2127H183.341V42.4129H183.294C183.132 42.6879 182.882 42.9196 182.549 43.1127C182.216 43.3036 181.863 43.4013 181.492 43.4013C180.778 43.4013 180.238 43.1832 179.869 42.7447C179.5 42.3062 179.316 41.72 179.316 40.9838V37.4598H180.387V40.8066C180.387 41.879 180.855 42.4152 181.793 42.4152C182.234 42.4152 182.596 42.2357 182.875 41.8745C183.154 41.5155 183.294 41.0997 183.294 40.6294V37.4575H184.365V43.2127Z" fill="#595959"/>
<path d="M185.668 43.2127V37.4575H186.691V38.255H186.739C186.901 37.9801 187.153 37.7484 187.488 37.5552C187.825 37.3644 188.161 37.2667 188.494 37.2667C189.378 37.2667 189.979 37.6348 190.296 38.3709C190.762 37.6348 191.423 37.2667 192.285 37.2667C192.96 37.2667 193.466 37.4848 193.808 37.9188C194.15 38.3527 194.319 38.9435 194.319 39.6864V43.2104H193.248V39.8523C193.248 39.2729 193.144 38.8617 192.933 38.6186C192.724 38.3755 192.406 38.255 191.979 38.255C191.56 38.255 191.214 38.4345 190.937 38.7958C190.663 39.157 190.523 39.566 190.523 40.0295V43.2127H189.452V39.8546C189.452 39.2752 189.349 38.8639 189.137 38.6208C188.928 38.3777 188.611 38.2573 188.183 38.2573C187.765 38.2573 187.418 38.4368 187.141 38.7981C186.867 39.1593 186.727 39.5683 186.727 40.0318V43.215H185.668V43.2127Z" fill="#595959"/>
<path d="M201.101 43.4013C200.666 43.4013 200.277 43.3081 199.933 43.1196C199.589 42.931 199.33 42.697 199.159 42.4152H199.112L199.159 43.215V45.7506H198.088V37.4598H199.112V38.2573H199.159C199.33 37.9756 199.586 37.7415 199.933 37.553C200.277 37.3644 200.666 37.2712 201.101 37.2712C201.836 37.2712 202.473 37.5643 203.009 38.1528C203.544 38.739 203.812 39.4683 203.812 40.3363C203.812 41.2042 203.544 41.9335 203.009 42.5197C202.473 43.1082 201.836 43.4013 201.101 43.4013ZM200.927 42.4129C201.422 42.4129 201.85 42.2244 202.208 41.8427C202.563 41.4632 202.743 40.9611 202.743 40.334C202.743 39.7069 202.565 39.2048 202.208 38.8253C201.85 38.4459 201.425 38.255 200.927 38.255C200.423 38.255 199.996 38.4436 199.643 38.8185C199.289 39.1934 199.114 39.7001 199.114 40.334C199.114 40.9679 199.289 41.4723 199.643 41.8495C199.994 42.2266 200.423 42.4129 200.927 42.4129Z" fill="#595959"/>
<path d="M205.799 43.2127H204.728V37.4575H205.751V38.3982H205.799C205.907 38.0846 206.129 37.8279 206.467 37.6234C206.804 37.4189 207.131 37.3189 207.45 37.3189C207.767 37.3189 208.035 37.3667 208.253 37.4598L207.846 38.4709C207.707 38.4164 207.515 38.3891 207.277 38.3891C206.89 38.3891 206.546 38.5436 206.249 38.8526C205.949 39.1616 205.801 39.566 205.801 40.0682V43.2127H205.799Z" fill="#595959"/>
<path d="M209.102 38.146C209.653 37.5621 210.353 37.2712 211.208 37.2712C212.06 37.2712 212.762 37.5621 213.314 38.146C213.865 38.7299 214.139 39.4592 214.139 40.3363C214.139 41.2133 213.865 41.9426 213.314 42.5266C212.762 43.1105 212.06 43.4013 211.208 43.4013C210.355 43.4013 209.653 43.1105 209.102 42.5266C208.55 41.9426 208.276 41.2133 208.276 40.3363C208.276 39.4592 208.55 38.7276 209.102 38.146ZM209.898 41.8449C210.267 42.2244 210.701 42.4152 211.205 42.4152C211.709 42.4152 212.146 42.2266 212.513 41.8449C212.882 41.4655 213.066 40.9634 213.066 40.3363C213.066 39.7092 212.882 39.207 212.513 38.8276C212.144 38.4482 211.707 38.2573 211.205 38.2573C210.701 38.2573 210.265 38.4482 209.898 38.8276C209.529 39.207 209.345 39.7114 209.345 40.3363C209.345 40.9611 209.531 41.4655 209.898 41.8449Z" fill="#595959"/>
<path d="M217.66 34.756C218.002 34.756 218.288 34.806 218.52 34.9083L218.149 35.8353C218.025 35.7716 217.861 35.7421 217.66 35.7421C217.381 35.7421 217.152 35.8262 216.974 35.9943C216.796 36.1624 216.706 36.4078 216.706 36.7282V37.4575H220.336V43.2127H219.265V38.4436H216.706V43.2127H215.635V38.4436H214.564V37.4575H215.635V36.6941C215.635 36.1079 215.822 35.6376 216.193 35.2854C216.569 34.9333 217.057 34.756 217.66 34.756ZM220.336 36.0148C220.189 36.1624 220.009 36.2374 219.8 36.2374C219.591 36.2374 219.413 36.1624 219.265 36.0148C219.118 35.8671 219.044 35.6853 219.044 35.474C219.044 35.2627 219.118 35.0832 219.265 34.9332C219.411 34.7856 219.591 34.7106 219.8 34.7106C220.009 34.7106 220.187 34.7856 220.336 34.9332C220.482 35.0832 220.556 35.2627 220.556 35.474C220.558 35.6853 220.484 35.8648 220.336 36.0148Z" fill="#595959"/>
<path d="M224.138 43.3059C223.542 43.3059 223.085 43.1446 222.773 42.8242C222.458 42.5038 222.302 42.0494 222.302 41.4609V38.4436H221.301V37.4575H222.302V35.6967H223.373V37.4575H224.768V38.4436H223.373V41.3791C223.373 42.0062 223.63 42.3198 224.141 42.3198C224.334 42.3198 224.498 42.288 224.629 42.2266L225 43.1536C224.768 43.2559 224.48 43.3059 224.138 43.3059Z" fill="#595959"/>
<path d="M34.407 39.2866C33.0525 39.6728 31.6215 39.8773 30.141 39.8773C29.9385 39.8773 29.7383 39.875 29.5358 39.8659C29.3873 39.8591 29.2388 39.8546 29.0925 39.841C28.98 39.8341 28.872 39.8296 28.7618 39.816C28.6065 39.8046 28.4558 39.7887 28.3028 39.7705C28.1633 39.7546 28.0238 39.7364 27.8843 39.716C27.6773 39.6865 27.4748 39.6524 27.2723 39.6137C27.171 39.5956 27.0698 39.5774 26.9685 39.5524C26.8538 39.5319 26.7413 39.507 26.6287 39.4797C26.5928 39.4729 26.5568 39.4638 26.5208 39.4547C26.379 39.4206 26.235 39.3865 26.0955 39.3479C25.659 39.232 25.2315 39.098 24.8108 38.9412C24.6623 38.8935 24.516 38.8344 24.372 38.7753C24.354 38.7685 24.336 38.7594 24.318 38.7549C24.1898 38.7072 24.0638 38.6549 23.94 38.5959C23.5845 38.4436 23.2403 38.2778 22.9005 38.1005C22.8938 38.0983 22.8892 38.0937 22.8825 38.0914C22.8172 38.0574 22.7498 38.0233 22.6845 37.9869C22.662 37.9756 22.6395 37.9619 22.6193 37.9483C22.554 37.9142 22.4888 37.8779 22.4235 37.8415C22.3268 37.787 22.23 37.7302 22.1333 37.6734C22.014 37.603 21.897 37.5325 21.7822 37.4575C21.6248 37.3576 21.4695 37.2531 21.3143 37.1485C20.7878 36.7873 20.2815 36.3965 19.8023 35.9739L2.27475 18.2744C-0.7605 21.3348 -0.756 26.3039 2.27475 29.3644L10.8518 38.0256L10.8765 38.0506C11.0318 38.2073 11.187 38.3618 11.34 38.5186C13.8465 41.0497 16.1685 43.8012 19.3635 45.4598C25.8525 48.8316 34.0493 48.7998 40.608 45.637L40.6688 45.6098C43.5308 44.192 45.837 42.1448 48.0735 39.8864C48.0848 39.8705 52.4453 35.4717 52.4453 35.4717L45.3195 28.2761C43.839 33.6018 39.6833 37.7961 34.407 39.2866Z" fill="#004CC6"/>
<path d="M58.1108 18.3539L48.3683 8.51576L45.5603 5.6802C41.4158 2.13576 36.0563 0 30.1995 0C29.6933 0 29.1938 0.0159046 28.6965 0.0499858C28.6808 0.0499858 28.6695 0.0499858 28.6583 0.0522579C25.4723 0.256745 22.4595 1.09514 19.737 2.44249C17.6468 3.47629 15.7275 4.81454 14.0355 6.39591L7.93579 12.5555L14.9625 19.6512C16.443 14.3277 20.5988 10.1312 25.8683 8.63391C27.225 8.24539 28.6605 8.0409 30.1433 8.0409C30.2265 8.0409 30.312 8.0409 30.3953 8.04317C30.4785 8.04544 30.5618 8.04771 30.6428 8.04999C30.7665 8.05226 30.8903 8.05907 31.0163 8.06589C31.0793 8.06816 31.1445 8.07271 31.2053 8.07725C31.3808 8.08634 31.554 8.10224 31.7273 8.12042C31.86 8.13178 31.9905 8.14769 32.1233 8.16586C32.2808 8.18404 32.4383 8.20449 32.5935 8.22948C32.7848 8.25902 32.9693 8.2931 33.1538 8.33172C33.291 8.35672 33.4238 8.38625 33.561 8.41352C33.5768 8.41579 33.5903 8.42261 33.606 8.42261C33.7455 8.45442 33.8873 8.4885 34.0268 8.52712C34.182 8.56575 34.3373 8.60892 34.4903 8.65209C34.9605 8.78614 35.4218 8.94291 35.8718 9.12014C36.009 9.17467 36.144 9.23147 36.279 9.28827C36.4275 9.34962 36.5715 9.41323 36.7155 9.4814C36.846 9.54274 36.972 9.60409 37.098 9.66544C37.2533 9.74269 37.404 9.82221 37.5525 9.90173C37.5638 9.90855 37.5795 9.91764 37.5908 9.92218C37.6943 9.97671 37.7933 10.0358 37.8968 10.0926C38.124 10.2221 38.349 10.3584 38.5695 10.4993C38.682 10.5697 38.7923 10.6424 38.898 10.7174C39.3345 11.0105 39.753 11.3241 40.1558 11.6603C40.2525 11.7398 40.347 11.8194 40.437 11.9012L58.113 29.7484C61.227 26.6015 61.227 21.5007 58.1108 18.3539Z" fill="#004CC6"/>
<path d="M37.3534 26.933C38.9841 22.9576 37.1147 18.4 33.1779 16.7533C29.2412 15.1066 24.7278 16.9944 23.0972 20.9698C21.4665 24.9452 23.3359 29.5028 27.2727 31.1495C31.2094 32.7961 35.7227 30.9084 37.3534 26.933Z" fill="#004CC6"/>
</g>
<defs>
<clipPath id="clip0_1_645">
<rect width="225" height="48" fill="white"/>
</clipPath>
</defs>
</svg>
