<svg width="123" height="79" viewBox="0 0 123 79" fill="none" xmlns="http://www.w3.org/2000/svg">
<g clip-path="url(#clip0_1_633)">
<path d="M87.7926 54.6636C92.4458 45.8441 94.0997 37.124 90.891 27.785C85.6424 12.5443 70.0841 3.89051 53.9635 7.48243C39.2101 10.7759 28.9886 25.9172 30.7969 41.7769C32.5391 56.9956 45.859 68.5671 61.4835 68.6665C66.1918 68.6997 70.7237 67.9592 74.7704 65.7488C77.7806 64.1131 78.2988 65.2957 79.3133 67.8155C80.438 70.6006 80.2174 71.728 77.1411 72.7889C60.2816 78.5802 44.9328 74.0047 30.1904 65.9919C18.756 59.7807 9.41662 50.9833 1.4004 40.727C-0.143306 38.7487 -0.661549 37.2124 1.12473 34.9689C15.5032 17.0535 32.8478 3.92367 56.1577 0.442276C68.9815 -1.46973 80.4159 3.00635 91.277 9.14023C102.921 15.7162 112.602 24.6905 121.357 34.7368C122.989 36.6046 123.86 38.0413 121.787 40.3401C115.491 47.3029 108.919 53.9563 101.421 59.6481C99.7122 60.9412 98.2236 61.9137 96.4263 59.5707C94.3864 56.8851 91.6077 55.1278 87.7926 54.6636ZM28.2608 18.4461C20.5974 23.4195 14.6542 29.0892 9.2843 35.4109C8.1155 36.7924 7.34365 37.9087 8.8653 39.6218C14.5219 46.0098 20.4431 52.0664 28.1947 56.863C23.3099 41.4785 21.5788 38.1187 28.2608 18.4461ZM95.3237 19.8718C97.4848 26.5914 99.0947 31.9185 99.1609 37.7098C99.2381 43.6779 97.1651 49.0713 95.5552 55.382C102.601 50.8064 107.938 45.5567 113.131 40.1081C114.697 38.4613 114.962 37.2124 113.253 35.4883C107.993 30.1502 102.811 24.7347 95.3237 19.8718Z" fill="black"/>
<path d="M38.0521 37.7538C38.0191 27.829 43.5874 19.3853 52.574 15.7602C61.4392 12.1793 71.7931 14.2903 78.453 21.021C84.8815 27.5306 86.9434 38.7042 83.2937 47.1812C80.8458 52.873 81.7169 56.3322 87.3183 58.2774C93.3277 60.3552 96.5364 65.3618 100.704 69.3405C103.152 71.6725 103.042 74.8002 100.539 77.2096C98.0691 79.5968 95.0037 79.6189 92.6992 77.1211C88.7958 72.8882 83.7678 69.7494 81.7389 63.6819C79.9967 58.4984 75.9611 57.4706 70.7786 59.5815C54.8013 66.0912 38.1183 54.9618 38.0521 37.7538ZM61.4282 20.5457C51.9565 20.5568 44.5798 28.1385 44.6129 37.8201C44.657 47.4022 52.3314 55.2049 61.6157 55.0834C70.8227 54.9728 78.7287 46.8938 78.6956 37.6322C78.6625 28.2822 70.8338 20.5347 61.4282 20.5457Z" fill="black"/>
</g>
<g clip-path="url(#clip1_1_633)">
<path d="M73 37.4787C73 43.8431 67.8491 49 61.4968 49C55.2574 49 50.1768 44.0245 50 37.8136C50.8223 38.0313 51.6871 38.1465 52.5776 38.1465C58.1566 38.1465 62.6812 33.6169 62.6812 28.0269C62.6812 27.3335 62.6109 26.655 62.4788 26C68.371 26.4993 73 31.447 73 37.4787Z" fill="#BD2120"/>
</g>
<defs>
<clipPath id="clip0_1_633">
<rect width="123" height="79" fill="white"/>
</clipPath>
<clipPath id="clip1_1_633">
<rect width="23" height="23" fill="white" transform="translate(50 26)"/>
</clipPath>
</defs>
</svg>
