<svg width="133" height="92" viewBox="0 0 133 92" fill="none" xmlns="http://www.w3.org/2000/svg">
<g clip-path="url(#clip0_1_624)">
<path d="M45.7062 46.1685C45.619 46.1903 45.5209 46.1903 45.4338 46.1903C44.7583 46.1903 44.1372 45.7443 43.952 45.0698C43.7341 44.3083 44.1372 43.5142 44.8672 43.2204L52.9843 40.0221C52.7991 39.6631 52.5921 39.315 52.3632 38.9887C52.2761 38.8581 52.1889 38.7276 52.0909 38.6079C52.0037 38.4774 51.9056 38.3577 51.8076 38.2381C51.2192 37.5092 50.5328 36.8674 49.7919 36.3452C49.6721 36.2582 49.5631 36.182 49.4433 36.1059C48.9421 35.7795 48.4082 35.5075 47.8635 35.29C47.6782 35.2247 47.4821 35.1485 47.286 35.0941C46.7739 34.931 46.2509 34.8222 45.7171 34.7678C45.5972 34.746 45.4774 34.7352 45.3466 34.7352C44.9326 34.7025 44.5186 34.7134 44.0936 34.746C38.9619 35.2029 35.2357 40.3376 35.7587 46.2229C36.2817 52.1082 40.8686 56.5032 46.0003 56.0463C47.0463 55.9484 48.0378 55.6655 48.953 55.2086C49.2036 55.0781 49.4651 54.9367 49.7048 54.7844C49.9554 54.6321 50.1842 54.458 50.4239 54.2839C50.7616 54.012 51.0885 53.7183 51.4045 53.4028C53.4528 51.2815 54.6186 48.1049 54.3353 44.6564L45.7062 46.1685Z" fill="#BD2120"/>
<path d="M77.161 40.849C73.7508 15.5998 53.834 -2.5565 32.6643 0.29368C11.4945 3.13298 -2.89829 25.9127 0.501072 51.151C3.91133 76.4001 23.8281 94.5564 44.9978 91.7062C66.1567 88.8669 80.5604 66.0981 77.161 40.849ZM47.4711 76.6394C33.2199 78.554 19.7968 66.3266 17.5088 49.3234C15.2207 32.3202 24.9176 16.9814 39.1688 15.0668C53.4309 13.1521 66.8431 25.3796 69.1311 42.3828C71.43 59.386 61.7331 74.7248 47.4711 76.6394Z" fill="black"/>
<path d="M112.473 27.5772L133 20.343C133 20.343 129.154 11.0309 119.032 13.3698C108.91 15.7087 105.337 26.3044 105.337 26.3044L64.4573 37.1177L65.5359 41.3821L78.545 39.0323L79.1661 36.4215L80.6587 38.3361L106.35 31.5261L116 36.4215C116 36.4215 134.5 39.0323 132.837 25.3036L112.473 27.5772Z" fill="#BD2120"/>
<path d="M81.8899 22.8016C81.8899 22.8016 91.8592 22.4426 98.6688 16.9163C98.6688 16.9163 89.3423 17.9824 81.8899 22.8016Z" fill="#BD2120"/>
<path d="M109.597 39.239C109.597 39.239 96.0974 40.4574 85.3 46.0055C85.3 46.0055 99.7364 45.5921 109.597 39.239Z" fill="#BD2120"/>
<path d="M53.6163 41.4365L45.4338 44.6566L54.1066 43.1445L63.2805 41.5345L62.3544 37.988L53.6163 41.4365Z" fill="#BD2120"/>
</g>
<defs>
<clipPath id="clip0_1_624">
<rect width="133" height="92" fill="white"/>
</clipPath>
</defs>
</svg>
