<svg width="102" height="87" viewBox="0 0 102 87" fill="none" xmlns="http://www.w3.org/2000/svg">
<g clip-path="url(#clip0_1_640)">
<path d="M31.2138 86.9402C28.0224 86.9435 24.8211 86.8172 21.6396 86.99C19.882 87.0864 19.4591 86.4251 19.5219 84.8602C19.6144 82.5941 19.5615 80.3248 19.6309 78.0554C19.7102 75.4571 18.7587 73.3207 16.9615 71.5065C12.845 67.3499 8.7252 63.1933 4.62525 59.02C3.81583 58.196 3.03614 57.3288 2.31592 56.425C0.799503 54.5212 -0.0132201 52.4412 0.00329868 49.8828C0.0958037 36.7617 0.0462474 23.6439 0.0462474 10.5228C0.0462474 7.30978 2.35887 4.66495 5.71879 4.02701C8.58644 3.48209 11.5697 5.19658 12.7558 8.05405C13.4925 9.82501 13.5255 11.7289 13.7205 13.5862C14.3515 19.577 14.8999 25.5776 15.445 31.5783C15.5805 33.0802 16.0364 34.3561 17.2522 35.323C23.6549 40.4066 29.2547 46.3774 35.2841 51.873C36.7509 53.2087 38.2244 54.5477 39.5723 56.0031C41.9642 58.5848 43.0644 61.7346 43.0842 65.2367C43.1206 71.769 43.0578 78.3013 43.1239 84.8336C43.1404 86.465 42.658 87.0564 40.9533 86.98C37.7123 86.8372 34.4614 86.9402 31.2138 86.9402ZM39.2618 74.3108C39.2618 72.1511 39.1395 69.9847 39.2849 67.8383C39.6186 62.9407 37.9204 59.1729 34.1112 55.9732C29.4761 52.079 25.2407 47.6998 20.7971 43.5731C19.1452 42.038 17.6585 40.2969 15.749 39.0676C14.662 38.3665 13.5487 38.4562 12.6071 39.443C11.6589 40.4398 11.6391 41.5097 12.4518 42.5829C12.8152 43.0614 13.2414 43.5033 13.6808 43.9086C18.0153 47.9124 22.3135 51.9561 26.7207 55.8768C28.4453 57.4085 26.7108 57.9501 26.1294 58.834C25.4157 59.9205 24.7847 59.4486 24.0381 58.7509C19.6837 54.684 15.2931 50.6603 10.9123 46.6232C6.91805 42.9451 6.86849 39.4962 10.8 35.7782C11.6358 34.9874 11.9265 34.1501 11.7779 32.9772C11.4211 30.1828 11.2129 27.3719 10.9321 24.5676C10.4696 19.9458 10.0203 15.324 9.5214 10.7088C9.32318 8.87142 8.1966 7.82146 6.66696 7.88459C4.97214 7.95437 3.9711 9.04419 3.87529 10.9414C3.85217 11.3833 3.85878 11.8252 3.85878 12.2705C3.85878 24.448 3.8819 36.6221 3.83895 48.7996C3.82904 51.4577 4.72766 53.6108 6.58437 55.4714C10.9916 59.8806 15.3459 64.3462 19.73 68.7786C22.2574 71.3337 23.6879 74.3141 23.4467 77.9989C23.3674 79.2117 23.417 80.4311 23.3839 81.6505C23.3575 82.6706 23.7341 83.1158 24.8409 83.1025C29.1886 83.0493 33.5364 83.056 37.8841 83.0992C38.9975 83.1125 39.2981 82.6639 39.275 81.6206C39.2254 79.1818 39.2618 76.7463 39.2618 74.3108Z" fill="black"/>
<path d="M101.984 30.5982C101.984 36.9112 101.947 43.2209 102 49.5339C102.026 52.7701 100.887 55.4482 98.6434 57.7175C94.1074 62.3128 89.6176 66.9545 85.0452 71.5165C83.2116 73.3472 82.2932 75.4239 82.3989 78.0388C82.498 80.5275 82.389 83.0228 82.4319 85.5114C82.4484 86.5514 82.1346 86.9667 81.0179 86.9601C74.1362 86.9169 67.2545 86.9269 60.3761 86.9568C59.4081 86.9601 58.9257 86.6345 58.9357 85.6477C59.0182 78.2315 58.6813 70.8121 59.1141 63.4059C59.3057 60.1065 60.8849 57.3786 63.2404 55.1491C69.6464 49.0787 76.092 43.0481 82.5244 37.0042C82.8052 36.7417 83.0762 36.3962 83.4164 36.2766C86.0925 35.3329 86.4394 33.1632 86.6442 30.7012C87.2125 23.9263 87.9095 17.1614 88.6298 10.3998C88.9767 7.16026 90.906 4.87761 93.5887 4.23966C96.4332 3.56184 99.1258 4.51876 100.748 6.7848C101.686 8.09724 101.987 9.58911 101.987 11.1707C101.984 17.6432 101.984 24.119 101.984 30.5982ZM98.0719 30.5251C98.0884 30.5251 98.1082 30.5251 98.1247 30.5251C98.1247 24.1057 98.1148 17.6864 98.1347 11.267C98.138 9.88815 97.8043 8.73851 96.4464 8.14708C94.3783 7.24665 92.667 8.60561 92.4159 11.2338C91.7419 18.331 91.0745 25.4281 90.2949 32.512C90.1264 34.0404 90.3907 35.097 91.5635 36.1569C94.745 39.0377 94.8441 42.5829 91.9864 45.7859C91.5106 46.3209 90.982 46.806 90.4534 47.2911C86.4724 50.946 82.5013 54.6076 78.5005 58.2359C76.5843 59.9703 77.1657 60.1132 75.1703 58.0731C74.2287 57.1095 74.46 56.651 75.3223 55.8735C79.6601 51.9561 83.9516 47.9889 88.2465 44.0216C88.7685 43.5398 89.2608 43.0049 89.6737 42.4268C90.3708 41.4499 90.2882 40.4465 89.5284 39.5327C88.7619 38.6124 87.7708 38.4562 86.6905 38.845C86.0066 39.0908 85.4714 39.566 84.9428 40.0644C78.7582 45.8823 72.5702 51.7002 66.3592 57.4949C64.2018 59.5084 62.811 61.934 62.7548 64.8878C62.6458 70.42 62.7284 75.9555 62.7151 81.4877C62.7118 82.6606 63.1777 83.1291 64.4034 83.1058C67.978 83.0394 71.556 83.0859 75.1339 83.0859C78.7449 83.0859 78.9167 83.0693 78.5864 79.3845C78.1536 74.55 79.9211 70.8586 83.4032 67.6356C87.6915 63.6684 91.6857 59.3855 95.6568 55.0893C97.3054 53.3051 98.128 51.265 98.1016 48.7863C98.0256 42.6992 98.0719 36.6121 98.0719 30.5251Z" fill="black"/>
<path d="M73.0707 12.2749C73.2051 15.3286 72.2341 17.8293 70.3087 19.8965C64.3238 26.3261 58.0865 32.5056 51.9398 38.7741C51.2953 39.4326 50.8921 39.3576 50.2777 38.7296C44.2517 32.6001 38.072 26.629 32.1777 20.3689C28.1046 16.0454 27.8028 9.62419 31.4124 4.75615C34.9205 0.0298213 40.9932 -1.34834 46.2375 1.41077C47.6171 2.13597 48.9145 3.00844 50.1213 4.00038C50.8564 4.60333 51.3858 4.5561 52.1181 3.91425C54.4386 1.88868 57.0443 0.463277 60.1793 0.140964C66.2081 -0.475877 71.4552 3.35854 72.7607 9.42135C72.9747 10.4161 73.1777 11.4164 73.0707 12.2749Z" fill="#BD2120"/>
</g>
<defs>
<clipPath id="clip0_1_640">
<rect width="102" height="87" fill="white"/>
</clipPath>
</defs>
</svg>
