<svg width="19" height="25" viewBox="0 0 19 25" fill="none" xmlns="http://www.w3.org/2000/svg">
<path d="M9.49995 25C7.7858 23.504 6.19694 21.8639 4.74998 20.0968C2.57856 17.4432 1.19925e-06 13.4913 1.19925e-06 9.72537C-0.00192344 5.79222 2.3129 2.24551 5.86428 0.740277C9.41566 -0.764958 13.5036 0.067976 16.2205 2.8504C18.0071 4.67031 19.0079 7.14589 19 9.72537C19 13.4913 16.4213 17.4432 14.2499 20.0968C12.803 21.8639 11.2141 23.504 9.49995 25ZM9.49995 2.78236C5.75419 2.78695 2.71876 5.89276 2.71427 9.72537C2.71427 11.3445 3.42948 14.1481 6.83318 18.3153C7.67208 19.3401 8.56219 20.3199 9.49995 21.2508C10.4378 20.321 11.3283 19.3426 12.1681 18.3194C15.5704 14.1467 16.2856 11.3431 16.2856 9.72537C16.2811 5.89276 13.2457 2.78695 9.49995 2.78236ZM9.49995 13.8912C7.25138 13.8912 5.42855 12.0261 5.42855 9.72537C5.42855 7.42466 7.25138 5.55956 9.49995 5.55956C11.7485 5.55956 13.5714 7.42466 13.5714 9.72537C13.5714 10.8302 13.1424 11.8898 12.3789 12.671C11.6153 13.4523 10.5798 13.8912 9.49995 13.8912Z" fill="black"/>
</svg>
